<?xml version="1.0" encoding="UTF-8"?>
<svg xmlns="http://www.w3.org/2000/svg" xmlns:xlink="http://www.w3.org/1999/xlink" version="1.2" >
<font id="Audi Type Extended Normal">
<font-face  font-family="Audi Type" units-per-em="4096" ascent="3113" descent="-983" font-style="normal" font-weight="400" font-stretch="expanded" cap-height="2966" x-height="2101" underline-position="-308" underline-thickness="205" />
<missing-glyph  horiz-adv-x="1487" d="M340 -864 L340 2966 L1155 2966 L1155 -864 L340 -864 Z " />
<glyph glyph-name=".null" d="" />
<glyph glyph-name="nonmarkingreturn" unicode="&#xd;" horiz-adv-x="1356" d="" />
<glyph glyph-name="space" unicode="&#x20;" horiz-adv-x="1356" d="" />
<glyph glyph-name="uni00A0" unicode="&#xa0;" horiz-adv-x="1356" d="" />
<glyph glyph-name="A" unicode="A" horiz-adv-x="3494" d="M3002 0 L2635 731 L2634 733 L848 733 L847 731 L483 0 L20 0 L1503 2966 L1991 2966 L3473 0 L3002 0 Z M1917 2220 Q1874 2307 1829 2399 Q1784 2491 1741 2580 Q1697 2491 1652.5 2400.5 Q1608 2310 1565 2220 L1000 1079 L999 1077 L2482 1077 L2481 1079 L1917 2220 Z " />
<glyph glyph-name="Agrave" unicode="&#xc0;" horiz-adv-x="3494" d="M3002 0 L2635 731 L2634 733 L848 733 L847 731 L483 0 L20 0 L1503 2966 L1991 2966 L3473 0 L3002 0 Z M1917 2220 Q1874 2307 1829 2399 Q1784 2491 1741 2580 Q1697 2491 1652.5 2400.5 Q1608 2310 1565 2220 L1000 1079 L999 1077 L2482 1077 L2481 1079 L1917 2220 Z M1577 3162 L971 3810 L1495 3810 L1946 3162 L1577 3162 Z " />
<glyph glyph-name="Aacute" unicode="&#xc1;" horiz-adv-x="3494" d="M3002 0 L2635 731 L2634 733 L848 733 L847 731 L483 0 L20 0 L1503 2966 L1991 2966 L3473 0 L3002 0 Z M1917 2220 Q1874 2307 1829 2399 Q1784 2491 1741 2580 Q1697 2491 1652.5 2400.5 Q1608 2310 1565 2220 L1000 1079 L999 1077 L2482 1077 L2481 1079 L1917 2220 Z M1540 3162 L1990 3810 L2515 3810 L1908 3162 L1540 3162 Z " />
<glyph glyph-name="Acircumflex" unicode="&#xc2;" horiz-adv-x="3494" d="M3002 0 L2635 731 L2634 733 L848 733 L847 731 L483 0 L20 0 L1503 2966 L1991 2966 L3473 0 L3002 0 Z M1917 2220 Q1874 2307 1829 2399 Q1784 2491 1741 2580 Q1697 2491 1652.5 2400.5 Q1608 2310 1565 2220 L1000 1079 L999 1077 L2482 1077 L2481 1079 L1917 2220 Z M2167 3162 L1741 3490 L1315 3162 L947 3162 L1561 3810 L1921 3810 L2536 3162 L2167 3162 Z " />
<glyph glyph-name="Atilde" unicode="&#xc3;" horiz-adv-x="3494" d="M3002 0 L2635 731 L2634 733 L848 733 L847 731 L483 0 L20 0 L1503 2966 L1991 2966 L3473 0 L3002 0 Z M1917 2220 Q1874 2307 1829 2399 Q1784 2491 1741 2580 Q1697 2491 1652.5 2400.5 Q1608 2310 1565 2220 L1000 1079 L999 1077 L2482 1077 L2481 1079 L1917 2220 Z M2519 3744 Q2519 3641 2493 3544.5 Q2467 3448 2411.5 3373 Q2356 3298 2269 3253 Q2182 3208 2061 3208 Q1988 3208 1925.5 3226 Q1863 3244 1808 3270.5 Q1753 3297 1704.5 3328.5 Q1656 3360 1611 3386.5 Q1566 3413 1523.5 3431 Q1481 3449 1438 3449 Q1393 3449 1360 3434 Q1327 3419 1304 3390.5 Q1281 3362 1267.5 3321 Q1254 3280 1250 3228 L967 3228 Q967 3331 993 3427.5 Q1019 3524 1075 3599 Q1131 3674 1217.5 3719.5 Q1304 3765 1426 3765 Q1499 3765 1561.5 3747 Q1624 3729 1678.5 3702 Q1733 3675 1781.5 3644 Q1830 3613 1875 3586 Q1920 3559 1962.5 3541 Q2005 3523 2048 3523 Q2093 3523 2126 3538 Q2159 3553 2182 3581.5 Q2205 3610 2218.5 3651 Q2232 3692 2237 3744 L2519 3744 Z " />
<glyph glyph-name="Adieresis" unicode="&#xc4;" horiz-adv-x="3494" d="M3002 0 L2635 731 L2634 733 L848 733 L847 731 L483 0 L20 0 L1503 2966 L1991 2966 L3473 0 L3002 0 Z M1917 2220 Q1874 2307 1829 2399 Q1784 2491 1741 2580 Q1697 2491 1652.5 2400.5 Q1608 2310 1565 2220 L1000 1079 L999 1077 L2482 1077 L2481 1079 L1917 2220 Z M988 3281 L988 3695 L1426 3695 L1426 3281 L988 3281 Z M2057 3281 L2057 3695 L2495 3695 L2495 3281 L2057 3281 Z " />
<glyph glyph-name="Amacron" unicode="&#x100;" horiz-adv-x="3494" d="M3002 0 L2635 731 L2634 733 L848 733 L847 731 L483 0 L20 0 L1503 2966 L1991 2966 L3473 0 L3002 0 Z M1917 2220 Q1874 2307 1829 2399 Q1784 2491 1741 2580 Q1697 2491 1652.5 2400.5 Q1608 2310 1565 2220 L1000 1079 L999 1077 L2482 1077 L2481 1079 L1917 2220 Z M1028 3302 L1028 3609 L2454 3609 L2454 3302 L1028 3302 Z " />
<glyph glyph-name="Abreve" unicode="&#x102;" horiz-adv-x="3494" d="M3002 0 L2635 731 L2634 733 L848 733 L847 731 L483 0 L20 0 L1503 2966 L1991 2966 L3473 0 L3002 0 Z M1917 2220 Q1874 2307 1829 2399 Q1784 2491 1741 2580 Q1697 2491 1652.5 2400.5 Q1608 2310 1565 2220 L1000 1079 L999 1077 L2482 1077 L2481 1079 L1917 2220 Z M2454 3810 Q2451 3656 2399.5 3531.5 Q2348 3407 2255.5 3318.5 Q2163 3230 2032.5 3182 Q1902 3134 1741 3134 Q1580 3134 1449.5 3182 Q1319 3230 1226.5 3318.5 Q1134 3407 1082.5 3531.5 Q1031 3656 1028 3810 L1315 3810 Q1323 3722 1353 3654 Q1383 3586 1436 3539.5 Q1489 3493 1565 3469 Q1641 3445 1741 3445 Q1841 3445 1917 3469 Q1993 3493 2046 3539.5 Q2099 3586 2129 3654 Q2159 3722 2167 3810 L2454 3810 Z " />
<glyph glyph-name="Aring" unicode="&#xc5;" horiz-adv-x="3494" d="M3002 0 L2635 731 L2634 733 L848 733 L847 731 L483 0 L20 0 L1503 2966 L1991 2966 L3473 0 L3002 0 Z M1917 2220 Q1874 2307 1829 2399 Q1784 2491 1741 2580 Q1697 2491 1652.5 2400.5 Q1608 2310 1565 2220 L1000 1079 L999 1077 L2482 1077 L2481 1079 L1917 2220 Z M2196 3580 Q2196 3487 2160.5 3407 Q2125 3327 2063.5 3269 Q2002 3211 1919 3178.5 Q1836 3146 1741 3146 Q1647 3146 1564 3178.5 Q1481 3211 1419.5 3269 Q1358 3327 1322.5 3407 Q1287 3487 1287 3580 Q1287 3674 1322.5 3753.5 Q1358 3833 1419.5 3891 Q1481 3949 1564 3981.5 Q1647 4014 1741 4014 Q1836 4014 1919 3981.5 Q2002 3949 2063.5 3891 Q2125 3833 2160.5 3753.5 Q2196 3674 2196 3580 Z M1741 3355 Q1790 3355 1831 3372.5 Q1872 3390 1902 3420.5 Q1932 3451 1949 3492 Q1966 3533 1966 3580 Q1966 3627 1949 3667.5 Q1932 3708 1902 3738.5 Q1872 3769 1831 3787.5 Q1790 3806 1741 3806 Q1692 3806 1651 3787.5 Q1610 3769 1580 3738.5 Q1550 3708 1533 3667.5 Q1516 3627 1516 3580 Q1516 3533 1533 3492 Q1550 3451 1580 3420.5 Q1610 3390 1651 3372.5 Q1692 3355 1741 3355 Z " />
<glyph glyph-name="Aogonek" unicode="&#x104;" horiz-adv-x="3494" d="M3346 -860 Q3297 -873 3240.5 -879 Q3184 -885 3125 -885 Q2999 -885 2909.5 -853 Q2820 -821 2763.5 -769.5 Q2707 -718 2680.5 -651.5 Q2654 -585 2654 -516 Q2654 -436 2684 -363.5 Q2714 -291 2763.5 -226 Q2813 -161 2875 -104.5 Q2937 -48 3002 0 L2635 731 L2634 733 L848 733 L847 731 L483 0 L20 0 L1503 2966 L1991 2966 L3473 0 L3248 0 Q3189 -57 3137 -115 Q3085 -173 3046 -230.5 Q3007 -288 2984 -344.5 Q2961 -401 2961 -455 Q2961 -556 3023 -605.5 Q3085 -655 3199 -655 Q3222 -655 3242 -653.5 Q3262 -652 3280 -650 Q3298 -648 3314.5 -645 Q3331 -642 3346 -639 L3346 -860 Z M1917 2220 Q1874 2307 1829 2399 Q1784 2491 1741 2580 Q1697 2491 1652.5 2400.5 Q1608 2310 1565 2220 L1000 1079 L999 1077 L2482 1077 L2481 1079 L1917 2220 Z " />
<glyph glyph-name="AE" unicode="&#xc6;" horiz-adv-x="5100" d="M2429 0 L2429 733 L836 733 L414 0 L-61 0 L1667 2966 L4788 2966 L4788 2621 L2851 2621 L2851 1696 L4542 1696 L4542 1352 L2851 1352 L2851 344 L4813 344 L4813 0 L2429 0 Z M2429 2621 L1929 2621 L1036 1077 L2429 1077 L2429 2621 Z " />
<glyph glyph-name="B" unicode="B" horiz-adv-x="3326" d="M492 0 L492 2966 L1610 2966 Q1922 2966 2158.5 2912.5 Q2395 2859 2554 2754.5 Q2713 2650 2794 2495.5 Q2875 2341 2875 2138 Q2875 2010 2842 1910.5 Q2809 1811 2747.5 1734.5 Q2686 1658 2597 1603 Q2508 1548 2396 1511 Q2545 1473 2661.5 1413.5 Q2778 1354 2858.5 1270.5 Q2939 1187 2981 1077 Q3023 967 3023 827 Q3023 692 2987 578 Q2951 464 2879.5 372.5 Q2808 281 2702 211 Q2596 141 2455 94.5 Q2314 48 2139.5 24 Q1965 0 1757 0 L492 0 Z M1667 340 Q1893 340 2065 362.5 Q2237 385 2353.5 440.5 Q2470 496 2529.5 590 Q2589 684 2589 827 Q2589 970 2529.5 1064.5 Q2470 1159 2353.5 1215.5 Q2237 1272 2065 1295.5 Q1893 1319 1667 1319 L913 1319 L913 340 L1667 340 Z M1520 1647 Q1746 1647 1918 1670 Q2090 1693 2206 1749.5 Q2322 1806 2381.5 1900.5 Q2441 1995 2441 2138 Q2441 2281 2381.5 2375 Q2322 2469 2206 2525 Q2090 2581 1918 2603.5 Q1746 2626 1520 2626 L913 2626 L913 1647 L1520 1647 Z " />
<glyph glyph-name="C" unicode="C" horiz-adv-x="3146" d="M2900 98 Q2823 67 2724 40.5 Q2625 14 2504.5 -6 Q2384 -26 2242 -37.5 Q2100 -49 1937 -49 Q1702 -49 1489 -6 Q1276 37 1094 122.5 Q912 208 765 336 Q618 464 514.5 634 Q411 804 355 1016.5 Q299 1229 299 1483 Q299 1723 355 1930.5 Q411 2138 513 2308 Q615 2478 760 2610 Q905 2742 1083 2832 Q1261 2922 1467.5 2968.5 Q1674 3015 1901 3015 Q2022 3015 2146.5 3005.5 Q2271 2996 2391.5 2976.5 Q2512 2957 2624.5 2927 Q2737 2897 2834 2855 L2834 2490 Q2724 2535 2611 2566 Q2498 2597 2387 2616.5 Q2276 2636 2167.5 2645 Q2059 2654 1958 2654 Q1773 2654 1610 2622 Q1447 2590 1310 2525 Q1173 2460 1065.5 2363 Q958 2266 883 2136 Q808 2006 768.5 1842.5 Q729 1679 729 1483 Q729 1264 777.5 1091.5 Q826 919 911.5 788.5 Q997 658 1113 566.5 Q1229 475 1364.5 417 Q1500 359 1648 333 Q1796 307 1946 307 Q2124 307 2272 321 Q2420 335 2538.5 356 Q2657 377 2747 402.5 Q2837 428 2900 451 L2900 98 Z " />
<glyph glyph-name="Cacute" unicode="&#x106;" horiz-adv-x="3146" d="M2900 98 Q2823 67 2724 40.5 Q2625 14 2504.5 -6 Q2384 -26 2242 -37.5 Q2100 -49 1937 -49 Q1702 -49 1489 -6 Q1276 37 1094 122.5 Q912 208 765 336 Q618 464 514.5 634 Q411 804 355 1016.5 Q299 1229 299 1483 Q299 1723 355 1930.5 Q411 2138 513 2308 Q615 2478 760 2610 Q905 2742 1083 2832 Q1261 2922 1467.5 2968.5 Q1674 3015 1901 3015 Q2022 3015 2146.5 3005.5 Q2271 2996 2391.5 2976.5 Q2512 2957 2624.5 2927 Q2737 2897 2834 2855 L2834 2490 Q2724 2535 2611 2566 Q2498 2597 2387 2616.5 Q2276 2636 2167.5 2645 Q2059 2654 1958 2654 Q1773 2654 1610 2622 Q1447 2590 1310 2525 Q1173 2460 1065.5 2363 Q958 2266 883 2136 Q808 2006 768.5 1842.5 Q729 1679 729 1483 Q729 1264 777.5 1091.5 Q826 919 911.5 788.5 Q997 658 1113 566.5 Q1229 475 1364.5 417 Q1500 359 1648 333 Q1796 307 1946 307 Q2124 307 2272 321 Q2420 335 2538.5 356 Q2657 377 2747 402.5 Q2837 428 2900 451 L2900 98 Z M1643 3162 L2093 3810 L2618 3810 L2011 3162 L1643 3162 Z " />
<glyph glyph-name="Ccircumflex" unicode="&#x108;" horiz-adv-x="3146" d="M2900 98 Q2823 67 2724 40.5 Q2625 14 2504.5 -6 Q2384 -26 2242 -37.5 Q2100 -49 1937 -49 Q1702 -49 1489 -6 Q1276 37 1094 122.5 Q912 208 765 336 Q618 464 514.5 634 Q411 804 355 1016.5 Q299 1229 299 1483 Q299 1723 355 1930.5 Q411 2138 513 2308 Q615 2478 760 2610 Q905 2742 1083 2832 Q1261 2922 1467.5 2968.5 Q1674 3015 1901 3015 Q2022 3015 2146.5 3005.5 Q2271 2996 2391.5 2976.5 Q2512 2957 2624.5 2927 Q2737 2897 2834 2855 L2834 2490 Q2724 2535 2611 2566 Q2498 2597 2387 2616.5 Q2276 2636 2167.5 2645 Q2059 2654 1958 2654 Q1773 2654 1610 2622 Q1447 2590 1310 2525 Q1173 2460 1065.5 2363 Q958 2266 883 2136 Q808 2006 768.5 1842.5 Q729 1679 729 1483 Q729 1264 777.5 1091.5 Q826 919 911.5 788.5 Q997 658 1113 566.5 Q1229 475 1364.5 417 Q1500 359 1648 333 Q1796 307 1946 307 Q2124 307 2272 321 Q2420 335 2538.5 356 Q2657 377 2747 402.5 Q2837 428 2900 451 L2900 98 Z M2269 3162 L1843 3490 L1417 3162 L1049 3162 L1663 3810 L2023 3810 L2638 3162 L2269 3162 Z " />
<glyph glyph-name="Ccaron" unicode="&#x10c;" horiz-adv-x="3146" d="M2900 98 Q2823 67 2724 40.5 Q2625 14 2504.5 -6 Q2384 -26 2242 -37.5 Q2100 -49 1937 -49 Q1702 -49 1489 -6 Q1276 37 1094 122.5 Q912 208 765 336 Q618 464 514.5 634 Q411 804 355 1016.5 Q299 1229 299 1483 Q299 1723 355 1930.5 Q411 2138 513 2308 Q615 2478 760 2610 Q905 2742 1083 2832 Q1261 2922 1467.5 2968.5 Q1674 3015 1901 3015 Q2022 3015 2146.5 3005.5 Q2271 2996 2391.5 2976.5 Q2512 2957 2624.5 2927 Q2737 2897 2834 2855 L2834 2490 Q2724 2535 2611 2566 Q2498 2597 2387 2616.5 Q2276 2636 2167.5 2645 Q2059 2654 1958 2654 Q1773 2654 1610 2622 Q1447 2590 1310 2525 Q1173 2460 1065.5 2363 Q958 2266 883 2136 Q808 2006 768.5 1842.5 Q729 1679 729 1483 Q729 1264 777.5 1091.5 Q826 919 911.5 788.5 Q997 658 1113 566.5 Q1229 475 1364.5 417 Q1500 359 1648 333 Q1796 307 1946 307 Q2124 307 2272 321 Q2420 335 2538.5 356 Q2657 377 2747 402.5 Q2837 428 2900 451 L2900 98 Z M1663 3162 L1049 3810 L1417 3810 L1843 3478 L2269 3810 L2638 3810 L2023 3162 L1663 3162 Z " />
<glyph glyph-name="Cdotaccent" unicode="&#x10a;" horiz-adv-x="3146" d="M2900 98 Q2823 67 2724 40.5 Q2625 14 2504.5 -6 Q2384 -26 2242 -37.5 Q2100 -49 1937 -49 Q1702 -49 1489 -6 Q1276 37 1094 122.5 Q912 208 765 336 Q618 464 514.5 634 Q411 804 355 1016.5 Q299 1229 299 1483 Q299 1723 355 1930.5 Q411 2138 513 2308 Q615 2478 760 2610 Q905 2742 1083 2832 Q1261 2922 1467.5 2968.5 Q1674 3015 1901 3015 Q2022 3015 2146.5 3005.5 Q2271 2996 2391.5 2976.5 Q2512 2957 2624.5 2927 Q2737 2897 2834 2855 L2834 2490 Q2724 2535 2611 2566 Q2498 2597 2387 2616.5 Q2276 2636 2167.5 2645 Q2059 2654 1958 2654 Q1773 2654 1610 2622 Q1447 2590 1310 2525 Q1173 2460 1065.5 2363 Q958 2266 883 2136 Q808 2006 768.5 1842.5 Q729 1679 729 1483 Q729 1264 777.5 1091.5 Q826 919 911.5 788.5 Q997 658 1113 566.5 Q1229 475 1364.5 417 Q1500 359 1648 333 Q1796 307 1946 307 Q2124 307 2272 321 Q2420 335 2538.5 356 Q2657 377 2747 402.5 Q2837 428 2900 451 L2900 98 Z M1618 3257 L1618 3703 L2072 3703 L2072 3257 L1618 3257 Z " />
<glyph glyph-name="Ccedilla" unicode="&#xc7;" horiz-adv-x="3146" d="M1348 -643 Q1388 -652 1431.5 -658 Q1475 -664 1540 -664 Q1566 -664 1599.5 -658.5 Q1633 -653 1662.5 -638 Q1692 -623 1712.5 -597.5 Q1733 -572 1733 -532 Q1733 -489 1709 -456.5 Q1685 -424 1645.5 -400 Q1606 -376 1556 -360.5 Q1506 -345 1454 -336 L1634 -29 Q1439 -4 1264 54.5 Q1089 113 940.5 205.5 Q792 298 673 424.5 Q554 551 471 711 Q388 871 343.5 1064 Q299 1257 299 1483 Q299 1723 355 1930.5 Q411 2138 513 2308 Q615 2478 760 2610 Q905 2742 1083 2832 Q1261 2922 1467.5 2968.5 Q1674 3015 1901 3015 Q2022 3015 2146.5 3005.5 Q2271 2996 2391.5 2976.5 Q2512 2957 2624.5 2927 Q2737 2897 2834 2855 L2834 2490 Q2724 2535 2611 2566 Q2498 2597 2387 2616.5 Q2276 2636 2167.5 2645 Q2059 2654 1958 2654 Q1773 2654 1610 2622 Q1447 2590 1310 2525 Q1173 2460 1065.5 2363 Q958 2266 883 2136 Q808 2006 768.5 1842.5 Q729 1679 729 1483 Q729 1264 777.5 1091.5 Q826 919 911.5 788.5 Q997 658 1113 566.5 Q1229 475 1364.5 417 Q1500 359 1648 333 Q1796 307 1946 307 Q2124 307 2272 321 Q2420 335 2538.5 356 Q2657 377 2747 402.5 Q2837 428 2900 451 L2900 98 Q2828 70 2746.5 47 Q2665 24 2577 6.5 Q2489 -11 2396.5 -22.5 Q2304 -34 2211 -40.5 Q2118 -47 2026 -48 Q1934 -49 1847 -45 L1753 -246 Q1810 -260 1858.5 -285 Q1907 -310 1943 -345.5 Q1979 -381 1999 -425.5 Q2019 -470 2019 -524 Q2019 -618 1981 -686 Q1943 -754 1880 -798.5 Q1817 -843 1736 -864 Q1655 -885 1569 -885 Q1507 -885 1452 -876.5 Q1397 -868 1348 -856 L1348 -643 Z " />
<glyph glyph-name="D" unicode="D" horiz-adv-x="3592" d="M492 0 L492 2966 L1671 2966 Q1931 2966 2152.5 2919 Q2374 2872 2554 2782.5 Q2734 2693 2872 2563.5 Q3010 2434 3103.5 2269.5 Q3197 2105 3245 1907 Q3293 1709 3293 1483 Q3293 1265 3243.5 1070 Q3194 875 3098.5 710.5 Q3003 546 2863 414.5 Q2723 283 2543 190.5 Q2363 98 2144 49 Q1925 0 1671 0 L492 0 Z M1700 344 Q1895 344 2056.5 382.5 Q2218 421 2347.5 492 Q2477 563 2573.5 664.5 Q2670 766 2734.5 892.5 Q2799 1019 2831 1168 Q2863 1317 2863 1483 Q2863 1649 2831 1797.5 Q2799 1946 2734.5 2072.5 Q2670 2199 2573.5 2300.5 Q2477 2402 2347.5 2473 Q2218 2544 2056 2582.5 Q1894 2621 1700 2621 L913 2621 L913 344 L1700 344 Z " />
<glyph glyph-name="Dcaron" unicode="&#x10e;" horiz-adv-x="3592" d="M492 0 L492 2966 L1671 2966 Q1931 2966 2152.5 2919 Q2374 2872 2554 2782.5 Q2734 2693 2872 2563.5 Q3010 2434 3103.5 2269.5 Q3197 2105 3245 1907 Q3293 1709 3293 1483 Q3293 1265 3243.5 1070 Q3194 875 3098.5 710.5 Q3003 546 2863 414.5 Q2723 283 2543 190.5 Q2363 98 2144 49 Q1925 0 1671 0 L492 0 Z M1700 344 Q1895 344 2056.5 382.5 Q2218 421 2347.5 492 Q2477 563 2573.5 664.5 Q2670 766 2734.5 892.5 Q2799 1019 2831 1168 Q2863 1317 2863 1483 Q2863 1649 2831 1797.5 Q2799 1946 2734.5 2072.5 Q2670 2199 2573.5 2300.5 Q2477 2402 2347.5 2473 Q2218 2544 2056 2582.5 Q1894 2621 1700 2621 L913 2621 L913 344 L1700 344 Z M1430 3162 L816 3810 L1184 3810 L1610 3478 L2036 3810 L2405 3810 L1790 3162 L1430 3162 Z " />
<glyph glyph-name="Eth" unicode="&#xd0;" horiz-adv-x="3641" d="M541 0 L541 1331 L254 1331 L254 1638 L541 1638 L541 2966 L1720 2966 Q1980 2966 2201.5 2919 Q2423 2872 2603 2782.5 Q2783 2693 2921 2563.5 Q3059 2434 3152.5 2269.5 Q3246 2105 3294 1907 Q3342 1709 3342 1483 Q3342 1265 3292.5 1070 Q3243 875 3147.5 710.5 Q3052 546 2912 414.5 Q2772 283 2592 190.5 Q2412 98 2193 49 Q1974 0 1720 0 L541 0 Z M1749 344 Q1943 344 2105 382.5 Q2267 421 2396.5 492 Q2526 563 2622.5 664.5 Q2719 766 2783.5 892.5 Q2848 1019 2880 1168 Q2912 1317 2912 1483 Q2912 1649 2880 1797.5 Q2848 1946 2783.5 2072.5 Q2719 2199 2622.5 2300.5 Q2526 2402 2396.5 2473 Q2267 2544 2105 2582.5 Q1943 2621 1749 2621 L963 2621 L963 1638 L1778 1638 L1778 1331 L963 1331 L963 344 L1749 344 Z " />
<glyph glyph-name="Dcroat" unicode="&#x110;" horiz-adv-x="3641" d="M541 0 L541 1331 L254 1331 L254 1638 L541 1638 L541 2966 L1720 2966 Q1980 2966 2201.5 2919 Q2423 2872 2603 2782.5 Q2783 2693 2921 2563.5 Q3059 2434 3152.5 2269.5 Q3246 2105 3294 1907 Q3342 1709 3342 1483 Q3342 1265 3292.5 1070 Q3243 875 3147.5 710.5 Q3052 546 2912 414.5 Q2772 283 2592 190.5 Q2412 98 2193 49 Q1974 0 1720 0 L541 0 Z M1749 344 Q1943 344 2105 382.5 Q2267 421 2396.5 492 Q2526 563 2622.5 664.5 Q2719 766 2783.5 892.5 Q2848 1019 2880 1168 Q2912 1317 2912 1483 Q2912 1649 2880 1797.5 Q2848 1946 2783.5 2072.5 Q2719 2199 2622.5 2300.5 Q2526 2402 2396.5 2473 Q2267 2544 2105 2582.5 Q1943 2621 1749 2621 L963 2621 L963 1638 L1778 1638 L1778 1331 L963 1331 L963 344 L1749 344 Z " />
<glyph glyph-name="E" unicode="E" horiz-adv-x="3162" d="M492 0 L492 2966 L2851 2966 L2851 2621 L913 2621 L913 1696 L2605 1696 L2605 1352 L913 1352 L913 344 L2875 344 L2875 0 L492 0 Z " />
<glyph glyph-name="Egrave" unicode="&#xc8;" horiz-adv-x="3162" d="M492 0 L492 2966 L2851 2966 L2851 2621 L913 2621 L913 1696 L2605 1696 L2605 1352 L913 1352 L913 344 L2875 344 L2875 0 L492 0 Z M1524 3162 L918 3810 L1442 3810 L1893 3162 L1524 3162 Z " />
<glyph glyph-name="Eacute" unicode="&#xc9;" horiz-adv-x="3162" d="M492 0 L492 2966 L2851 2966 L2851 2621 L913 2621 L913 1696 L2605 1696 L2605 1352 L913 1352 L913 344 L2875 344 L2875 0 L492 0 Z M1487 3162 L1937 3810 L2462 3810 L1855 3162 L1487 3162 Z " />
<glyph glyph-name="Ecircumflex" unicode="&#xca;" horiz-adv-x="3162" d="M492 0 L492 2966 L2851 2966 L2851 2621 L913 2621 L913 1696 L2605 1696 L2605 1352 L913 1352 L913 344 L2875 344 L2875 0 L492 0 Z M2113 3162 L1687 3490 L1261 3162 L893 3162 L1507 3810 L1867 3810 L2482 3162 L2113 3162 Z " />
<glyph glyph-name="Ecaron" unicode="&#x11a;" horiz-adv-x="3162" d="M492 0 L492 2966 L2851 2966 L2851 2621 L913 2621 L913 1696 L2605 1696 L2605 1352 L913 1352 L913 344 L2875 344 L2875 0 L492 0 Z M1507 3162 L893 3810 L1261 3810 L1687 3478 L2113 3810 L2482 3810 L1867 3162 L1507 3162 Z " />
<glyph glyph-name="Edieresis" unicode="&#xcb;" horiz-adv-x="3162" d="M492 0 L492 2966 L2851 2966 L2851 2621 L913 2621 L913 1696 L2605 1696 L2605 1352 L913 1352 L913 344 L2875 344 L2875 0 L492 0 Z M934 3281 L934 3695 L1372 3695 L1372 3281 L934 3281 Z M2003 3281 L2003 3695 L2441 3695 L2441 3281 L2003 3281 Z " />
<glyph glyph-name="Emacron" unicode="&#x112;" horiz-adv-x="3162" d="M492 0 L492 2966 L2851 2966 L2851 2621 L913 2621 L913 1696 L2605 1696 L2605 1352 L913 1352 L913 344 L2875 344 L2875 0 L492 0 Z M974 3302 L974 3609 L2400 3609 L2400 3302 L974 3302 Z " />
<glyph glyph-name="Ebreve" unicode="&#x114;" horiz-adv-x="3162" d="M492 0 L492 2966 L2851 2966 L2851 2621 L913 2621 L913 1696 L2605 1696 L2605 1352 L913 1352 L913 344 L2875 344 L2875 0 L492 0 Z M2400 3810 Q2397 3656 2345.5 3531.5 Q2294 3407 2201.5 3318.5 Q2109 3230 1978.5 3182 Q1848 3134 1687 3134 Q1526 3134 1395.5 3182 Q1265 3230 1172.5 3318.5 Q1080 3407 1028.5 3531.5 Q977 3656 974 3810 L1261 3810 Q1269 3722 1299 3654 Q1329 3586 1382 3539.5 Q1435 3493 1511 3469 Q1587 3445 1687 3445 Q1787 3445 1863 3469 Q1939 3493 1992 3539.5 Q2045 3586 2075 3654 Q2105 3722 2113 3810 L2400 3810 Z " />
<glyph glyph-name="Edotaccent" unicode="&#x116;" horiz-adv-x="3162" d="M492 0 L492 2966 L2851 2966 L2851 2621 L913 2621 L913 1696 L2605 1696 L2605 1352 L913 1352 L913 344 L2875 344 L2875 0 L492 0 Z M1462 3257 L1462 3703 L1916 3703 L1916 3257 L1462 3257 Z " />
<glyph glyph-name="Eogonek" unicode="&#x118;" horiz-adv-x="3162" d="M2875 -860 Q2826 -873 2769.5 -879 Q2713 -885 2654 -885 Q2528 -885 2438.5 -853 Q2349 -821 2292.5 -769.5 Q2236 -718 2209.5 -651.5 Q2183 -585 2183 -516 Q2183 -436 2213 -363.5 Q2243 -291 2292.5 -226 Q2342 -161 2404 -104.5 Q2466 -48 2531 0 L492 0 L492 2966 L2851 2966 L2851 2621 L913 2621 L913 1696 L2605 1696 L2605 1352 L913 1352 L913 344 L2875 344 L2875 0 L2777 0 Q2718 -57 2666 -115 Q2614 -173 2575 -230.5 Q2536 -288 2513 -344.5 Q2490 -401 2490 -455 Q2490 -556 2552 -605.5 Q2614 -655 2728 -655 Q2751 -655 2771 -653.5 Q2791 -652 2809 -650 Q2827 -648 2843.5 -645 Q2860 -642 2875 -639 L2875 -860 Z " />
<glyph glyph-name="F" unicode="F" horiz-adv-x="2925" d="M492 0 L492 2966 L2712 2966 L2712 2621 L913 2621 L913 1606 L2454 1606 L2454 1262 L913 1262 L913 0 L492 0 Z " />
<glyph glyph-name="G" unicode="G" horiz-adv-x="3662" d="M2892 1430 L3310 1430 L3310 139 Q3227 109 3134.5 83.5 Q3042 58 2940 37 Q2838 16 2727 0 Q2616 -16 2496.5 -27 Q2377 -38 2248 -43.5 Q2119 -49 1982 -49 Q1592 -49 1280.5 51.5 Q969 152 750.5 347 Q532 542 415.5 827.5 Q299 1113 299 1483 Q299 1721 352 1927.5 Q405 2134 506 2304 Q607 2474 754.5 2606.5 Q902 2739 1091.5 2830 Q1281 2921 1510 2968 Q1739 3015 2003 3015 Q2091 3015 2186 3011 Q2281 3007 2377.5 2998.5 Q2474 2990 2569 2977 Q2664 2964 2752.5 2946 Q2841 2928 2920 2905.5 Q2999 2883 3064 2855 L3064 2490 Q2953 2535 2824.5 2566 Q2696 2597 2564 2616.5 Q2432 2636 2303.5 2645 Q2175 2654 2064 2654 Q1741 2654 1492.5 2581.5 Q1244 2509 1074 2363 Q904 2217 816.5 1997.5 Q729 1778 729 1483 Q729 1270 772.5 1100 Q816 930 897 799.5 Q978 669 1094.5 575.5 Q1211 482 1357 422.5 Q1503 363 1676 335 Q1849 307 2044 307 Q2199 307 2332 318.5 Q2465 330 2572.5 347 Q2680 364 2760.5 383.5 Q2841 403 2892 418 L2892 1430 Z " />
<glyph glyph-name="Gcircumflex" unicode="&#x11c;" horiz-adv-x="3662" d="M2892 1430 L3310 1430 L3310 139 Q3227 109 3134.5 83.5 Q3042 58 2940 37 Q2838 16 2727 0 Q2616 -16 2496.5 -27 Q2377 -38 2248 -43.5 Q2119 -49 1982 -49 Q1592 -49 1280.5 51.5 Q969 152 750.5 347 Q532 542 415.5 827.5 Q299 1113 299 1483 Q299 1721 352 1927.5 Q405 2134 506 2304 Q607 2474 754.5 2606.5 Q902 2739 1091.5 2830 Q1281 2921 1510 2968 Q1739 3015 2003 3015 Q2091 3015 2186 3011 Q2281 3007 2377.5 2998.5 Q2474 2990 2569 2977 Q2664 2964 2752.5 2946 Q2841 2928 2920 2905.5 Q2999 2883 3064 2855 L3064 2490 Q2953 2535 2824.5 2566 Q2696 2597 2564 2616.5 Q2432 2636 2303.5 2645 Q2175 2654 2064 2654 Q1741 2654 1492.5 2581.5 Q1244 2509 1074 2363 Q904 2217 816.5 1997.5 Q729 1778 729 1483 Q729 1270 772.5 1100 Q816 930 897 799.5 Q978 669 1094.5 575.5 Q1211 482 1357 422.5 Q1503 363 1676 335 Q1849 307 2044 307 Q2199 307 2332 318.5 Q2465 330 2572.5 347 Q2680 364 2760.5 383.5 Q2841 403 2892 418 L2892 1430 Z M2392 3162 L1966 3490 L1540 3162 L1172 3162 L1786 3810 L2146 3810 L2761 3162 L2392 3162 Z " />
<glyph glyph-name="Gbreve" unicode="&#x11e;" horiz-adv-x="3662" d="M2892 1430 L3310 1430 L3310 139 Q3227 109 3134.5 83.5 Q3042 58 2940 37 Q2838 16 2727 0 Q2616 -16 2496.5 -27 Q2377 -38 2248 -43.5 Q2119 -49 1982 -49 Q1592 -49 1280.5 51.5 Q969 152 750.5 347 Q532 542 415.5 827.5 Q299 1113 299 1483 Q299 1721 352 1927.5 Q405 2134 506 2304 Q607 2474 754.5 2606.5 Q902 2739 1091.5 2830 Q1281 2921 1510 2968 Q1739 3015 2003 3015 Q2091 3015 2186 3011 Q2281 3007 2377.5 2998.5 Q2474 2990 2569 2977 Q2664 2964 2752.5 2946 Q2841 2928 2920 2905.5 Q2999 2883 3064 2855 L3064 2490 Q2953 2535 2824.5 2566 Q2696 2597 2564 2616.5 Q2432 2636 2303.5 2645 Q2175 2654 2064 2654 Q1741 2654 1492.5 2581.5 Q1244 2509 1074 2363 Q904 2217 816.5 1997.5 Q729 1778 729 1483 Q729 1270 772.5 1100 Q816 930 897 799.5 Q978 669 1094.5 575.5 Q1211 482 1357 422.5 Q1503 363 1676 335 Q1849 307 2044 307 Q2199 307 2332 318.5 Q2465 330 2572.5 347 Q2680 364 2760.5 383.5 Q2841 403 2892 418 L2892 1430 Z M2679 3810 Q2676 3656 2624.5 3531.5 Q2573 3407 2480.5 3318.5 Q2388 3230 2257.5 3182 Q2127 3134 1966 3134 Q1805 3134 1674.5 3182 Q1544 3230 1451.5 3318.5 Q1359 3407 1307.5 3531.5 Q1256 3656 1253 3810 L1540 3810 Q1548 3722 1578 3654 Q1608 3586 1661 3539.5 Q1714 3493 1790 3469 Q1866 3445 1966 3445 Q2066 3445 2142 3469 Q2218 3493 2271 3539.5 Q2324 3586 2354 3654 Q2384 3722 2392 3810 L2679 3810 Z " />
<glyph glyph-name="Gdotaccent" unicode="&#x120;" horiz-adv-x="3662" d="M2892 1430 L3310 1430 L3310 139 Q3227 109 3134.5 83.5 Q3042 58 2940 37 Q2838 16 2727 0 Q2616 -16 2496.5 -27 Q2377 -38 2248 -43.5 Q2119 -49 1982 -49 Q1592 -49 1280.5 51.5 Q969 152 750.5 347 Q532 542 415.5 827.5 Q299 1113 299 1483 Q299 1721 352 1927.5 Q405 2134 506 2304 Q607 2474 754.5 2606.5 Q902 2739 1091.5 2830 Q1281 2921 1510 2968 Q1739 3015 2003 3015 Q2091 3015 2186 3011 Q2281 3007 2377.5 2998.5 Q2474 2990 2569 2977 Q2664 2964 2752.5 2946 Q2841 2928 2920 2905.5 Q2999 2883 3064 2855 L3064 2490 Q2953 2535 2824.5 2566 Q2696 2597 2564 2616.5 Q2432 2636 2303.5 2645 Q2175 2654 2064 2654 Q1741 2654 1492.5 2581.5 Q1244 2509 1074 2363 Q904 2217 816.5 1997.5 Q729 1778 729 1483 Q729 1270 772.5 1100 Q816 930 897 799.5 Q978 669 1094.5 575.5 Q1211 482 1357 422.5 Q1503 363 1676 335 Q1849 307 2044 307 Q2199 307 2332 318.5 Q2465 330 2572.5 347 Q2680 364 2760.5 383.5 Q2841 403 2892 418 L2892 1430 Z M1741 3257 L1741 3703 L2195 3703 L2195 3257 L1741 3257 Z " />
<glyph glyph-name="Gcommaaccent" unicode="&#x122;" horiz-adv-x="3662" d="M2892 1430 L3310 1430 L3310 139 Q3227 109 3134.5 83.5 Q3042 58 2940 37 Q2838 16 2727 0 Q2616 -16 2496.5 -27 Q2377 -38 2248 -43.5 Q2119 -49 1982 -49 Q1592 -49 1280.5 51.5 Q969 152 750.5 347 Q532 542 415.5 827.5 Q299 1113 299 1483 Q299 1721 352 1927.5 Q405 2134 506 2304 Q607 2474 754.5 2606.5 Q902 2739 1091.5 2830 Q1281 2921 1510 2968 Q1739 3015 2003 3015 Q2091 3015 2186 3011 Q2281 3007 2377.5 2998.5 Q2474 2990 2569 2977 Q2664 2964 2752.5 2946 Q2841 2928 2920 2905.5 Q2999 2883 3064 2855 L3064 2490 Q2953 2535 2824.5 2566 Q2696 2597 2564 2616.5 Q2432 2636 2303.5 2645 Q2175 2654 2064 2654 Q1741 2654 1492.5 2581.5 Q1244 2509 1074 2363 Q904 2217 816.5 1997.5 Q729 1778 729 1483 Q729 1270 772.5 1100 Q816 930 897 799.5 Q978 669 1094.5 575.5 Q1211 482 1357 422.5 Q1503 363 1676 335 Q1849 307 2044 307 Q2199 307 2332 318.5 Q2465 330 2572.5 347 Q2680 364 2760.5 383.5 Q2841 403 2892 418 L2892 1430 Z M1728 -983 L1572 -827 L1832 -551 L1740 -172 L1990 -172 Q2041 -172 2085 -187 Q2129 -202 2161.5 -230.5 Q2194 -259 2213 -300 Q2232 -341 2232 -393 Q2232 -450 2211 -506 Q2190 -562 2149 -618 Q2108 -674 2048.5 -729.5 Q1989 -785 1912 -844 L1728 -983 Z " />
<glyph glyph-name="H" unicode="H" horiz-adv-x="3736" d="M2822 0 L2822 1315 L913 1315 L913 0 L492 0 L492 2966 L913 2966 L913 1659 L2822 1659 L2822 2966 L3244 2966 L3244 0 L2822 0 Z " />
<glyph glyph-name="Hcircumflex" unicode="&#x124;" horiz-adv-x="3736" d="M2822 0 L2822 1315 L913 1315 L913 0 L492 0 L492 2966 L913 2966 L913 1659 L2822 1659 L2822 2966 L3244 2966 L3244 0 L2822 0 Z M2294 3162 L1868 3490 L1442 3162 L1074 3162 L1688 3810 L2048 3810 L2663 3162 L2294 3162 Z " />
<glyph glyph-name="Hbar" unicode="&#x126;" horiz-adv-x="3736" d="M2822 0 L2822 1315 L913 1315 L913 0 L492 0 L492 2200 L172 2200 L172 2507 L492 2507 L492 2966 L913 2966 L913 2507 L2822 2507 L2822 2966 L3244 2966 L3244 2507 L3564 2507 L3564 2200 L3244 2200 L3244 0 L2822 0 Z M2822 2200 L913 2200 L913 1659 L2822 1659 L2822 2200 Z " />
<glyph glyph-name="I" unicode="I" horiz-adv-x="2183" d="M328 0 L328 344 L881 344 L881 2621 L328 2621 L328 2966 L1855 2966 L1855 2621 L1303 2621 L1303 344 L1855 344 L1855 0 L328 0 Z " />
<glyph glyph-name="Igrave" unicode="&#xcc;" horiz-adv-x="2183" d="M328 0 L328 344 L881 344 L881 2621 L328 2621 L328 2966 L1855 2966 L1855 2621 L1303 2621 L1303 344 L1855 344 L1855 0 L328 0 Z M923 3162 L317 3810 L841 3810 L1292 3162 L923 3162 Z " />
<glyph glyph-name="Iacute" unicode="&#xcd;" horiz-adv-x="2183" d="M328 0 L328 344 L881 344 L881 2621 L328 2621 L328 2966 L1855 2966 L1855 2621 L1303 2621 L1303 344 L1855 344 L1855 0 L328 0 Z M885 3162 L1335 3810 L1860 3810 L1253 3162 L885 3162 Z " />
<glyph glyph-name="Icircumflex" unicode="&#xce;" horiz-adv-x="2183" d="M328 0 L328 344 L881 344 L881 2621 L328 2621 L328 2966 L1855 2966 L1855 2621 L1303 2621 L1303 344 L1855 344 L1855 0 L328 0 Z M1511 3162 L1085 3490 L659 3162 L291 3162 L905 3810 L1265 3810 L1880 3162 L1511 3162 Z " />
<glyph glyph-name="Itilde" unicode="&#x128;" horiz-adv-x="2183" d="M328 0 L328 344 L881 344 L881 2621 L328 2621 L328 2966 L1855 2966 L1855 2621 L1303 2621 L1303 344 L1855 344 L1855 0 L328 0 Z M1863 3744 Q1863 3641 1837 3544.5 Q1811 3448 1755.5 3373 Q1700 3298 1613 3253 Q1526 3208 1405 3208 Q1332 3208 1269.5 3226 Q1207 3244 1152 3270.5 Q1097 3297 1048.5 3328.5 Q1000 3360 955 3386.5 Q910 3413 867.5 3431 Q825 3449 782 3449 Q737 3449 704 3434 Q671 3419 648 3390.5 Q625 3362 611.5 3321 Q598 3280 594 3228 L311 3228 Q311 3331 337 3427.5 Q363 3524 419 3599 Q475 3674 561.5 3719.5 Q648 3765 770 3765 Q843 3765 905.5 3747 Q968 3729 1022.5 3702 Q1077 3675 1125.5 3644 Q1174 3613 1219 3586 Q1264 3559 1306.5 3541 Q1349 3523 1392 3523 Q1437 3523 1470 3538 Q1503 3553 1526 3581.5 Q1549 3610 1562.5 3651 Q1576 3692 1581 3744 L1863 3744 Z " />
<glyph glyph-name="Idieresis" unicode="&#xcf;" horiz-adv-x="2183" d="M328 0 L328 344 L881 344 L881 2621 L328 2621 L328 2966 L1855 2966 L1855 2621 L1303 2621 L1303 344 L1855 344 L1855 0 L328 0 Z M332 3281 L332 3695 L770 3695 L770 3281 L332 3281 Z M1401 3281 L1401 3695 L1839 3695 L1839 3281 L1401 3281 Z " />
<glyph glyph-name="Imacron" unicode="&#x12a;" horiz-adv-x="2183" d="M328 0 L328 344 L881 344 L881 2621 L328 2621 L328 2966 L1855 2966 L1855 2621 L1303 2621 L1303 344 L1855 344 L1855 0 L328 0 Z M372 3302 L372 3609 L1798 3609 L1798 3302 L372 3302 Z " />
<glyph glyph-name="Ibreve" unicode="&#x12c;" horiz-adv-x="2183" d="M328 0 L328 344 L881 344 L881 2621 L328 2621 L328 2966 L1855 2966 L1855 2621 L1303 2621 L1303 344 L1855 344 L1855 0 L328 0 Z M1798 3810 Q1795 3656 1743.5 3531.5 Q1692 3407 1599.5 3318.5 Q1507 3230 1376.5 3182 Q1246 3134 1085 3134 Q924 3134 793.5 3182 Q663 3230 570.5 3318.5 Q478 3407 426.5 3531.5 Q375 3656 372 3810 L659 3810 Q667 3722 697 3654 Q727 3586 780 3539.5 Q833 3493 909 3469 Q985 3445 1085 3445 Q1185 3445 1261 3469 Q1337 3493 1390 3539.5 Q1443 3586 1473 3654 Q1503 3722 1511 3810 L1798 3810 Z " />
<glyph glyph-name="Idotaccent" unicode="&#x130;" horiz-adv-x="2183" d="M328 0 L328 344 L881 344 L881 2621 L328 2621 L328 2966 L1855 2966 L1855 2621 L1303 2621 L1303 344 L1855 344 L1855 0 L328 0 Z M860 3257 L860 3703 L1314 3703 L1314 3257 L860 3257 Z " />
<glyph glyph-name="Iogonek" unicode="&#x12e;" horiz-adv-x="2183" d="M1401 -860 Q1351 -873 1294.5 -879 Q1238 -885 1180 -885 Q1054 -885 964.5 -853 Q875 -821 818.5 -769.5 Q762 -718 735.5 -651.5 Q709 -585 709 -516 Q709 -436 739 -363.5 Q769 -291 818.5 -226 Q868 -161 930 -104.5 Q992 -48 1057 0 L328 0 L328 344 L881 344 L881 2621 L328 2621 L328 2966 L1855 2966 L1855 2621 L1303 2621 L1303 344 L1855 344 L1855 0 L1303 0 Q1244 -57 1192 -115 Q1140 -173 1101 -230.5 Q1062 -288 1039 -344.5 Q1016 -401 1016 -455 Q1016 -556 1078 -605.5 Q1140 -655 1253 -655 Q1276 -655 1296.5 -653.5 Q1317 -652 1335 -650 Q1353 -648 1369.5 -645 Q1386 -642 1401 -639 L1401 -860 Z " />
<glyph glyph-name="IJ" unicode="&#x132;" horiz-adv-x="3920" d="M328 0 L328 344 L881 344 L881 2621 L328 2621 L328 2966 L1855 2966 L1855 2621 L1303 2621 L1303 344 L1855 344 L1855 0 L328 0 Z M2158 -188 Q2181 -196 2219.5 -202.5 Q2258 -209 2301 -214 Q2344 -219 2387 -222 Q2430 -225 2462 -225 Q2612 -225 2716 -186.5 Q2820 -148 2884.5 -63.5 Q2949 21 2977.5 154.5 Q3006 288 3006 479 L3006 2621 L2371 2621 L2371 2966 L3428 2966 L3428 438 Q3428 197 3377.5 7.5 Q3327 -182 3215.5 -313 Q3104 -444 2925 -513 Q2746 -582 2490 -582 Q2450 -582 2403 -579.5 Q2356 -577 2310.5 -572.5 Q2265 -568 2224.5 -561 Q2184 -554 2158 -545 L2158 -188 Z " />
<glyph glyph-name="J" unicode="J" horiz-adv-x="1737" d="M-25 -188 Q-2 -196 36.5 -202.5 Q75 -209 118 -214 Q161 -219 204 -222 Q247 -225 279 -225 Q429 -225 533 -186.5 Q637 -148 701.5 -63.5 Q766 21 794.5 154.5 Q823 288 823 479 L823 2621 L188 2621 L188 2966 L1245 2966 L1245 438 Q1245 197 1194.5 7.5 Q1144 -182 1032.5 -313 Q921 -444 742 -513 Q563 -582 307 -582 Q267 -582 220 -579.5 Q173 -577 127.5 -572.5 Q82 -568 41.5 -561 Q1 -554 -25 -545 L-25 -188 Z " />
<glyph glyph-name="Jcircumflex" unicode="&#x134;" horiz-adv-x="1737" d="M-25 -188 Q-2 -196 36.5 -202.5 Q75 -209 118 -214 Q161 -219 204 -222 Q247 -225 279 -225 Q429 -225 533 -186.5 Q637 -148 701.5 -63.5 Q766 21 794.5 154.5 Q823 288 823 479 L823 2621 L188 2621 L188 2966 L1245 2966 L1245 438 Q1245 197 1194.5 7.5 Q1144 -182 1032.5 -313 Q921 -444 742 -513 Q563 -582 307 -582 Q267 -582 220 -579.5 Q173 -577 127.5 -572.5 Q82 -568 41.5 -561 Q1 -554 -25 -545 L-25 -188 Z M1458 3162 L1032 3490 L606 3162 L238 3162 L852 3810 L1212 3810 L1827 3162 L1458 3162 Z " />
<glyph glyph-name="K" unicode="K" horiz-adv-x="3461" d="M2789 0 L913 1372 L913 0 L492 0 L492 2966 L913 2966 L913 1622 L2765 2966 L3387 2966 L1705 1765 Q1618 1703 1530 1640 Q1442 1577 1355 1516 Q1398 1485 1440.5 1454.5 Q1483 1424 1525.5 1393 Q1568 1362 1610.5 1331.5 Q1653 1301 1696 1270 L3449 0 L2789 0 Z " />
<glyph glyph-name="Kcommaaccent" unicode="&#x136;" horiz-adv-x="3461" d="M2789 0 L913 1372 L913 0 L492 0 L492 2966 L913 2966 L913 1622 L2765 2966 L3387 2966 L1705 1765 Q1618 1703 1530 1640 Q1442 1577 1355 1516 Q1398 1485 1440.5 1454.5 Q1483 1424 1525.5 1393 Q1568 1362 1610.5 1331.5 Q1653 1301 1696 1270 L3449 0 L2789 0 Z M1528 -983 L1372 -827 L1632 -551 L1540 -172 L1790 -172 Q1841 -172 1885 -187 Q1929 -202 1961.5 -230.5 Q1994 -259 2013 -300 Q2032 -341 2032 -393 Q2032 -450 2011 -506 Q1990 -562 1949 -618 Q1908 -674 1848.5 -729.5 Q1789 -785 1712 -844 L1528 -983 Z " />
<glyph glyph-name="L" unicode="L" horiz-adv-x="2761" d="M492 0 L492 2966 L913 2966 L913 344 L2597 344 L2597 0 L492 0 Z " />
<glyph glyph-name="Lacute" unicode="&#x139;" horiz-adv-x="2761" d="M492 0 L492 2966 L913 2966 L913 344 L2597 344 L2597 0 L492 0 Z M509 3162 L959 3810 L1484 3810 L877 3162 L509 3162 Z " />
<glyph glyph-name="Lcaron" unicode="&#x13d;" horiz-adv-x="2761" d="M492 0 L492 2966 L913 2966 L913 344 L2597 344 L2597 0 L492 0 Z M1319 2114 L1442 2552 L1340 2966 L1589 2966 Q1640 2966 1684 2951 Q1728 2936 1761 2907.5 Q1794 2879 1812.5 2837.5 Q1831 2796 1831 2744 Q1831 2686 1818.5 2632.5 Q1806 2579 1784.5 2525.5 Q1763 2472 1733 2415 Q1703 2358 1667 2294 L1569 2114 L1319 2114 Z " />
<glyph glyph-name="Lcommaaccent" unicode="&#x13b;" horiz-adv-x="2761" d="M492 0 L492 2966 L913 2966 L913 344 L2597 344 L2597 0 L492 0 Z M1307 -983 L1151 -827 L1411 -551 L1319 -172 L1569 -172 Q1620 -172 1664 -187 Q1708 -202 1740.5 -230.5 Q1773 -259 1792 -300 Q1811 -341 1811 -393 Q1811 -450 1790 -506 Q1769 -562 1728 -618 Q1687 -674 1627.5 -729.5 Q1568 -785 1491 -844 L1307 -983 Z " />
<glyph glyph-name="Lslash" unicode="&#x141;" horiz-adv-x="2802" d="M532 0 L532 1090 L213 905 L213 1249 L532 1434 L532 2966 L954 2966 L954 1679 L1761 2150 L1761 1802 L954 1331 L954 344 L2638 344 L2638 0 L532 0 Z " />
<glyph glyph-name="Ldot" unicode="&#x13f;" horiz-adv-x="2761" d="M492 0 L492 2966 L913 2966 L913 344 L2597 344 L2597 0 L492 0 Z M1479 1360 L1479 1806 L1933 1806 L1933 1360 L1479 1360 Z " />
<glyph glyph-name="M" unicode="M" horiz-adv-x="4379" d="M3478 0 L3478 2007 Q3478 2109 3478 2207.5 Q3478 2306 3478 2408 Q3419 2328 3361 2248.5 Q3303 2169 3244 2089 L2306 819 L2073 819 L1135 2089 Q1106 2129 1076.5 2169 Q1047 2209 1018 2248.5 Q989 2288 959.5 2328 Q930 2368 901 2408 Q901 2306 901 2207.5 Q901 2109 901 2007 L901 0 L492 0 L492 2966 L950 2966 L1991 1548 Q2043 1477 2095 1407 Q2147 1337 2200 1266 Q2252 1337 2304 1409 Q2356 1481 2408 1552 L3449 2966 L3887 2966 L3887 0 L3478 0 Z " />
<glyph glyph-name="N" unicode="N" horiz-adv-x="3932" d="M2982 0 L1249 2032 Q1163 2134 1077.5 2234.5 Q992 2335 905 2437 Q905 2375 905 2314.5 Q905 2254 905 2193.5 Q905 2133 905 2072 Q905 2011 905 1950 L905 0 L492 0 L492 2966 L950 2966 L2679 930 Q2722 879 2765.5 828.5 Q2809 778 2852.5 727 Q2896 676 2940 625.5 Q2984 575 3027 524 Q3027 585 3027 646 Q3027 707 3027 768 Q3027 829 3027 889.5 Q3027 950 3027 1012 L3027 2966 L3441 2966 L3441 0 L2982 0 Z " />
<glyph glyph-name="Nacute" unicode="&#x143;" horiz-adv-x="3932" d="M2982 0 L1249 2032 Q1163 2134 1077.5 2234.5 Q992 2335 905 2437 Q905 2375 905 2314.5 Q905 2254 905 2193.5 Q905 2133 905 2072 Q905 2011 905 1950 L905 0 L492 0 L492 2966 L950 2966 L2679 930 Q2722 879 2765.5 828.5 Q2809 778 2852.5 727 Q2896 676 2940 625.5 Q2984 575 3027 524 Q3027 585 3027 646 Q3027 707 3027 768 Q3027 829 3027 889.5 Q3027 950 3027 1012 L3027 2966 L3441 2966 L3441 0 L2982 0 Z M1766 3162 L2216 3810 L2741 3810 L2134 3162 L1766 3162 Z " />
<glyph glyph-name="Ncaron" unicode="&#x147;" horiz-adv-x="3932" d="M2982 0 L1249 2032 Q1163 2134 1077.5 2234.5 Q992 2335 905 2437 Q905 2375 905 2314.5 Q905 2254 905 2193.5 Q905 2133 905 2072 Q905 2011 905 1950 L905 0 L492 0 L492 2966 L950 2966 L2679 930 Q2722 879 2765.5 828.5 Q2809 778 2852.5 727 Q2896 676 2940 625.5 Q2984 575 3027 524 Q3027 585 3027 646 Q3027 707 3027 768 Q3027 829 3027 889.5 Q3027 950 3027 1012 L3027 2966 L3441 2966 L3441 0 L2982 0 Z M1786 3162 L1172 3810 L1540 3810 L1966 3478 L2392 3810 L2761 3810 L2146 3162 L1786 3162 Z " />
<glyph glyph-name="Ntilde" unicode="&#xd1;" horiz-adv-x="3932" d="M2982 0 L1249 2032 Q1163 2134 1077.5 2234.5 Q992 2335 905 2437 Q905 2375 905 2314.5 Q905 2254 905 2193.5 Q905 2133 905 2072 Q905 2011 905 1950 L905 0 L492 0 L492 2966 L950 2966 L2679 930 Q2722 879 2765.5 828.5 Q2809 778 2852.5 727 Q2896 676 2940 625.5 Q2984 575 3027 524 Q3027 585 3027 646 Q3027 707 3027 768 Q3027 829 3027 889.5 Q3027 950 3027 1012 L3027 2966 L3441 2966 L3441 0 L2982 0 Z M2744 3744 Q2744 3641 2718 3544.5 Q2692 3448 2636.5 3373 Q2581 3298 2494 3253 Q2407 3208 2286 3208 Q2213 3208 2150.5 3226 Q2088 3244 2033 3270.5 Q1978 3297 1929.5 3328.5 Q1881 3360 1836 3386.5 Q1791 3413 1748.5 3431 Q1706 3449 1663 3449 Q1618 3449 1585 3434 Q1552 3419 1529 3390.5 Q1506 3362 1492.5 3321 Q1479 3280 1475 3228 L1192 3228 Q1192 3331 1218 3427.5 Q1244 3524 1300 3599 Q1356 3674 1442.5 3719.5 Q1529 3765 1651 3765 Q1724 3765 1786.5 3747 Q1849 3729 1903.5 3702 Q1958 3675 2006.5 3644 Q2055 3613 2100 3586 Q2145 3559 2187.5 3541 Q2230 3523 2273 3523 Q2318 3523 2351 3538 Q2384 3553 2407 3581.5 Q2430 3610 2443.5 3651 Q2457 3692 2462 3744 L2744 3744 Z " />
<glyph glyph-name="Ncommaaccent" unicode="&#x145;" horiz-adv-x="3932" d="M2982 0 L1249 2032 Q1163 2134 1077.5 2234.5 Q992 2335 905 2437 Q905 2375 905 2314.5 Q905 2254 905 2193.5 Q905 2133 905 2072 Q905 2011 905 1950 L905 0 L492 0 L492 2966 L950 2966 L2679 930 Q2722 879 2765.5 828.5 Q2809 778 2852.5 727 Q2896 676 2940 625.5 Q2984 575 3027 524 Q3027 585 3027 646 Q3027 707 3027 768 Q3027 829 3027 889.5 Q3027 950 3027 1012 L3027 2966 L3441 2966 L3441 0 L2982 0 Z M1728 -983 L1572 -827 L1832 -551 L1740 -172 L1990 -172 Q2041 -172 2085 -187 Q2129 -202 2161.5 -230.5 Q2194 -259 2213 -300 Q2232 -341 2232 -393 Q2232 -450 2211 -506 Q2190 -562 2149 -618 Q2108 -674 2048.5 -729.5 Q1989 -785 1912 -844 L1728 -983 Z " />
<glyph glyph-name="O" unicode="O" horiz-adv-x="3760" d="M1880 -49 Q1620 -49 1402 1.5 Q1184 52 1008 147 Q832 242 699.5 377.5 Q567 513 478 683.5 Q389 854 344 1055.5 Q299 1257 299 1483 Q299 1701 345.5 1899.5 Q392 2098 483 2268 Q574 2438 708.5 2576 Q843 2714 1018.5 2811.5 Q1194 2909 1410 2962 Q1626 3015 1880 3015 Q2140 3015 2358 2964.5 Q2576 2914 2752 2819 Q2928 2724 3060.5 2588.5 Q3193 2453 3282 2282.5 Q3371 2112 3416 1910.5 Q3461 1709 3461 1483 Q3461 1265 3414.5 1066.5 Q3368 868 3277 698 Q3186 528 3051.5 390 Q2917 252 2741.5 154.5 Q2566 57 2350 4 Q2134 -49 1880 -49 Z M1880 287 Q2075 287 2235.5 329.5 Q2396 372 2524 449.5 Q2652 527 2747 636 Q2842 745 2905.5 878 Q2969 1011 3000 1164 Q3031 1317 3031 1483 Q3031 1649 3000 1802 Q2969 1955 2905.5 2088 Q2842 2221 2747 2330 Q2652 2439 2524 2516.5 Q2396 2594 2235 2636.5 Q2074 2679 1880 2679 Q1686 2679 1525 2636.5 Q1364 2594 1236 2516.5 Q1108 2439 1013 2330 Q918 2221 854.5 2088 Q791 1955 760 1802 Q729 1649 729 1483 Q729 1317 760 1164 Q791 1011 854.5 878 Q918 745 1013 636 Q1108 527 1236 449.5 Q1364 372 1524.5 329.5 Q1685 287 1880 287 Z " />
<glyph glyph-name="Ograve" unicode="&#xd2;" horiz-adv-x="3760" d="M1880 -49 Q1620 -49 1402 1.5 Q1184 52 1008 147 Q832 242 699.5 377.5 Q567 513 478 683.5 Q389 854 344 1055.5 Q299 1257 299 1483 Q299 1701 345.5 1899.5 Q392 2098 483 2268 Q574 2438 708.5 2576 Q843 2714 1018.5 2811.5 Q1194 2909 1410 2962 Q1626 3015 1880 3015 Q2140 3015 2358 2964.5 Q2576 2914 2752 2819 Q2928 2724 3060.5 2588.5 Q3193 2453 3282 2282.5 Q3371 2112 3416 1910.5 Q3461 1709 3461 1483 Q3461 1265 3414.5 1066.5 Q3368 868 3277 698 Q3186 528 3051.5 390 Q2917 252 2741.5 154.5 Q2566 57 2350 4 Q2134 -49 1880 -49 Z M1880 287 Q2075 287 2235.5 329.5 Q2396 372 2524 449.5 Q2652 527 2747 636 Q2842 745 2905.5 878 Q2969 1011 3000 1164 Q3031 1317 3031 1483 Q3031 1649 3000 1802 Q2969 1955 2905.5 2088 Q2842 2221 2747 2330 Q2652 2439 2524 2516.5 Q2396 2594 2235 2636.5 Q2074 2679 1880 2679 Q1686 2679 1525 2636.5 Q1364 2594 1236 2516.5 Q1108 2439 1013 2330 Q918 2221 854.5 2088 Q791 1955 760 1802 Q729 1649 729 1483 Q729 1317 760 1164 Q791 1011 854.5 878 Q918 745 1013 636 Q1108 527 1236 449.5 Q1364 372 1524.5 329.5 Q1685 287 1880 287 Z M1716 3162 L1110 3810 L1634 3810 L2085 3162 L1716 3162 Z " />
<glyph glyph-name="Oacute" unicode="&#xd3;" horiz-adv-x="3760" d="M1880 -49 Q1620 -49 1402 1.5 Q1184 52 1008 147 Q832 242 699.5 377.5 Q567 513 478 683.5 Q389 854 344 1055.5 Q299 1257 299 1483 Q299 1701 345.5 1899.5 Q392 2098 483 2268 Q574 2438 708.5 2576 Q843 2714 1018.5 2811.5 Q1194 2909 1410 2962 Q1626 3015 1880 3015 Q2140 3015 2358 2964.5 Q2576 2914 2752 2819 Q2928 2724 3060.5 2588.5 Q3193 2453 3282 2282.5 Q3371 2112 3416 1910.5 Q3461 1709 3461 1483 Q3461 1265 3414.5 1066.5 Q3368 868 3277 698 Q3186 528 3051.5 390 Q2917 252 2741.5 154.5 Q2566 57 2350 4 Q2134 -49 1880 -49 Z M1880 287 Q2075 287 2235.5 329.5 Q2396 372 2524 449.5 Q2652 527 2747 636 Q2842 745 2905.5 878 Q2969 1011 3000 1164 Q3031 1317 3031 1483 Q3031 1649 3000 1802 Q2969 1955 2905.5 2088 Q2842 2221 2747 2330 Q2652 2439 2524 2516.5 Q2396 2594 2235 2636.5 Q2074 2679 1880 2679 Q1686 2679 1525 2636.5 Q1364 2594 1236 2516.5 Q1108 2439 1013 2330 Q918 2221 854.5 2088 Q791 1955 760 1802 Q729 1649 729 1483 Q729 1317 760 1164 Q791 1011 854.5 878 Q918 745 1013 636 Q1108 527 1236 449.5 Q1364 372 1524.5 329.5 Q1685 287 1880 287 Z M1680 3162 L2130 3810 L2655 3810 L2048 3162 L1680 3162 Z " />
<glyph glyph-name="Ocircumflex" unicode="&#xd4;" horiz-adv-x="3760" d="M1880 -49 Q1620 -49 1402 1.5 Q1184 52 1008 147 Q832 242 699.5 377.5 Q567 513 478 683.5 Q389 854 344 1055.5 Q299 1257 299 1483 Q299 1701 345.5 1899.5 Q392 2098 483 2268 Q574 2438 708.5 2576 Q843 2714 1018.5 2811.5 Q1194 2909 1410 2962 Q1626 3015 1880 3015 Q2140 3015 2358 2964.5 Q2576 2914 2752 2819 Q2928 2724 3060.5 2588.5 Q3193 2453 3282 2282.5 Q3371 2112 3416 1910.5 Q3461 1709 3461 1483 Q3461 1265 3414.5 1066.5 Q3368 868 3277 698 Q3186 528 3051.5 390 Q2917 252 2741.5 154.5 Q2566 57 2350 4 Q2134 -49 1880 -49 Z M1880 287 Q2075 287 2235.5 329.5 Q2396 372 2524 449.5 Q2652 527 2747 636 Q2842 745 2905.5 878 Q2969 1011 3000 1164 Q3031 1317 3031 1483 Q3031 1649 3000 1802 Q2969 1955 2905.5 2088 Q2842 2221 2747 2330 Q2652 2439 2524 2516.5 Q2396 2594 2235 2636.5 Q2074 2679 1880 2679 Q1686 2679 1525 2636.5 Q1364 2594 1236 2516.5 Q1108 2439 1013 2330 Q918 2221 854.5 2088 Q791 1955 760 1802 Q729 1649 729 1483 Q729 1317 760 1164 Q791 1011 854.5 878 Q918 745 1013 636 Q1108 527 1236 449.5 Q1364 372 1524.5 329.5 Q1685 287 1880 287 Z M2306 3162 L1880 3490 L1454 3162 L1086 3162 L1700 3810 L2060 3810 L2675 3162 L2306 3162 Z " />
<glyph glyph-name="Otilde" unicode="&#xd5;" horiz-adv-x="3760" d="M1880 -49 Q1620 -49 1402 1.5 Q1184 52 1008 147 Q832 242 699.5 377.5 Q567 513 478 683.5 Q389 854 344 1055.5 Q299 1257 299 1483 Q299 1701 345.5 1899.5 Q392 2098 483 2268 Q574 2438 708.5 2576 Q843 2714 1018.5 2811.5 Q1194 2909 1410 2962 Q1626 3015 1880 3015 Q2140 3015 2358 2964.5 Q2576 2914 2752 2819 Q2928 2724 3060.5 2588.5 Q3193 2453 3282 2282.5 Q3371 2112 3416 1910.5 Q3461 1709 3461 1483 Q3461 1265 3414.5 1066.5 Q3368 868 3277 698 Q3186 528 3051.5 390 Q2917 252 2741.5 154.5 Q2566 57 2350 4 Q2134 -49 1880 -49 Z M1880 287 Q2075 287 2235.5 329.5 Q2396 372 2524 449.5 Q2652 527 2747 636 Q2842 745 2905.5 878 Q2969 1011 3000 1164 Q3031 1317 3031 1483 Q3031 1649 3000 1802 Q2969 1955 2905.5 2088 Q2842 2221 2747 2330 Q2652 2439 2524 2516.5 Q2396 2594 2235 2636.5 Q2074 2679 1880 2679 Q1686 2679 1525 2636.5 Q1364 2594 1236 2516.5 Q1108 2439 1013 2330 Q918 2221 854.5 2088 Q791 1955 760 1802 Q729 1649 729 1483 Q729 1317 760 1164 Q791 1011 854.5 878 Q918 745 1013 636 Q1108 527 1236 449.5 Q1364 372 1524.5 329.5 Q1685 287 1880 287 Z M2658 3744 Q2658 3641 2632 3544.5 Q2606 3448 2550.5 3373 Q2495 3298 2408 3253 Q2321 3208 2200 3208 Q2127 3208 2064.5 3226 Q2002 3244 1947 3270.5 Q1892 3297 1843.5 3328.5 Q1795 3360 1750 3386.5 Q1705 3413 1662.5 3431 Q1620 3449 1577 3449 Q1532 3449 1499 3434 Q1466 3419 1443 3390.5 Q1420 3362 1406.5 3321 Q1393 3280 1389 3228 L1106 3228 Q1106 3331 1132 3427.5 Q1158 3524 1214 3599 Q1270 3674 1356.5 3719.5 Q1443 3765 1565 3765 Q1638 3765 1700.5 3747 Q1763 3729 1817.5 3702 Q1872 3675 1920.5 3644 Q1969 3613 2014 3586 Q2059 3559 2101.5 3541 Q2144 3523 2187 3523 Q2232 3523 2265 3538 Q2298 3553 2321 3581.5 Q2344 3610 2357.5 3651 Q2371 3692 2376 3744 L2658 3744 Z " />
<glyph glyph-name="Odieresis" unicode="&#xd6;" horiz-adv-x="3760" d="M1880 -49 Q1620 -49 1402 1.5 Q1184 52 1008 147 Q832 242 699.5 377.5 Q567 513 478 683.5 Q389 854 344 1055.5 Q299 1257 299 1483 Q299 1701 345.5 1899.5 Q392 2098 483 2268 Q574 2438 708.5 2576 Q843 2714 1018.5 2811.5 Q1194 2909 1410 2962 Q1626 3015 1880 3015 Q2140 3015 2358 2964.5 Q2576 2914 2752 2819 Q2928 2724 3060.5 2588.5 Q3193 2453 3282 2282.5 Q3371 2112 3416 1910.5 Q3461 1709 3461 1483 Q3461 1265 3414.5 1066.5 Q3368 868 3277 698 Q3186 528 3051.5 390 Q2917 252 2741.5 154.5 Q2566 57 2350 4 Q2134 -49 1880 -49 Z M1880 287 Q2075 287 2235.5 329.5 Q2396 372 2524 449.5 Q2652 527 2747 636 Q2842 745 2905.5 878 Q2969 1011 3000 1164 Q3031 1317 3031 1483 Q3031 1649 3000 1802 Q2969 1955 2905.5 2088 Q2842 2221 2747 2330 Q2652 2439 2524 2516.5 Q2396 2594 2235 2636.5 Q2074 2679 1880 2679 Q1686 2679 1525 2636.5 Q1364 2594 1236 2516.5 Q1108 2439 1013 2330 Q918 2221 854.5 2088 Q791 1955 760 1802 Q729 1649 729 1483 Q729 1317 760 1164 Q791 1011 854.5 878 Q918 745 1013 636 Q1108 527 1236 449.5 Q1364 372 1524.5 329.5 Q1685 287 1880 287 Z M1127 3281 L1127 3695 L1565 3695 L1565 3281 L1127 3281 Z M2196 3281 L2196 3695 L2634 3695 L2634 3281 L2196 3281 Z " />
<glyph glyph-name="Omacron" unicode="&#x14c;" horiz-adv-x="3760" d="M1880 -49 Q1620 -49 1402 1.5 Q1184 52 1008 147 Q832 242 699.5 377.5 Q567 513 478 683.5 Q389 854 344 1055.5 Q299 1257 299 1483 Q299 1701 345.5 1899.5 Q392 2098 483 2268 Q574 2438 708.5 2576 Q843 2714 1018.5 2811.5 Q1194 2909 1410 2962 Q1626 3015 1880 3015 Q2140 3015 2358 2964.5 Q2576 2914 2752 2819 Q2928 2724 3060.5 2588.5 Q3193 2453 3282 2282.5 Q3371 2112 3416 1910.5 Q3461 1709 3461 1483 Q3461 1265 3414.5 1066.5 Q3368 868 3277 698 Q3186 528 3051.5 390 Q2917 252 2741.5 154.5 Q2566 57 2350 4 Q2134 -49 1880 -49 Z M1880 287 Q2075 287 2235.5 329.5 Q2396 372 2524 449.5 Q2652 527 2747 636 Q2842 745 2905.5 878 Q2969 1011 3000 1164 Q3031 1317 3031 1483 Q3031 1649 3000 1802 Q2969 1955 2905.5 2088 Q2842 2221 2747 2330 Q2652 2439 2524 2516.5 Q2396 2594 2235 2636.5 Q2074 2679 1880 2679 Q1686 2679 1525 2636.5 Q1364 2594 1236 2516.5 Q1108 2439 1013 2330 Q918 2221 854.5 2088 Q791 1955 760 1802 Q729 1649 729 1483 Q729 1317 760 1164 Q791 1011 854.5 878 Q918 745 1013 636 Q1108 527 1236 449.5 Q1364 372 1524.5 329.5 Q1685 287 1880 287 Z M1167 3302 L1167 3609 L2593 3609 L2593 3302 L1167 3302 Z " />
<glyph glyph-name="Obreve" unicode="&#x14e;" horiz-adv-x="3760" d="M1880 -49 Q1620 -49 1402 1.5 Q1184 52 1008 147 Q832 242 699.5 377.5 Q567 513 478 683.5 Q389 854 344 1055.5 Q299 1257 299 1483 Q299 1701 345.5 1899.5 Q392 2098 483 2268 Q574 2438 708.5 2576 Q843 2714 1018.5 2811.5 Q1194 2909 1410 2962 Q1626 3015 1880 3015 Q2140 3015 2358 2964.5 Q2576 2914 2752 2819 Q2928 2724 3060.5 2588.5 Q3193 2453 3282 2282.5 Q3371 2112 3416 1910.5 Q3461 1709 3461 1483 Q3461 1265 3414.5 1066.5 Q3368 868 3277 698 Q3186 528 3051.5 390 Q2917 252 2741.5 154.5 Q2566 57 2350 4 Q2134 -49 1880 -49 Z M1880 287 Q2075 287 2235.5 329.5 Q2396 372 2524 449.5 Q2652 527 2747 636 Q2842 745 2905.5 878 Q2969 1011 3000 1164 Q3031 1317 3031 1483 Q3031 1649 3000 1802 Q2969 1955 2905.5 2088 Q2842 2221 2747 2330 Q2652 2439 2524 2516.5 Q2396 2594 2235 2636.5 Q2074 2679 1880 2679 Q1686 2679 1525 2636.5 Q1364 2594 1236 2516.5 Q1108 2439 1013 2330 Q918 2221 854.5 2088 Q791 1955 760 1802 Q729 1649 729 1483 Q729 1317 760 1164 Q791 1011 854.5 878 Q918 745 1013 636 Q1108 527 1236 449.5 Q1364 372 1524.5 329.5 Q1685 287 1880 287 Z M2593 3810 Q2590 3656 2538.5 3531.5 Q2487 3407 2394.5 3318.5 Q2302 3230 2171.5 3182 Q2041 3134 1880 3134 Q1719 3134 1588.5 3182 Q1458 3230 1365.5 3318.5 Q1273 3407 1221.5 3531.5 Q1170 3656 1167 3810 L1454 3810 Q1462 3722 1492 3654 Q1522 3586 1575 3539.5 Q1628 3493 1704 3469 Q1780 3445 1880 3445 Q1980 3445 2056 3469 Q2132 3493 2185 3539.5 Q2238 3586 2268 3654 Q2298 3722 2306 3810 L2593 3810 Z " />
<glyph glyph-name="Ohungarumlaut" unicode="&#x150;" horiz-adv-x="3760" d="M1880 -49 Q1620 -49 1402 1.5 Q1184 52 1008 147 Q832 242 699.5 377.5 Q567 513 478 683.5 Q389 854 344 1055.5 Q299 1257 299 1483 Q299 1701 345.5 1899.5 Q392 2098 483 2268 Q574 2438 708.5 2576 Q843 2714 1018.5 2811.5 Q1194 2909 1410 2962 Q1626 3015 1880 3015 Q2140 3015 2358 2964.5 Q2576 2914 2752 2819 Q2928 2724 3060.5 2588.5 Q3193 2453 3282 2282.5 Q3371 2112 3416 1910.5 Q3461 1709 3461 1483 Q3461 1265 3414.5 1066.5 Q3368 868 3277 698 Q3186 528 3051.5 390 Q2917 252 2741.5 154.5 Q2566 57 2350 4 Q2134 -49 1880 -49 Z M1880 287 Q2075 287 2235.5 329.5 Q2396 372 2524 449.5 Q2652 527 2747 636 Q2842 745 2905.5 878 Q2969 1011 3000 1164 Q3031 1317 3031 1483 Q3031 1649 3000 1802 Q2969 1955 2905.5 2088 Q2842 2221 2747 2330 Q2652 2439 2524 2516.5 Q2396 2594 2235 2636.5 Q2074 2679 1880 2679 Q1686 2679 1525 2636.5 Q1364 2594 1236 2516.5 Q1108 2439 1013 2330 Q918 2221 854.5 2088 Q791 1955 760 1802 Q729 1649 729 1483 Q729 1317 760 1164 Q791 1011 854.5 878 Q918 745 1013 636 Q1108 527 1236 449.5 Q1364 372 1524.5 329.5 Q1685 287 1880 287 Z M1266 3162 L1552 3810 L2048 3810 L1606 3162 L1266 3162 Z M2154 3162 L2441 3810 L2937 3810 L2494 3162 L2154 3162 Z " />
<glyph glyph-name="Oslash" unicode="&#xd8;" horiz-adv-x="3760" d="M205 0 L639 442 Q555 542 491 658.5 Q427 775 384.5 906 Q342 1037 320.5 1181.5 Q299 1326 299 1483 Q299 1701 345.5 1899.5 Q392 2098 483 2268 Q574 2438 708.5 2576 Q843 2714 1018.5 2811.5 Q1194 2909 1410 2962 Q1626 3015 1880 3015 Q2190 3015 2439.5 2943.5 Q2689 2872 2879 2740 L3101 2966 L3555 2966 L3121 2519 Q3205 2421 3269 2305 Q3333 2189 3375.5 2058 Q3418 1927 3439.5 1782.5 Q3461 1638 3461 1483 Q3461 1265 3414.5 1066.5 Q3368 868 3277 698 Q3186 528 3051.5 390 Q2917 252 2741.5 154.5 Q2566 57 2350 4 Q2134 -49 1880 -49 Q1569 -49 1318.5 22 Q1068 93 881 225 L659 0 L205 0 Z M2605 2458 Q2470 2562 2288.5 2620.5 Q2107 2679 1880 2679 Q1686 2679 1525 2636.5 Q1364 2594 1236 2516.5 Q1108 2439 1013 2330 Q918 2221 854.5 2088 Q791 1955 760 1802 Q729 1649 729 1483 Q729 1272 778.5 1084 Q828 896 930 741 L2605 2458 Z M1151 504 Q1289 400 1471 343.5 Q1653 287 1880 287 Q2075 287 2235.5 329.5 Q2396 372 2524 449.5 Q2652 527 2747 636 Q2842 745 2905.5 878 Q2969 1011 3000 1164 Q3031 1317 3031 1483 Q3031 1693 2982 1880.5 Q2933 2068 2830 2220 L1151 504 Z " />
<glyph glyph-name="OE" unicode="&#x152;" horiz-adv-x="5353" d="M2683 0 Q2588 -9 2497.5 -18 Q2407 -27 2320.5 -34 Q2234 -41 2149.5 -45 Q2065 -49 1982 -49 Q1717 -49 1489.5 1.5 Q1262 52 1075 147 Q888 242 743 377.5 Q598 513 499.5 683.5 Q401 854 350 1055.5 Q299 1257 299 1483 Q299 1701 351.5 1899.5 Q404 2098 505 2268 Q606 2438 752 2576 Q898 2714 1085 2811.5 Q1272 2909 1497.5 2962 Q1723 3015 1982 3015 Q2065 3015 2149.5 3010.5 Q2234 3006 2320.5 2999.5 Q2407 2993 2497.5 2984 Q2588 2975 2683 2966 L5042 2966 L5042 2621 L3105 2621 L3105 1696 L4796 1696 L4796 1352 L3105 1352 L3105 344 L5067 344 L5067 0 L2683 0 Z M2683 2630 Q2599 2643 2513.5 2652.5 Q2428 2662 2340.5 2668 Q2253 2674 2163.5 2676.5 Q2074 2679 1982 2679 Q1777 2679 1604.5 2636.5 Q1432 2594 1293 2516.5 Q1154 2439 1048.5 2330 Q943 2221 872 2088 Q801 1955 765 1802 Q729 1649 729 1483 Q729 1317 765 1164 Q801 1011 872 878 Q943 745 1048.5 636 Q1154 527 1293 449.5 Q1432 372 1604.5 329.5 Q1777 287 1982 287 Q2062 287 2148.5 289 Q2235 291 2324.5 296 Q2414 301 2504.5 311 Q2595 321 2683 336 L2683 2630 Z " />
<glyph glyph-name="P" unicode="P" horiz-adv-x="3142" d="M492 0 L492 2966 L1663 2966 Q1891 2966 2072 2935.5 Q2253 2905 2390.5 2847.5 Q2528 2790 2625.5 2708 Q2723 2626 2785 2523.5 Q2847 2421 2875.5 2300 Q2904 2179 2904 2044 Q2904 1909 2874 1787 Q2844 1665 2780 1560.5 Q2716 1456 2616 1372 Q2516 1288 2375.5 1229 Q2235 1170 2052.5 1138 Q1870 1106 1642 1106 L913 1106 L913 0 L492 0 Z M1573 1450 Q1829 1450 2002 1489 Q2175 1528 2280 1604 Q2385 1680 2429.5 1790.5 Q2474 1901 2474 2044 Q2474 2187 2429.5 2295 Q2385 2403 2280 2475.5 Q2175 2548 2002 2584.5 Q1829 2621 1573 2621 L913 2621 L913 1450 L1573 1450 Z " />
<glyph glyph-name="Thorn" unicode="&#xde;" horiz-adv-x="3142" d="M492 0 L492 2966 L910 2966 L910 2433 L1659 2433 Q1888 2433 2068.5 2402.5 Q2249 2372 2387 2314.5 Q2525 2257 2622.5 2175 Q2720 2093 2781.5 1990.5 Q2843 1888 2871.5 1767 Q2900 1646 2900 1511 Q2900 1308 2831.5 1136.5 Q2763 965 2612 839.5 Q2461 714 2221 643.5 Q1981 573 1639 573 L910 573 L910 0 L492 0 Z M1569 918 Q1825 918 1998 957 Q2171 996 2276 1071.5 Q2381 1147 2425.5 1257.5 Q2470 1368 2470 1511 Q2470 1654 2425.5 1762 Q2381 1870 2276 1943 Q2171 2016 1998 2052.5 Q1825 2089 1569 2089 L910 2089 L910 918 L1569 918 Z " />
<glyph glyph-name="Q" unicode="Q" horiz-adv-x="3760" d="M2863 -520 Q2832 -520 2806.5 -517.5 Q2781 -515 2758.5 -509 Q2736 -503 2716.5 -492.5 Q2697 -482 2679 -467 L2154 -33 Q2086 -42 2018.5 -45.5 Q1951 -49 1880 -49 Q1620 -49 1402 1.5 Q1184 52 1008 147 Q832 242 699.5 377.5 Q567 513 478 683.5 Q389 854 344 1055.5 Q299 1257 299 1483 Q299 1701 345.5 1899.5 Q392 2098 483 2268 Q574 2438 708.5 2576 Q843 2714 1018.5 2811.5 Q1194 2909 1410 2962 Q1626 3015 1880 3015 Q2140 3015 2358 2964.5 Q2576 2914 2752 2819 Q2928 2724 3060.5 2588.5 Q3193 2453 3282 2282.5 Q3371 2112 3416 1910.5 Q3461 1709 3461 1483 Q3461 1237 3402 1016.5 Q3343 796 3228 613 Q3113 430 2943 290 Q2773 150 2552 66 Q2589 50 2634.5 22 Q2680 -6 2736 -49 L3305 -520 L2863 -520 Z M1880 287 Q2075 287 2235.5 329.5 Q2396 372 2524 449.5 Q2652 527 2747 636 Q2842 745 2905.5 878 Q2969 1011 3000 1164 Q3031 1317 3031 1483 Q3031 1649 3000 1802 Q2969 1955 2905.5 2088 Q2842 2221 2747 2330 Q2652 2439 2524 2516.5 Q2396 2594 2235 2636.5 Q2074 2679 1880 2679 Q1686 2679 1525 2636.5 Q1364 2594 1236 2516.5 Q1108 2439 1013 2330 Q918 2221 854.5 2088 Q791 1955 760 1802 Q729 1649 729 1483 Q729 1317 760 1164 Q791 1011 854.5 878 Q918 745 1013 636 Q1108 527 1236 449.5 Q1364 372 1524.5 329.5 Q1685 287 1880 287 Z " />
<glyph glyph-name="R" unicode="R" horiz-adv-x="3305" d="M2683 0 L1733 1065 Q1703 1098 1676.5 1122 Q1650 1146 1622.5 1163.5 Q1595 1181 1564.5 1192 Q1534 1203 1497.5 1209.5 Q1461 1216 1415 1218.5 Q1369 1221 1311 1221 L913 1221 L913 0 L492 0 L492 2966 L1642 2966 Q1985 2966 2225 2906.5 Q2465 2847 2616 2734.5 Q2767 2622 2835.5 2461 Q2904 2300 2904 2097 Q2904 1925 2846 1785 Q2788 1645 2675.5 1539.5 Q2563 1434 2398 1364 Q2233 1294 2019 1262 Q2078 1240 2128.5 1201.5 Q2179 1163 2228 1110 L3224 0 L2683 0 Z M1552 1556 Q1808 1556 1984.5 1587 Q2161 1618 2269.5 1683.5 Q2378 1749 2426 1851.5 Q2474 1954 2474 2097 Q2474 2240 2426 2339.5 Q2378 2439 2269.5 2501.5 Q2161 2564 1984.5 2592.5 Q1808 2621 1552 2621 L913 2621 L913 1556 L1552 1556 Z " />
<glyph glyph-name="Racute" unicode="&#x154;" horiz-adv-x="3305" d="M2683 0 L1733 1065 Q1703 1098 1676.5 1122 Q1650 1146 1622.5 1163.5 Q1595 1181 1564.5 1192 Q1534 1203 1497.5 1209.5 Q1461 1216 1415 1218.5 Q1369 1221 1311 1221 L913 1221 L913 0 L492 0 L492 2966 L1642 2966 Q1985 2966 2225 2906.5 Q2465 2847 2616 2734.5 Q2767 2622 2835.5 2461 Q2904 2300 2904 2097 Q2904 1925 2846 1785 Q2788 1645 2675.5 1539.5 Q2563 1434 2398 1364 Q2233 1294 2019 1262 Q2078 1240 2128.5 1201.5 Q2179 1163 2228 1110 L3224 0 L2683 0 Z M1552 1556 Q1808 1556 1984.5 1587 Q2161 1618 2269.5 1683.5 Q2378 1749 2426 1851.5 Q2474 1954 2474 2097 Q2474 2240 2426 2339.5 Q2378 2439 2269.5 2501.5 Q2161 2564 1984.5 2592.5 Q1808 2621 1552 2621 L913 2621 L913 1556 L1552 1556 Z M1413 3162 L1863 3810 L2388 3810 L1781 3162 L1413 3162 Z " />
<glyph glyph-name="Rcaron" unicode="&#x158;" horiz-adv-x="3305" d="M2683 0 L1733 1065 Q1703 1098 1676.5 1122 Q1650 1146 1622.5 1163.5 Q1595 1181 1564.5 1192 Q1534 1203 1497.5 1209.5 Q1461 1216 1415 1218.5 Q1369 1221 1311 1221 L913 1221 L913 0 L492 0 L492 2966 L1642 2966 Q1985 2966 2225 2906.5 Q2465 2847 2616 2734.5 Q2767 2622 2835.5 2461 Q2904 2300 2904 2097 Q2904 1925 2846 1785 Q2788 1645 2675.5 1539.5 Q2563 1434 2398 1364 Q2233 1294 2019 1262 Q2078 1240 2128.5 1201.5 Q2179 1163 2228 1110 L3224 0 L2683 0 Z M1552 1556 Q1808 1556 1984.5 1587 Q2161 1618 2269.5 1683.5 Q2378 1749 2426 1851.5 Q2474 1954 2474 2097 Q2474 2240 2426 2339.5 Q2378 2439 2269.5 2501.5 Q2161 2564 1984.5 2592.5 Q1808 2621 1552 2621 L913 2621 L913 1556 L1552 1556 Z M1434 3162 L820 3810 L1188 3810 L1614 3478 L2040 3810 L2409 3810 L1794 3162 L1434 3162 Z " />
<glyph glyph-name="Rcommaaccent" unicode="&#x156;" horiz-adv-x="3305" d="M2683 0 L1733 1065 Q1703 1098 1676.5 1122 Q1650 1146 1622.5 1163.5 Q1595 1181 1564.5 1192 Q1534 1203 1497.5 1209.5 Q1461 1216 1415 1218.5 Q1369 1221 1311 1221 L913 1221 L913 0 L492 0 L492 2966 L1642 2966 Q1985 2966 2225 2906.5 Q2465 2847 2616 2734.5 Q2767 2622 2835.5 2461 Q2904 2300 2904 2097 Q2904 1925 2846 1785 Q2788 1645 2675.5 1539.5 Q2563 1434 2398 1364 Q2233 1294 2019 1262 Q2078 1240 2128.5 1201.5 Q2179 1163 2228 1110 L3224 0 L2683 0 Z M1552 1556 Q1808 1556 1984.5 1587 Q2161 1618 2269.5 1683.5 Q2378 1749 2426 1851.5 Q2474 1954 2474 2097 Q2474 2240 2426 2339.5 Q2378 2439 2269.5 2501.5 Q2161 2564 1984.5 2592.5 Q1808 2621 1552 2621 L913 2621 L913 1556 L1552 1556 Z M1511 -983 L1355 -827 L1615 -551 L1523 -172 L1773 -172 Q1824 -172 1868 -187 Q1912 -202 1944.5 -230.5 Q1977 -259 1996 -300 Q2015 -341 2015 -393 Q2015 -450 1994 -506 Q1973 -562 1932 -618 Q1891 -674 1831.5 -729.5 Q1772 -785 1695 -844 L1511 -983 Z " />
<glyph glyph-name="S" unicode="S" horiz-adv-x="3097" d="M283 471 Q386 439 509 410 Q632 381 769.5 359 Q907 337 1054 324 Q1201 311 1352 311 Q1587 311 1769 341 Q1951 371 2076 428.5 Q2201 486 2266 569 Q2331 652 2331 758 Q2331 826 2311.5 882 Q2292 938 2250 985 Q2208 1032 2142 1072.5 Q2076 1113 1982 1152 Q1888 1191 1765 1229.5 Q1642 1268 1487 1311 Q1319 1357 1168 1404 Q1017 1451 888.5 1505.5 Q760 1560 657 1627 Q554 1694 482.5 1779.5 Q411 1865 374 1973.5 Q337 2082 340 2220 Q342 2341 380.5 2446.5 Q419 2552 493 2640.5 Q567 2729 676 2798.5 Q785 2868 928.5 2916 Q1072 2964 1249.5 2989.5 Q1427 3015 1638 3015 Q1798 3015 1940.5 3003 Q2083 2991 2209 2969.5 Q2335 2948 2443 2918 Q2551 2888 2642 2851 L2642 2486 Q2541 2521 2430.5 2552 Q2320 2583 2196 2605.5 Q2072 2628 1931.5 2641 Q1791 2654 1630 2654 Q1418 2654 1258 2627 Q1098 2600 990.5 2547 Q883 2494 828.5 2416 Q774 2338 774 2236 Q774 2169 788 2115 Q802 2061 837.5 2014.5 Q873 1968 934 1926.5 Q995 1885 1087.5 1845 Q1180 1805 1309 1763.5 Q1438 1722 1610 1675 Q1798 1623 1957.5 1574.5 Q2117 1526 2246.5 1472.5 Q2376 1419 2474.5 1355 Q2573 1291 2638.5 1208.5 Q2704 1126 2736 1019.5 Q2768 913 2765 774 Q2763 652 2723 544 Q2683 436 2604 344.5 Q2525 253 2407 180 Q2289 107 2131.5 56 Q1974 5 1776 -22 Q1578 -49 1339 -49 Q1181 -49 1031.5 -37.5 Q882 -26 746.5 -5 Q611 16 493.5 45.5 Q376 75 283 111 L283 471 Z " />
<glyph glyph-name="Sacute" unicode="&#x15a;" horiz-adv-x="3097" d="M283 471 Q386 439 509 410 Q632 381 769.5 359 Q907 337 1054 324 Q1201 311 1352 311 Q1587 311 1769 341 Q1951 371 2076 428.5 Q2201 486 2266 569 Q2331 652 2331 758 Q2331 826 2311.5 882 Q2292 938 2250 985 Q2208 1032 2142 1072.5 Q2076 1113 1982 1152 Q1888 1191 1765 1229.5 Q1642 1268 1487 1311 Q1319 1357 1168 1404 Q1017 1451 888.5 1505.5 Q760 1560 657 1627 Q554 1694 482.5 1779.5 Q411 1865 374 1973.5 Q337 2082 340 2220 Q342 2341 380.5 2446.5 Q419 2552 493 2640.5 Q567 2729 676 2798.5 Q785 2868 928.5 2916 Q1072 2964 1249.5 2989.5 Q1427 3015 1638 3015 Q1798 3015 1940.5 3003 Q2083 2991 2209 2969.5 Q2335 2948 2443 2918 Q2551 2888 2642 2851 L2642 2486 Q2541 2521 2430.5 2552 Q2320 2583 2196 2605.5 Q2072 2628 1931.5 2641 Q1791 2654 1630 2654 Q1418 2654 1258 2627 Q1098 2600 990.5 2547 Q883 2494 828.5 2416 Q774 2338 774 2236 Q774 2169 788 2115 Q802 2061 837.5 2014.5 Q873 1968 934 1926.5 Q995 1885 1087.5 1845 Q1180 1805 1309 1763.5 Q1438 1722 1610 1675 Q1798 1623 1957.5 1574.5 Q2117 1526 2246.5 1472.5 Q2376 1419 2474.5 1355 Q2573 1291 2638.5 1208.5 Q2704 1126 2736 1019.5 Q2768 913 2765 774 Q2763 652 2723 544 Q2683 436 2604 344.5 Q2525 253 2407 180 Q2289 107 2131.5 56 Q1974 5 1776 -22 Q1578 -49 1339 -49 Q1181 -49 1031.5 -37.5 Q882 -26 746.5 -5 Q611 16 493.5 45.5 Q376 75 283 111 L283 471 Z M1303 3162 L1753 3810 L2278 3810 L1671 3162 L1303 3162 Z " />
<glyph glyph-name="Scircumflex" unicode="&#x15c;" horiz-adv-x="3097" d="M283 471 Q386 439 509 410 Q632 381 769.5 359 Q907 337 1054 324 Q1201 311 1352 311 Q1587 311 1769 341 Q1951 371 2076 428.5 Q2201 486 2266 569 Q2331 652 2331 758 Q2331 826 2311.5 882 Q2292 938 2250 985 Q2208 1032 2142 1072.5 Q2076 1113 1982 1152 Q1888 1191 1765 1229.5 Q1642 1268 1487 1311 Q1319 1357 1168 1404 Q1017 1451 888.5 1505.5 Q760 1560 657 1627 Q554 1694 482.5 1779.5 Q411 1865 374 1973.5 Q337 2082 340 2220 Q342 2341 380.5 2446.5 Q419 2552 493 2640.5 Q567 2729 676 2798.5 Q785 2868 928.5 2916 Q1072 2964 1249.5 2989.5 Q1427 3015 1638 3015 Q1798 3015 1940.5 3003 Q2083 2991 2209 2969.5 Q2335 2948 2443 2918 Q2551 2888 2642 2851 L2642 2486 Q2541 2521 2430.5 2552 Q2320 2583 2196 2605.5 Q2072 2628 1931.5 2641 Q1791 2654 1630 2654 Q1418 2654 1258 2627 Q1098 2600 990.5 2547 Q883 2494 828.5 2416 Q774 2338 774 2236 Q774 2169 788 2115 Q802 2061 837.5 2014.5 Q873 1968 934 1926.5 Q995 1885 1087.5 1845 Q1180 1805 1309 1763.5 Q1438 1722 1610 1675 Q1798 1623 1957.5 1574.5 Q2117 1526 2246.5 1472.5 Q2376 1419 2474.5 1355 Q2573 1291 2638.5 1208.5 Q2704 1126 2736 1019.5 Q2768 913 2765 774 Q2763 652 2723 544 Q2683 436 2604 344.5 Q2525 253 2407 180 Q2289 107 2131.5 56 Q1974 5 1776 -22 Q1578 -49 1339 -49 Q1181 -49 1031.5 -37.5 Q882 -26 746.5 -5 Q611 16 493.5 45.5 Q376 75 283 111 L283 471 Z M1929 3162 L1503 3490 L1077 3162 L709 3162 L1323 3810 L1683 3810 L2298 3162 L1929 3162 Z " />
<glyph glyph-name="Scaron" unicode="&#x160;" horiz-adv-x="3097" d="M283 471 Q386 439 509 410 Q632 381 769.5 359 Q907 337 1054 324 Q1201 311 1352 311 Q1587 311 1769 341 Q1951 371 2076 428.5 Q2201 486 2266 569 Q2331 652 2331 758 Q2331 826 2311.5 882 Q2292 938 2250 985 Q2208 1032 2142 1072.5 Q2076 1113 1982 1152 Q1888 1191 1765 1229.5 Q1642 1268 1487 1311 Q1319 1357 1168 1404 Q1017 1451 888.5 1505.5 Q760 1560 657 1627 Q554 1694 482.5 1779.5 Q411 1865 374 1973.5 Q337 2082 340 2220 Q342 2341 380.5 2446.5 Q419 2552 493 2640.5 Q567 2729 676 2798.5 Q785 2868 928.5 2916 Q1072 2964 1249.5 2989.5 Q1427 3015 1638 3015 Q1798 3015 1940.5 3003 Q2083 2991 2209 2969.5 Q2335 2948 2443 2918 Q2551 2888 2642 2851 L2642 2486 Q2541 2521 2430.5 2552 Q2320 2583 2196 2605.5 Q2072 2628 1931.5 2641 Q1791 2654 1630 2654 Q1418 2654 1258 2627 Q1098 2600 990.5 2547 Q883 2494 828.5 2416 Q774 2338 774 2236 Q774 2169 788 2115 Q802 2061 837.5 2014.5 Q873 1968 934 1926.5 Q995 1885 1087.5 1845 Q1180 1805 1309 1763.5 Q1438 1722 1610 1675 Q1798 1623 1957.5 1574.5 Q2117 1526 2246.5 1472.5 Q2376 1419 2474.5 1355 Q2573 1291 2638.5 1208.5 Q2704 1126 2736 1019.5 Q2768 913 2765 774 Q2763 652 2723 544 Q2683 436 2604 344.5 Q2525 253 2407 180 Q2289 107 2131.5 56 Q1974 5 1776 -22 Q1578 -49 1339 -49 Q1181 -49 1031.5 -37.5 Q882 -26 746.5 -5 Q611 16 493.5 45.5 Q376 75 283 111 L283 471 Z M1323 3162 L709 3810 L1077 3810 L1503 3478 L1929 3810 L2298 3810 L1683 3162 L1323 3162 Z " />
<glyph glyph-name="Scedilla" unicode="&#x15e;" horiz-adv-x="3097" d="M1049 -643 Q1089 -652 1132.5 -658 Q1176 -664 1241 -664 Q1267 -664 1300.5 -658.5 Q1334 -653 1363.5 -638 Q1393 -623 1413.5 -597.5 Q1434 -572 1434 -532 Q1434 -489 1410 -456.5 Q1386 -424 1346.5 -400 Q1307 -376 1257 -360.5 Q1207 -345 1155 -336 L1327 -49 Q1170 -48 1022 -36 Q874 -24 740.5 -3 Q607 18 491 46.5 Q375 75 283 111 L283 471 Q386 439 509 410 Q632 381 769.5 359 Q907 337 1054 324 Q1201 311 1352 311 Q1587 311 1769 341 Q1951 371 2076 428.5 Q2201 486 2266 569 Q2331 652 2331 758 Q2331 826 2311.5 882 Q2292 938 2250 985 Q2208 1032 2142 1072.5 Q2076 1113 1982 1152 Q1888 1191 1765 1229.5 Q1642 1268 1487 1311 Q1319 1357 1168 1404 Q1017 1451 888.5 1505.5 Q760 1560 657 1627 Q554 1694 482.5 1779.5 Q411 1865 374 1973.5 Q337 2082 340 2220 Q342 2341 380.5 2446.5 Q419 2552 493 2640.5 Q567 2729 676 2798.5 Q785 2868 928.5 2916 Q1072 2964 1249.5 2989.5 Q1427 3015 1638 3015 Q1798 3015 1940.5 3003 Q2083 2991 2209 2969.5 Q2335 2948 2443 2918 Q2551 2888 2642 2851 L2642 2486 Q2541 2521 2430.5 2552 Q2320 2583 2196 2605.5 Q2072 2628 1931.5 2641 Q1791 2654 1630 2654 Q1418 2654 1258 2627 Q1098 2600 990.5 2547 Q883 2494 828.5 2416 Q774 2338 774 2236 Q774 2169 788 2115 Q802 2061 837.5 2014.5 Q873 1968 934 1926.5 Q995 1885 1087.5 1845 Q1180 1805 1309 1763.5 Q1438 1722 1610 1675 Q1798 1623 1957.5 1574.5 Q2117 1526 2246.5 1472.5 Q2376 1419 2474.5 1355 Q2573 1291 2638.5 1208.5 Q2704 1126 2736 1019.5 Q2768 913 2765 774 Q2762 605 2686 463 Q2610 321 2459.5 214.5 Q2309 108 2082.5 42 Q1856 -24 1552 -41 L1454 -246 Q1511 -260 1559.5 -285 Q1608 -310 1644 -345.5 Q1680 -381 1700 -425.5 Q1720 -470 1720 -524 Q1720 -618 1682 -686 Q1644 -754 1581 -798.5 Q1518 -843 1437 -864 Q1356 -885 1270 -885 Q1208 -885 1153 -876.5 Q1098 -868 1049 -856 L1049 -643 Z " />
<glyph glyph-name="Scommaaccent" unicode="&#x218;" horiz-adv-x="3097" d="M283 471 Q386 439 509 410 Q632 381 769.5 359 Q907 337 1054 324 Q1201 311 1352 311 Q1587 311 1769 341 Q1951 371 2076 428.5 Q2201 486 2266 569 Q2331 652 2331 758 Q2331 826 2311.5 882 Q2292 938 2250 985 Q2208 1032 2142 1072.5 Q2076 1113 1982 1152 Q1888 1191 1765 1229.5 Q1642 1268 1487 1311 Q1319 1357 1168 1404 Q1017 1451 888.5 1505.5 Q760 1560 657 1627 Q554 1694 482.5 1779.5 Q411 1865 374 1973.5 Q337 2082 340 2220 Q342 2341 380.5 2446.5 Q419 2552 493 2640.5 Q567 2729 676 2798.5 Q785 2868 928.5 2916 Q1072 2964 1249.5 2989.5 Q1427 3015 1638 3015 Q1798 3015 1940.5 3003 Q2083 2991 2209 2969.5 Q2335 2948 2443 2918 Q2551 2888 2642 2851 L2642 2486 Q2541 2521 2430.5 2552 Q2320 2583 2196 2605.5 Q2072 2628 1931.5 2641 Q1791 2654 1630 2654 Q1418 2654 1258 2627 Q1098 2600 990.5 2547 Q883 2494 828.5 2416 Q774 2338 774 2236 Q774 2169 788 2115 Q802 2061 837.5 2014.5 Q873 1968 934 1926.5 Q995 1885 1087.5 1845 Q1180 1805 1309 1763.5 Q1438 1722 1610 1675 Q1798 1623 1957.5 1574.5 Q2117 1526 2246.5 1472.5 Q2376 1419 2474.5 1355 Q2573 1291 2638.5 1208.5 Q2704 1126 2736 1019.5 Q2768 913 2765 774 Q2763 652 2723 544 Q2683 436 2604 344.5 Q2525 253 2407 180 Q2289 107 2131.5 56 Q1974 5 1776 -22 Q1578 -49 1339 -49 Q1181 -49 1031.5 -37.5 Q882 -26 746.5 -5 Q611 16 493.5 45.5 Q376 75 283 111 L283 471 Z M1319 -983 L1163 -827 L1423 -551 L1331 -172 L1581 -172 Q1632 -172 1676 -187 Q1720 -202 1752.5 -230.5 Q1785 -259 1804 -300 Q1823 -341 1823 -393 Q1823 -450 1802 -506 Q1781 -562 1740 -618 Q1699 -674 1639.5 -729.5 Q1580 -785 1503 -844 L1319 -983 Z " />
<glyph glyph-name="T" unicode="T" horiz-adv-x="3092" d="M1335 0 L1335 2621 L135 2621 L135 2966 L2957 2966 L2957 2621 L1757 2621 L1757 0 L1335 0 Z " />
<glyph glyph-name="Tcaron" unicode="&#x164;" horiz-adv-x="3092" d="M1335 0 L1335 2621 L135 2621 L135 2966 L2957 2966 L2957 2621 L1757 2621 L1757 0 L1335 0 Z M1364 3162 L750 3810 L1118 3810 L1544 3478 L1970 3810 L2339 3810 L1724 3162 L1364 3162 Z " />
<glyph glyph-name="Tcommaaccent" unicode="&#x162;" horiz-adv-x="3092" d="M1335 0 L1335 2621 L135 2621 L135 2966 L2957 2966 L2957 2621 L1757 2621 L1757 0 L1335 0 Z M1307 -983 L1151 -827 L1411 -551 L1319 -172 L1569 -172 Q1620 -172 1664 -187 Q1708 -202 1740.5 -230.5 Q1773 -259 1792 -300 Q1811 -341 1811 -393 Q1811 -450 1790 -506 Q1769 -562 1728 -618 Q1687 -674 1627.5 -729.5 Q1568 -785 1491 -844 L1307 -983 Z " />
<glyph glyph-name="uni021A" unicode="&#x21a;" horiz-adv-x="3092" d="M1335 0 L1335 2621 L135 2621 L135 2966 L2957 2966 L2957 2621 L1757 2621 L1757 0 L1335 0 Z M1307 -983 L1151 -827 L1411 -551 L1319 -172 L1569 -172 Q1620 -172 1664 -187 Q1708 -202 1740.5 -230.5 Q1773 -259 1792 -300 Q1811 -341 1811 -393 Q1811 -450 1790 -506 Q1769 -562 1728 -618 Q1687 -674 1627.5 -729.5 Q1568 -785 1491 -844 L1307 -983 Z " />
<glyph glyph-name="Tbar" unicode="&#x166;" horiz-adv-x="3092" d="M1335 0 L1335 1221 L705 1221 L705 1528 L1335 1528 L1335 2621 L135 2621 L135 2966 L2957 2966 L2957 2621 L1757 2621 L1757 1528 L2388 1528 L2388 1221 L1757 1221 L1757 0 L1335 0 Z " />
<glyph glyph-name="U" unicode="U" horiz-adv-x="3600" d="M2736 2966 L3158 2966 L3158 1118 Q3158 936 3114.5 778.5 Q3071 621 2988.5 491.5 Q2906 362 2786.5 261 Q2667 160 2516 91.5 Q2365 23 2184.5 -13 Q2004 -49 1798 -49 Q1589 -49 1407.5 -13 Q1226 23 1075.5 91.5 Q925 160 807 261 Q689 362 608 491.5 Q527 621 484.5 778.5 Q442 936 442 1118 L442 2966 L864 2966 L864 1151 Q864 944 923 785.5 Q982 627 1099 519.5 Q1216 412 1391 357.5 Q1566 303 1798 303 Q2032 303 2207.5 357.5 Q2383 412 2500.5 519.5 Q2618 627 2677 785.5 Q2736 944 2736 1151 L2736 2966 Z " />
<glyph glyph-name="Ugrave" unicode="&#xd9;" horiz-adv-x="3600" d="M2736 2966 L3158 2966 L3158 1118 Q3158 936 3114.5 778.5 Q3071 621 2988.5 491.5 Q2906 362 2786.5 261 Q2667 160 2516 91.5 Q2365 23 2184.5 -13 Q2004 -49 1798 -49 Q1589 -49 1407.5 -13 Q1226 23 1075.5 91.5 Q925 160 807 261 Q689 362 608 491.5 Q527 621 484.5 778.5 Q442 936 442 1118 L442 2966 L864 2966 L864 1151 Q864 944 923 785.5 Q982 627 1099 519.5 Q1216 412 1391 357.5 Q1566 303 1798 303 Q2032 303 2207.5 357.5 Q2383 412 2500.5 519.5 Q2618 627 2677 785.5 Q2736 944 2736 1151 L2736 2966 Z M1634 3162 L1028 3810 L1552 3810 L2003 3162 L1634 3162 Z " />
<glyph glyph-name="Uacute" unicode="&#xda;" horiz-adv-x="3600" d="M2736 2966 L3158 2966 L3158 1118 Q3158 936 3114.5 778.5 Q3071 621 2988.5 491.5 Q2906 362 2786.5 261 Q2667 160 2516 91.5 Q2365 23 2184.5 -13 Q2004 -49 1798 -49 Q1589 -49 1407.5 -13 Q1226 23 1075.5 91.5 Q925 160 807 261 Q689 362 608 491.5 Q527 621 484.5 778.5 Q442 936 442 1118 L442 2966 L864 2966 L864 1151 Q864 944 923 785.5 Q982 627 1099 519.5 Q1216 412 1391 357.5 Q1566 303 1798 303 Q2032 303 2207.5 357.5 Q2383 412 2500.5 519.5 Q2618 627 2677 785.5 Q2736 944 2736 1151 L2736 2966 Z M1598 3162 L2048 3810 L2573 3810 L1966 3162 L1598 3162 Z " />
<glyph glyph-name="Ucircumflex" unicode="&#xdb;" horiz-adv-x="3600" d="M2736 2966 L3158 2966 L3158 1118 Q3158 936 3114.5 778.5 Q3071 621 2988.5 491.5 Q2906 362 2786.5 261 Q2667 160 2516 91.5 Q2365 23 2184.5 -13 Q2004 -49 1798 -49 Q1589 -49 1407.5 -13 Q1226 23 1075.5 91.5 Q925 160 807 261 Q689 362 608 491.5 Q527 621 484.5 778.5 Q442 936 442 1118 L442 2966 L864 2966 L864 1151 Q864 944 923 785.5 Q982 627 1099 519.5 Q1216 412 1391 357.5 Q1566 303 1798 303 Q2032 303 2207.5 357.5 Q2383 412 2500.5 519.5 Q2618 627 2677 785.5 Q2736 944 2736 1151 L2736 2966 Z M2224 3162 L1798 3490 L1372 3162 L1004 3162 L1618 3810 L1978 3810 L2593 3162 L2224 3162 Z " />
<glyph glyph-name="Utilde" unicode="&#x168;" horiz-adv-x="3600" d="M2736 2966 L3158 2966 L3158 1118 Q3158 936 3114.5 778.5 Q3071 621 2988.5 491.5 Q2906 362 2786.5 261 Q2667 160 2516 91.5 Q2365 23 2184.5 -13 Q2004 -49 1798 -49 Q1589 -49 1407.5 -13 Q1226 23 1075.5 91.5 Q925 160 807 261 Q689 362 608 491.5 Q527 621 484.5 778.5 Q442 936 442 1118 L442 2966 L864 2966 L864 1151 Q864 944 923 785.5 Q982 627 1099 519.5 Q1216 412 1391 357.5 Q1566 303 1798 303 Q2032 303 2207.5 357.5 Q2383 412 2500.5 519.5 Q2618 627 2677 785.5 Q2736 944 2736 1151 L2736 2966 Z M2576 3744 Q2576 3641 2550 3544.5 Q2524 3448 2468.5 3373 Q2413 3298 2326 3253 Q2239 3208 2118 3208 Q2045 3208 1982.5 3226 Q1920 3244 1865 3270.5 Q1810 3297 1761.5 3328.5 Q1713 3360 1668 3386.5 Q1623 3413 1580.5 3431 Q1538 3449 1495 3449 Q1450 3449 1417 3434 Q1384 3419 1361 3390.5 Q1338 3362 1324.5 3321 Q1311 3280 1307 3228 L1024 3228 Q1024 3331 1050 3427.5 Q1076 3524 1132 3599 Q1188 3674 1274.5 3719.5 Q1361 3765 1483 3765 Q1556 3765 1618.5 3747 Q1681 3729 1735.5 3702 Q1790 3675 1838.5 3644 Q1887 3613 1932 3586 Q1977 3559 2019.5 3541 Q2062 3523 2105 3523 Q2150 3523 2183 3538 Q2216 3553 2239 3581.5 Q2262 3610 2275.5 3651 Q2289 3692 2294 3744 L2576 3744 Z " />
<glyph glyph-name="Udieresis" unicode="&#xdc;" horiz-adv-x="3600" d="M2736 2966 L3158 2966 L3158 1118 Q3158 936 3114.5 778.5 Q3071 621 2988.5 491.5 Q2906 362 2786.5 261 Q2667 160 2516 91.5 Q2365 23 2184.5 -13 Q2004 -49 1798 -49 Q1589 -49 1407.5 -13 Q1226 23 1075.5 91.5 Q925 160 807 261 Q689 362 608 491.5 Q527 621 484.5 778.5 Q442 936 442 1118 L442 2966 L864 2966 L864 1151 Q864 944 923 785.5 Q982 627 1099 519.5 Q1216 412 1391 357.5 Q1566 303 1798 303 Q2032 303 2207.5 357.5 Q2383 412 2500.5 519.5 Q2618 627 2677 785.5 Q2736 944 2736 1151 L2736 2966 Z M1045 3281 L1045 3695 L1483 3695 L1483 3281 L1045 3281 Z M2114 3281 L2114 3695 L2552 3695 L2552 3281 L2114 3281 Z " />
<glyph glyph-name="Umacron" unicode="&#x16a;" horiz-adv-x="3600" d="M2736 2966 L3158 2966 L3158 1118 Q3158 936 3114.5 778.5 Q3071 621 2988.5 491.5 Q2906 362 2786.5 261 Q2667 160 2516 91.5 Q2365 23 2184.5 -13 Q2004 -49 1798 -49 Q1589 -49 1407.5 -13 Q1226 23 1075.5 91.5 Q925 160 807 261 Q689 362 608 491.5 Q527 621 484.5 778.5 Q442 936 442 1118 L442 2966 L864 2966 L864 1151 Q864 944 923 785.5 Q982 627 1099 519.5 Q1216 412 1391 357.5 Q1566 303 1798 303 Q2032 303 2207.5 357.5 Q2383 412 2500.5 519.5 Q2618 627 2677 785.5 Q2736 944 2736 1151 L2736 2966 Z M1085 3302 L1085 3609 L2511 3609 L2511 3302 L1085 3302 Z " />
<glyph glyph-name="Ubreve" unicode="&#x16c;" horiz-adv-x="3600" d="M2736 2966 L3158 2966 L3158 1118 Q3158 936 3114.5 778.5 Q3071 621 2988.5 491.5 Q2906 362 2786.5 261 Q2667 160 2516 91.5 Q2365 23 2184.5 -13 Q2004 -49 1798 -49 Q1589 -49 1407.5 -13 Q1226 23 1075.5 91.5 Q925 160 807 261 Q689 362 608 491.5 Q527 621 484.5 778.5 Q442 936 442 1118 L442 2966 L864 2966 L864 1151 Q864 944 923 785.5 Q982 627 1099 519.5 Q1216 412 1391 357.5 Q1566 303 1798 303 Q2032 303 2207.5 357.5 Q2383 412 2500.5 519.5 Q2618 627 2677 785.5 Q2736 944 2736 1151 L2736 2966 Z M2511 3810 Q2508 3656 2456.5 3531.5 Q2405 3407 2312.5 3318.5 Q2220 3230 2089.5 3182 Q1959 3134 1798 3134 Q1637 3134 1506.5 3182 Q1376 3230 1283.5 3318.5 Q1191 3407 1139.5 3531.5 Q1088 3656 1085 3810 L1372 3810 Q1380 3722 1410 3654 Q1440 3586 1493 3539.5 Q1546 3493 1622 3469 Q1698 3445 1798 3445 Q1898 3445 1974 3469 Q2050 3493 2103 3539.5 Q2156 3586 2186 3654 Q2216 3722 2224 3810 L2511 3810 Z " />
<glyph glyph-name="Uring" unicode="&#x16e;" horiz-adv-x="3600" d="M2736 2966 L3158 2966 L3158 1118 Q3158 936 3114.5 778.5 Q3071 621 2988.5 491.5 Q2906 362 2786.5 261 Q2667 160 2516 91.5 Q2365 23 2184.5 -13 Q2004 -49 1798 -49 Q1589 -49 1407.5 -13 Q1226 23 1075.5 91.5 Q925 160 807 261 Q689 362 608 491.5 Q527 621 484.5 778.5 Q442 936 442 1118 L442 2966 L864 2966 L864 1151 Q864 944 923 785.5 Q982 627 1099 519.5 Q1216 412 1391 357.5 Q1566 303 1798 303 Q2032 303 2207.5 357.5 Q2383 412 2500.5 519.5 Q2618 627 2677 785.5 Q2736 944 2736 1151 L2736 2966 Z M2253 3580 Q2253 3487 2217.5 3407 Q2182 3327 2120.5 3269 Q2059 3211 1976 3178.5 Q1893 3146 1798 3146 Q1704 3146 1621 3178.5 Q1538 3211 1476.5 3269 Q1415 3327 1379.5 3407 Q1344 3487 1344 3580 Q1344 3674 1379.5 3753.5 Q1415 3833 1476.5 3891 Q1538 3949 1621 3981.5 Q1704 4014 1798 4014 Q1893 4014 1976 3981.5 Q2059 3949 2120.5 3891 Q2182 3833 2217.5 3753.5 Q2253 3674 2253 3580 Z M1798 3355 Q1847 3355 1888 3372.5 Q1929 3390 1959 3420.5 Q1989 3451 2006 3492 Q2023 3533 2023 3580 Q2023 3627 2006 3667.5 Q1989 3708 1959 3738.5 Q1929 3769 1888 3787.5 Q1847 3806 1798 3806 Q1749 3806 1708 3787.5 Q1667 3769 1637 3738.5 Q1607 3708 1590 3667.5 Q1573 3627 1573 3580 Q1573 3533 1590 3492 Q1607 3451 1637 3420.5 Q1667 3390 1708 3372.5 Q1749 3355 1798 3355 Z " />
<glyph glyph-name="Uhungarumlaut" unicode="&#x170;" horiz-adv-x="3600" d="M2736 2966 L3158 2966 L3158 1118 Q3158 936 3114.5 778.5 Q3071 621 2988.5 491.5 Q2906 362 2786.5 261 Q2667 160 2516 91.5 Q2365 23 2184.5 -13 Q2004 -49 1798 -49 Q1589 -49 1407.5 -13 Q1226 23 1075.5 91.5 Q925 160 807 261 Q689 362 608 491.5 Q527 621 484.5 778.5 Q442 936 442 1118 L442 2966 L864 2966 L864 1151 Q864 944 923 785.5 Q982 627 1099 519.5 Q1216 412 1391 357.5 Q1566 303 1798 303 Q2032 303 2207.5 357.5 Q2383 412 2500.5 519.5 Q2618 627 2677 785.5 Q2736 944 2736 1151 L2736 2966 Z M1184 3162 L1470 3810 L1966 3810 L1524 3162 L1184 3162 Z M2072 3162 L2359 3810 L2855 3810 L2412 3162 L2072 3162 Z " />
<glyph glyph-name="Uogonek" unicode="&#x172;" horiz-adv-x="3600" d="M2138 -860 Q2089 -873 2032.5 -879 Q1976 -885 1917 -885 Q1791 -885 1701.5 -853 Q1612 -821 1555.5 -769.5 Q1499 -718 1472.5 -651.5 Q1446 -585 1446 -516 Q1446 -424 1476.5 -349 Q1507 -274 1553 -216.5 Q1599 -159 1651.5 -117 Q1704 -75 1749 -49 Q1547 -45 1372 -7 Q1197 31 1051.5 101 Q906 171 792.5 271.5 Q679 372 601.5 500.5 Q524 629 483 784 Q442 939 442 1118 L442 2966 L864 2966 L864 1151 Q864 944 923 785.5 Q982 627 1099 519.5 Q1216 412 1391 357.5 Q1566 303 1798 303 Q2032 303 2207.5 357.5 Q2383 412 2500.5 519.5 Q2618 627 2677 785.5 Q2736 944 2736 1151 L2736 2966 L3158 2966 L3158 1118 Q3158 970 3129.5 839 Q3101 708 3046 595 Q2991 482 2910.5 388 Q2830 294 2726.5 218.5 Q2623 143 2496.5 87.5 Q2370 32 2224 -4 Q2124 -29 2038 -75.5 Q1952 -122 1888.5 -182 Q1825 -242 1789 -312.5 Q1753 -383 1753 -455 Q1753 -556 1815 -605.5 Q1877 -655 1991 -655 Q2014 -655 2034 -653.5 Q2054 -652 2072 -650 Q2090 -648 2106.5 -645 Q2123 -642 2138 -639 L2138 -860 Z " />
<glyph glyph-name="V" unicode="V" horiz-adv-x="3305" d="M1421 0 L8 2966 L475 2966 L1421 958 Q1479 833 1539.5 707 Q1600 581 1659 455 Q1718 582 1778 707 Q1838 832 1896 958 L2839 2966 L3297 2966 L1884 0 L1421 0 Z " />
<glyph glyph-name="W" unicode="W" horiz-adv-x="5476" d="M3731 0 L2937 1946 Q2912 2007 2887 2067.5 Q2862 2128 2836.5 2189 Q2811 2250 2786 2310.5 Q2761 2371 2736 2433 Q2712 2371 2687.5 2310.5 Q2663 2250 2638 2189 Q2613 2128 2588.5 2067.5 Q2564 2007 2540 1946 L1745 0 L1315 0 L33 2966 L496 2966 L1327 963 Q1353 900 1379 837.5 Q1405 775 1431.5 713 Q1458 651 1484 588.5 Q1510 526 1536 463 Q1561 526 1586 588.5 Q1611 651 1636.5 713 Q1662 775 1687 837.5 Q1712 900 1737 963 L2540 2966 L2937 2966 L3748 942 Q3772 879 3797.5 816 Q3823 753 3848.5 690 Q3874 627 3900.5 564 Q3927 501 3953 438 Q3979 501 4005.5 564 Q4032 627 4059 690 Q4086 753 4113 816 Q4140 879 4166 942 L5009 2966 L5444 2966 L4162 0 L3731 0 Z " />
<glyph glyph-name="Wgrave" unicode="&#x1e80;" horiz-adv-x="5476" d="M3731 0 L2937 1946 Q2912 2007 2887 2067.5 Q2862 2128 2836.5 2189 Q2811 2250 2786 2310.5 Q2761 2371 2736 2433 Q2712 2371 2687.5 2310.5 Q2663 2250 2638 2189 Q2613 2128 2588.5 2067.5 Q2564 2007 2540 1946 L1745 0 L1315 0 L33 2966 L496 2966 L1327 963 Q1353 900 1379 837.5 Q1405 775 1431.5 713 Q1458 651 1484 588.5 Q1510 526 1536 463 Q1561 526 1586 588.5 Q1611 651 1636.5 713 Q1662 775 1687 837.5 Q1712 900 1737 963 L2540 2966 L2937 2966 L3748 942 Q3772 879 3797.5 816 Q3823 753 3848.5 690 Q3874 627 3900.5 564 Q3927 501 3953 438 Q3979 501 4005.5 564 Q4032 627 4059 690 Q4086 753 4113 816 Q4140 879 4166 942 L5009 2966 L5444 2966 L4162 0 L3731 0 Z M2572 3162 L1966 3810 L2490 3810 L2941 3162 L2572 3162 Z " />
<glyph glyph-name="Wacute" unicode="&#x1e82;" horiz-adv-x="5476" d="M3731 0 L2937 1946 Q2912 2007 2887 2067.5 Q2862 2128 2836.5 2189 Q2811 2250 2786 2310.5 Q2761 2371 2736 2433 Q2712 2371 2687.5 2310.5 Q2663 2250 2638 2189 Q2613 2128 2588.5 2067.5 Q2564 2007 2540 1946 L1745 0 L1315 0 L33 2966 L496 2966 L1327 963 Q1353 900 1379 837.5 Q1405 775 1431.5 713 Q1458 651 1484 588.5 Q1510 526 1536 463 Q1561 526 1586 588.5 Q1611 651 1636.5 713 Q1662 775 1687 837.5 Q1712 900 1737 963 L2540 2966 L2937 2966 L3748 942 Q3772 879 3797.5 816 Q3823 753 3848.5 690 Q3874 627 3900.5 564 Q3927 501 3953 438 Q3979 501 4005.5 564 Q4032 627 4059 690 Q4086 753 4113 816 Q4140 879 4166 942 L5009 2966 L5444 2966 L4162 0 L3731 0 Z M2536 3162 L2986 3810 L3511 3810 L2904 3162 L2536 3162 Z " />
<glyph glyph-name="Wcircumflex" unicode="&#x174;" horiz-adv-x="5476" d="M3731 0 L2937 1946 Q2912 2007 2887 2067.5 Q2862 2128 2836.5 2189 Q2811 2250 2786 2310.5 Q2761 2371 2736 2433 Q2712 2371 2687.5 2310.5 Q2663 2250 2638 2189 Q2613 2128 2588.5 2067.5 Q2564 2007 2540 1946 L1745 0 L1315 0 L33 2966 L496 2966 L1327 963 Q1353 900 1379 837.5 Q1405 775 1431.5 713 Q1458 651 1484 588.5 Q1510 526 1536 463 Q1561 526 1586 588.5 Q1611 651 1636.5 713 Q1662 775 1687 837.5 Q1712 900 1737 963 L2540 2966 L2937 2966 L3748 942 Q3772 879 3797.5 816 Q3823 753 3848.5 690 Q3874 627 3900.5 564 Q3927 501 3953 438 Q3979 501 4005.5 564 Q4032 627 4059 690 Q4086 753 4113 816 Q4140 879 4166 942 L5009 2966 L5444 2966 L4162 0 L3731 0 Z M3162 3162 L2736 3490 L2310 3162 L1942 3162 L2556 3810 L2916 3810 L3531 3162 L3162 3162 Z " />
<glyph glyph-name="Wdieresis" unicode="&#x1e84;" horiz-adv-x="5476" d="M3731 0 L2937 1946 Q2912 2007 2887 2067.5 Q2862 2128 2836.5 2189 Q2811 2250 2786 2310.5 Q2761 2371 2736 2433 Q2712 2371 2687.5 2310.5 Q2663 2250 2638 2189 Q2613 2128 2588.5 2067.5 Q2564 2007 2540 1946 L1745 0 L1315 0 L33 2966 L496 2966 L1327 963 Q1353 900 1379 837.5 Q1405 775 1431.5 713 Q1458 651 1484 588.5 Q1510 526 1536 463 Q1561 526 1586 588.5 Q1611 651 1636.5 713 Q1662 775 1687 837.5 Q1712 900 1737 963 L2540 2966 L2937 2966 L3748 942 Q3772 879 3797.5 816 Q3823 753 3848.5 690 Q3874 627 3900.5 564 Q3927 501 3953 438 Q3979 501 4005.5 564 Q4032 627 4059 690 Q4086 753 4113 816 Q4140 879 4166 942 L5009 2966 L5444 2966 L4162 0 L3731 0 Z M1983 3281 L1983 3695 L2421 3695 L2421 3281 L1983 3281 Z M3052 3281 L3052 3695 L3490 3695 L3490 3281 L3052 3281 Z " />
<glyph glyph-name="X" unicode="X" horiz-adv-x="3248" d="M2666 0 L1610 1262 L553 0 L49 0 L1364 1532 L143 2966 L676 2966 L1622 1819 L2576 2966 L3080 2966 L1868 1548 L3199 0 L2666 0 Z " />
<glyph glyph-name="Y" unicode="Y" horiz-adv-x="3183" d="M1380 0 L1380 1106 L8 2966 L504 2966 L1593 1446 L2695 2966 L3174 2966 L1802 1110 L1802 0 L1380 0 Z " />
<glyph glyph-name="Ygrave" unicode="&#x1ef2;" horiz-adv-x="3183" d="M1380 0 L1380 1106 L8 2966 L504 2966 L1593 1446 L2695 2966 L3174 2966 L1802 1110 L1802 0 L1380 0 Z M1425 3162 L819 3810 L1343 3810 L1794 3162 L1425 3162 Z " />
<glyph glyph-name="Yacute" unicode="&#xdd;" horiz-adv-x="3183" d="M1380 0 L1380 1106 L8 2966 L504 2966 L1593 1446 L2695 2966 L3174 2966 L1802 1110 L1802 0 L1380 0 Z M1389 3162 L1839 3810 L2364 3810 L1757 3162 L1389 3162 Z " />
<glyph glyph-name="Ycircumflex" unicode="&#x176;" horiz-adv-x="3183" d="M1380 0 L1380 1106 L8 2966 L504 2966 L1593 1446 L2695 2966 L3174 2966 L1802 1110 L1802 0 L1380 0 Z M2015 3162 L1589 3490 L1163 3162 L795 3162 L1409 3810 L1769 3810 L2384 3162 L2015 3162 Z " />
<glyph glyph-name="Ydieresis" unicode="&#x178;" horiz-adv-x="3183" d="M1380 0 L1380 1106 L8 2966 L504 2966 L1593 1446 L2695 2966 L3174 2966 L1802 1110 L1802 0 L1380 0 Z M836 3281 L836 3695 L1274 3695 L1274 3281 L836 3281 Z M1905 3281 L1905 3695 L2343 3695 L2343 3281 L1905 3281 Z " />
<glyph glyph-name="Z" unicode="Z" horiz-adv-x="3117" d="M270 0 L270 324 L2269 2621 L315 2621 L315 2966 L2789 2966 L2789 2642 L795 344 L2847 344 L2847 0 L270 0 Z " />
<glyph glyph-name="Zacute" unicode="&#x179;" horiz-adv-x="3117" d="M270 0 L270 324 L2269 2621 L315 2621 L315 2966 L2789 2966 L2789 2642 L795 344 L2847 344 L2847 0 L270 0 Z M1368 3162 L1818 3810 L2343 3810 L1736 3162 L1368 3162 Z " />
<glyph glyph-name="Zcaron" unicode="&#x17d;" horiz-adv-x="3117" d="M270 0 L270 324 L2269 2621 L315 2621 L315 2966 L2789 2966 L2789 2642 L795 344 L2847 344 L2847 0 L270 0 Z M1389 3162 L775 3810 L1143 3810 L1569 3478 L1995 3810 L2364 3810 L1749 3162 L1389 3162 Z " />
<glyph glyph-name="Zdotaccent" unicode="&#x17b;" horiz-adv-x="3117" d="M270 0 L270 324 L2269 2621 L315 2621 L315 2966 L2789 2966 L2789 2642 L795 344 L2847 344 L2847 0 L270 0 Z M1344 3257 L1344 3703 L1798 3703 L1798 3257 L1344 3257 Z " />
<glyph glyph-name="a" unicode="a" horiz-adv-x="2941" d="M2175 0 L2142 193 Q2065 137 1968 92.5 Q1871 48 1757 16.5 Q1643 -15 1515 -32 Q1387 -49 1249 -49 Q1052 -49 882.5 -10.5 Q713 28 587.5 106.5 Q462 185 390.5 303.5 Q319 422 319 582 Q319 686 351 775 Q383 864 449.5 936 Q516 1008 619.5 1063.5 Q723 1119 866 1156.5 Q1009 1194 1193 1213.5 Q1377 1233 1606 1233 Q1692 1233 1781 1230.5 Q1870 1228 1949 1224.5 Q2028 1221 2109 1217 L2109 1290 Q2109 1419 2069.5 1518.5 Q2030 1618 1945.5 1685.5 Q1861 1753 1729 1788 Q1597 1823 1413 1823 Q1255 1823 1130 1812.5 Q1005 1802 900.5 1782 Q796 1762 704 1733 Q612 1704 520 1667 L520 1982 Q603 2019 698.5 2050 Q794 2081 908 2103 Q1022 2125 1156 2137.5 Q1290 2150 1450 2150 Q1688 2150 1884 2100.5 Q2080 2051 2220.5 1951 Q2361 1851 2438 1699 Q2515 1547 2515 1343 L2515 0 L2175 0 Z M2109 934 L1704 934 Q1441 934 1257.5 915 Q1074 896 958 855.5 Q842 815 789.5 751 Q737 687 737 598 Q737 517 770.5 454 Q804 391 875.5 348.5 Q947 306 1058.5 284 Q1170 262 1327 262 Q1448 262 1560.5 276 Q1673 290 1772 316.5 Q1871 343 1956 381 Q2041 419 2109 467 L2109 934 Z " />
<glyph glyph-name="agrave" unicode="&#xe0;" horiz-adv-x="2941" d="M2175 0 L2142 193 Q2065 137 1968 92.5 Q1871 48 1757 16.5 Q1643 -15 1515 -32 Q1387 -49 1249 -49 Q1052 -49 882.5 -10.5 Q713 28 587.5 106.5 Q462 185 390.5 303.5 Q319 422 319 582 Q319 686 351 775 Q383 864 449.5 936 Q516 1008 619.5 1063.5 Q723 1119 866 1156.5 Q1009 1194 1193 1213.5 Q1377 1233 1606 1233 Q1692 1233 1781 1230.5 Q1870 1228 1949 1224.5 Q2028 1221 2109 1217 L2109 1290 Q2109 1419 2069.5 1518.5 Q2030 1618 1945.5 1685.5 Q1861 1753 1729 1788 Q1597 1823 1413 1823 Q1255 1823 1130 1812.5 Q1005 1802 900.5 1782 Q796 1762 704 1733 Q612 1704 520 1667 L520 1982 Q603 2019 698.5 2050 Q794 2081 908 2103 Q1022 2125 1156 2137.5 Q1290 2150 1450 2150 Q1688 2150 1884 2100.5 Q2080 2051 2220.5 1951 Q2361 1851 2438 1699 Q2515 1547 2515 1343 L2515 0 L2175 0 Z M2109 934 L1704 934 Q1441 934 1257.5 915 Q1074 896 958 855.5 Q842 815 789.5 751 Q737 687 737 598 Q737 517 770.5 454 Q804 391 875.5 348.5 Q947 306 1058.5 284 Q1170 262 1327 262 Q1448 262 1560.5 276 Q1673 290 1772 316.5 Q1871 343 1956 381 Q2041 419 2109 467 L2109 934 Z M1319 2408 L713 3056 L1237 3056 L1688 2408 L1319 2408 Z " />
<glyph glyph-name="aacute" unicode="&#xe1;" horiz-adv-x="2941" d="M2175 0 L2142 193 Q2065 137 1968 92.5 Q1871 48 1757 16.5 Q1643 -15 1515 -32 Q1387 -49 1249 -49 Q1052 -49 882.5 -10.5 Q713 28 587.5 106.5 Q462 185 390.5 303.5 Q319 422 319 582 Q319 686 351 775 Q383 864 449.5 936 Q516 1008 619.5 1063.5 Q723 1119 866 1156.5 Q1009 1194 1193 1213.5 Q1377 1233 1606 1233 Q1692 1233 1781 1230.5 Q1870 1228 1949 1224.5 Q2028 1221 2109 1217 L2109 1290 Q2109 1419 2069.5 1518.5 Q2030 1618 1945.5 1685.5 Q1861 1753 1729 1788 Q1597 1823 1413 1823 Q1255 1823 1130 1812.5 Q1005 1802 900.5 1782 Q796 1762 704 1733 Q612 1704 520 1667 L520 1982 Q603 2019 698.5 2050 Q794 2081 908 2103 Q1022 2125 1156 2137.5 Q1290 2150 1450 2150 Q1688 2150 1884 2100.5 Q2080 2051 2220.5 1951 Q2361 1851 2438 1699 Q2515 1547 2515 1343 L2515 0 L2175 0 Z M2109 934 L1704 934 Q1441 934 1257.5 915 Q1074 896 958 855.5 Q842 815 789.5 751 Q737 687 737 598 Q737 517 770.5 454 Q804 391 875.5 348.5 Q947 306 1058.5 284 Q1170 262 1327 262 Q1448 262 1560.5 276 Q1673 290 1772 316.5 Q1871 343 1956 381 Q2041 419 2109 467 L2109 934 Z M1282 2408 L1732 3056 L2257 3056 L1650 2408 L1282 2408 Z " />
<glyph glyph-name="acircumflex" unicode="&#xe2;" horiz-adv-x="2941" d="M2175 0 L2142 193 Q2065 137 1968 92.5 Q1871 48 1757 16.5 Q1643 -15 1515 -32 Q1387 -49 1249 -49 Q1052 -49 882.5 -10.5 Q713 28 587.5 106.5 Q462 185 390.5 303.5 Q319 422 319 582 Q319 686 351 775 Q383 864 449.5 936 Q516 1008 619.5 1063.5 Q723 1119 866 1156.5 Q1009 1194 1193 1213.5 Q1377 1233 1606 1233 Q1692 1233 1781 1230.5 Q1870 1228 1949 1224.5 Q2028 1221 2109 1217 L2109 1290 Q2109 1419 2069.5 1518.5 Q2030 1618 1945.5 1685.5 Q1861 1753 1729 1788 Q1597 1823 1413 1823 Q1255 1823 1130 1812.5 Q1005 1802 900.5 1782 Q796 1762 704 1733 Q612 1704 520 1667 L520 1982 Q603 2019 698.5 2050 Q794 2081 908 2103 Q1022 2125 1156 2137.5 Q1290 2150 1450 2150 Q1688 2150 1884 2100.5 Q2080 2051 2220.5 1951 Q2361 1851 2438 1699 Q2515 1547 2515 1343 L2515 0 L2175 0 Z M2109 934 L1704 934 Q1441 934 1257.5 915 Q1074 896 958 855.5 Q842 815 789.5 751 Q737 687 737 598 Q737 517 770.5 454 Q804 391 875.5 348.5 Q947 306 1058.5 284 Q1170 262 1327 262 Q1448 262 1560.5 276 Q1673 290 1772 316.5 Q1871 343 1956 381 Q2041 419 2109 467 L2109 934 Z M1909 2408 L1483 2736 L1057 2408 L689 2408 L1303 3056 L1663 3056 L2278 2408 L1909 2408 Z " />
<glyph glyph-name="atilde" unicode="&#xe3;" horiz-adv-x="2941" d="M2175 0 L2142 193 Q2065 137 1968 92.5 Q1871 48 1757 16.5 Q1643 -15 1515 -32 Q1387 -49 1249 -49 Q1052 -49 882.5 -10.5 Q713 28 587.5 106.5 Q462 185 390.5 303.5 Q319 422 319 582 Q319 686 351 775 Q383 864 449.5 936 Q516 1008 619.5 1063.5 Q723 1119 866 1156.5 Q1009 1194 1193 1213.5 Q1377 1233 1606 1233 Q1692 1233 1781 1230.5 Q1870 1228 1949 1224.5 Q2028 1221 2109 1217 L2109 1290 Q2109 1419 2069.5 1518.5 Q2030 1618 1945.5 1685.5 Q1861 1753 1729 1788 Q1597 1823 1413 1823 Q1255 1823 1130 1812.5 Q1005 1802 900.5 1782 Q796 1762 704 1733 Q612 1704 520 1667 L520 1982 Q603 2019 698.5 2050 Q794 2081 908 2103 Q1022 2125 1156 2137.5 Q1290 2150 1450 2150 Q1688 2150 1884 2100.5 Q2080 2051 2220.5 1951 Q2361 1851 2438 1699 Q2515 1547 2515 1343 L2515 0 L2175 0 Z M2109 934 L1704 934 Q1441 934 1257.5 915 Q1074 896 958 855.5 Q842 815 789.5 751 Q737 687 737 598 Q737 517 770.5 454 Q804 391 875.5 348.5 Q947 306 1058.5 284 Q1170 262 1327 262 Q1448 262 1560.5 276 Q1673 290 1772 316.5 Q1871 343 1956 381 Q2041 419 2109 467 L2109 934 Z M2261 2990 Q2261 2887 2235 2790.5 Q2209 2694 2153.5 2619 Q2098 2544 2011 2499 Q1924 2454 1803 2454 Q1730 2454 1667.5 2472 Q1605 2490 1550 2516.5 Q1495 2543 1446.5 2574.5 Q1398 2606 1353 2632.5 Q1308 2659 1265.5 2677 Q1223 2695 1180 2695 Q1135 2695 1102 2680 Q1069 2665 1046 2636.5 Q1023 2608 1009.5 2567 Q996 2526 992 2474 L709 2474 Q709 2577 735 2673.5 Q761 2770 817 2845 Q873 2920 959.5 2965.5 Q1046 3011 1168 3011 Q1241 3011 1303.5 2993 Q1366 2975 1420.5 2948 Q1475 2921 1523.5 2890 Q1572 2859 1617 2832 Q1662 2805 1704.5 2787 Q1747 2769 1790 2769 Q1835 2769 1868 2784 Q1901 2799 1924 2827.5 Q1947 2856 1960.5 2897 Q1974 2938 1979 2990 L2261 2990 Z " />
<glyph glyph-name="adieresis" unicode="&#xe4;" horiz-adv-x="2941" d="M2175 0 L2142 193 Q2065 137 1968 92.5 Q1871 48 1757 16.5 Q1643 -15 1515 -32 Q1387 -49 1249 -49 Q1052 -49 882.5 -10.5 Q713 28 587.5 106.5 Q462 185 390.5 303.5 Q319 422 319 582 Q319 686 351 775 Q383 864 449.5 936 Q516 1008 619.5 1063.5 Q723 1119 866 1156.5 Q1009 1194 1193 1213.5 Q1377 1233 1606 1233 Q1692 1233 1781 1230.5 Q1870 1228 1949 1224.5 Q2028 1221 2109 1217 L2109 1290 Q2109 1419 2069.5 1518.5 Q2030 1618 1945.5 1685.5 Q1861 1753 1729 1788 Q1597 1823 1413 1823 Q1255 1823 1130 1812.5 Q1005 1802 900.5 1782 Q796 1762 704 1733 Q612 1704 520 1667 L520 1982 Q603 2019 698.5 2050 Q794 2081 908 2103 Q1022 2125 1156 2137.5 Q1290 2150 1450 2150 Q1688 2150 1884 2100.5 Q2080 2051 2220.5 1951 Q2361 1851 2438 1699 Q2515 1547 2515 1343 L2515 0 L2175 0 Z M2109 934 L1704 934 Q1441 934 1257.5 915 Q1074 896 958 855.5 Q842 815 789.5 751 Q737 687 737 598 Q737 517 770.5 454 Q804 391 875.5 348.5 Q947 306 1058.5 284 Q1170 262 1327 262 Q1448 262 1560.5 276 Q1673 290 1772 316.5 Q1871 343 1956 381 Q2041 419 2109 467 L2109 934 Z M730 2527 L730 2941 L1168 2941 L1168 2527 L730 2527 Z M1799 2527 L1799 2941 L2237 2941 L2237 2527 L1799 2527 Z " />
<glyph glyph-name="amacron" unicode="&#x101;" horiz-adv-x="2941" d="M2175 0 L2142 193 Q2065 137 1968 92.5 Q1871 48 1757 16.5 Q1643 -15 1515 -32 Q1387 -49 1249 -49 Q1052 -49 882.5 -10.5 Q713 28 587.5 106.5 Q462 185 390.5 303.5 Q319 422 319 582 Q319 686 351 775 Q383 864 449.5 936 Q516 1008 619.5 1063.5 Q723 1119 866 1156.5 Q1009 1194 1193 1213.5 Q1377 1233 1606 1233 Q1692 1233 1781 1230.5 Q1870 1228 1949 1224.5 Q2028 1221 2109 1217 L2109 1290 Q2109 1419 2069.5 1518.5 Q2030 1618 1945.5 1685.5 Q1861 1753 1729 1788 Q1597 1823 1413 1823 Q1255 1823 1130 1812.5 Q1005 1802 900.5 1782 Q796 1762 704 1733 Q612 1704 520 1667 L520 1982 Q603 2019 698.5 2050 Q794 2081 908 2103 Q1022 2125 1156 2137.5 Q1290 2150 1450 2150 Q1688 2150 1884 2100.5 Q2080 2051 2220.5 1951 Q2361 1851 2438 1699 Q2515 1547 2515 1343 L2515 0 L2175 0 Z M2109 934 L1704 934 Q1441 934 1257.5 915 Q1074 896 958 855.5 Q842 815 789.5 751 Q737 687 737 598 Q737 517 770.5 454 Q804 391 875.5 348.5 Q947 306 1058.5 284 Q1170 262 1327 262 Q1448 262 1560.5 276 Q1673 290 1772 316.5 Q1871 343 1956 381 Q2041 419 2109 467 L2109 934 Z M770 2548 L770 2855 L2196 2855 L2196 2548 L770 2548 Z " />
<glyph glyph-name="abreve" unicode="&#x103;" horiz-adv-x="2941" d="M2175 0 L2142 193 Q2065 137 1968 92.5 Q1871 48 1757 16.5 Q1643 -15 1515 -32 Q1387 -49 1249 -49 Q1052 -49 882.5 -10.5 Q713 28 587.5 106.5 Q462 185 390.5 303.5 Q319 422 319 582 Q319 686 351 775 Q383 864 449.5 936 Q516 1008 619.5 1063.5 Q723 1119 866 1156.5 Q1009 1194 1193 1213.5 Q1377 1233 1606 1233 Q1692 1233 1781 1230.5 Q1870 1228 1949 1224.5 Q2028 1221 2109 1217 L2109 1290 Q2109 1419 2069.5 1518.5 Q2030 1618 1945.5 1685.5 Q1861 1753 1729 1788 Q1597 1823 1413 1823 Q1255 1823 1130 1812.5 Q1005 1802 900.5 1782 Q796 1762 704 1733 Q612 1704 520 1667 L520 1982 Q603 2019 698.5 2050 Q794 2081 908 2103 Q1022 2125 1156 2137.5 Q1290 2150 1450 2150 Q1688 2150 1884 2100.5 Q2080 2051 2220.5 1951 Q2361 1851 2438 1699 Q2515 1547 2515 1343 L2515 0 L2175 0 Z M2109 934 L1704 934 Q1441 934 1257.5 915 Q1074 896 958 855.5 Q842 815 789.5 751 Q737 687 737 598 Q737 517 770.5 454 Q804 391 875.5 348.5 Q947 306 1058.5 284 Q1170 262 1327 262 Q1448 262 1560.5 276 Q1673 290 1772 316.5 Q1871 343 1956 381 Q2041 419 2109 467 L2109 934 Z M2196 3056 Q2193 2902 2141.5 2777.5 Q2090 2653 1997.5 2564.5 Q1905 2476 1774.5 2428 Q1644 2380 1483 2380 Q1322 2380 1191.5 2428 Q1061 2476 968.5 2564.5 Q876 2653 824.5 2777.5 Q773 2902 770 3056 L1057 3056 Q1065 2968 1095 2900 Q1125 2832 1178 2785.5 Q1231 2739 1307 2715 Q1383 2691 1483 2691 Q1583 2691 1659 2715 Q1735 2739 1788 2785.5 Q1841 2832 1871 2900 Q1901 2968 1909 3056 L2196 3056 Z " />
<glyph glyph-name="aring" unicode="&#xe5;" horiz-adv-x="2941" d="M2175 0 L2142 193 Q2065 137 1968 92.5 Q1871 48 1757 16.5 Q1643 -15 1515 -32 Q1387 -49 1249 -49 Q1052 -49 882.5 -10.5 Q713 28 587.5 106.5 Q462 185 390.5 303.5 Q319 422 319 582 Q319 686 351 775 Q383 864 449.5 936 Q516 1008 619.5 1063.5 Q723 1119 866 1156.5 Q1009 1194 1193 1213.5 Q1377 1233 1606 1233 Q1692 1233 1781 1230.5 Q1870 1228 1949 1224.5 Q2028 1221 2109 1217 L2109 1290 Q2109 1419 2069.5 1518.5 Q2030 1618 1945.5 1685.5 Q1861 1753 1729 1788 Q1597 1823 1413 1823 Q1255 1823 1130 1812.5 Q1005 1802 900.5 1782 Q796 1762 704 1733 Q612 1704 520 1667 L520 1982 Q603 2019 698.5 2050 Q794 2081 908 2103 Q1022 2125 1156 2137.5 Q1290 2150 1450 2150 Q1688 2150 1884 2100.5 Q2080 2051 2220.5 1951 Q2361 1851 2438 1699 Q2515 1547 2515 1343 L2515 0 L2175 0 Z M2109 934 L1704 934 Q1441 934 1257.5 915 Q1074 896 958 855.5 Q842 815 789.5 751 Q737 687 737 598 Q737 517 770.5 454 Q804 391 875.5 348.5 Q947 306 1058.5 284 Q1170 262 1327 262 Q1448 262 1560.5 276 Q1673 290 1772 316.5 Q1871 343 1956 381 Q2041 419 2109 467 L2109 934 Z M1938 2826 Q1938 2733 1902.5 2653 Q1867 2573 1805.5 2515 Q1744 2457 1661 2424.5 Q1578 2392 1483 2392 Q1389 2392 1306 2424.5 Q1223 2457 1161.5 2515 Q1100 2573 1064.5 2653 Q1029 2733 1029 2826 Q1029 2920 1064.5 2999.5 Q1100 3079 1161.5 3137 Q1223 3195 1306 3227.5 Q1389 3260 1483 3260 Q1578 3260 1661 3227.5 Q1744 3195 1805.5 3137 Q1867 3079 1902.5 2999.5 Q1938 2920 1938 2826 Z M1483 2601 Q1532 2601 1573 2618.5 Q1614 2636 1644 2666.5 Q1674 2697 1691 2738 Q1708 2779 1708 2826 Q1708 2873 1691 2913.5 Q1674 2954 1644 2984.5 Q1614 3015 1573 3033.5 Q1532 3052 1483 3052 Q1434 3052 1393 3033.5 Q1352 3015 1322 2984.5 Q1292 2954 1275 2913.5 Q1258 2873 1258 2826 Q1258 2779 1275 2738 Q1292 2697 1322 2666.5 Q1352 2636 1393 2618.5 Q1434 2601 1483 2601 Z " />
<glyph glyph-name="aogonek" unicode="&#x105;" horiz-adv-x="2941" d="M2515 -860 Q2465 -873 2409 -879 Q2353 -885 2294 -885 Q2168 -885 2078.5 -853 Q1989 -821 1932.5 -769.5 Q1876 -718 1849.5 -651.5 Q1823 -585 1823 -516 Q1823 -435 1853 -362 Q1883 -289 1932.5 -224.5 Q1982 -160 2045.5 -104 Q2109 -48 2175 0 L2142 193 Q2065 137 1968 92.5 Q1871 48 1757 16.5 Q1643 -15 1515 -32 Q1387 -49 1249 -49 Q1052 -49 882.5 -10.5 Q713 28 587.5 106.5 Q462 185 390.5 303.5 Q319 422 319 582 Q319 686 351 775 Q383 864 449.5 936 Q516 1008 619.5 1063.5 Q723 1119 866 1156.5 Q1009 1194 1193 1213.5 Q1377 1233 1606 1233 Q1692 1233 1781 1230.5 Q1870 1228 1949 1224.5 Q2028 1221 2109 1217 L2109 1290 Q2109 1419 2069.5 1518.5 Q2030 1618 1945.5 1685.5 Q1861 1753 1729 1788 Q1597 1823 1413 1823 Q1255 1823 1130 1812.5 Q1005 1802 900.5 1782 Q796 1762 704 1733 Q612 1704 520 1667 L520 1982 Q603 2019 698.5 2050 Q794 2081 908 2103 Q1022 2125 1156 2137.5 Q1290 2150 1450 2150 Q1688 2150 1884 2100.5 Q2080 2051 2220.5 1951 Q2361 1851 2438 1699 Q2515 1547 2515 1343 L2515 0 L2417 0 Q2358 -57 2306 -115 Q2254 -173 2215 -230.5 Q2176 -288 2153 -344.5 Q2130 -401 2130 -455 Q2130 -556 2192 -605.5 Q2254 -655 2367 -655 Q2390 -655 2410.5 -653.5 Q2431 -652 2449 -650 Q2467 -648 2483.5 -645 Q2500 -642 2515 -639 L2515 -860 Z M2109 934 L1704 934 Q1441 934 1257.5 915 Q1074 896 958 855.5 Q842 815 789.5 751 Q737 687 737 598 Q737 517 770.5 454 Q804 391 875.5 348.5 Q947 306 1058.5 284 Q1170 262 1327 262 Q1448 262 1560.5 276 Q1673 290 1772 316.5 Q1871 343 1956 381 Q2041 419 2109 467 L2109 934 Z " />
<glyph glyph-name="ae" unicode="&#xe6;" horiz-adv-x="4694" d="M4297 143 Q4208 102 4103.5 66.5 Q3999 31 3879.5 5.5 Q3760 -20 3625.5 -34.5 Q3491 -49 3342 -49 Q3168 -49 3021 -23.5 Q2874 2 2752 50 Q2630 98 2532 167 Q2434 236 2359 324 Q2275 247 2157 179 Q2039 111 1896 60.5 Q1753 10 1589.5 -19.5 Q1426 -49 1249 -49 Q1052 -49 882.5 -9 Q713 31 587.5 111 Q462 191 390.5 310.5 Q319 430 319 590 Q319 694 351 783.5 Q383 873 449.5 946.5 Q516 1020 619.5 1076.5 Q723 1133 866 1171 Q1009 1209 1193 1229 Q1377 1249 1606 1249 Q1726 1249 1857.5 1244 Q1989 1239 2109 1233 L2109 1290 Q2109 1419 2066 1518.5 Q2023 1618 1936 1685.5 Q1849 1753 1718.5 1788 Q1588 1823 1413 1823 Q1255 1823 1130 1812.5 Q1005 1802 900.5 1782 Q796 1762 704 1733 Q612 1704 520 1667 L520 1982 Q603 2019 698.5 2050 Q794 2081 908 2103 Q1022 2125 1156 2137.5 Q1290 2150 1450 2150 Q1610 2150 1749 2125 Q1888 2100 2003 2051 Q2118 2002 2207.5 1929 Q2297 1856 2359 1761 Q2431 1850 2525 1922 Q2619 1994 2734 2044.5 Q2849 2095 2986 2122.5 Q3123 2150 3281 2150 Q3464 2150 3621 2115.5 Q3778 2081 3907 2016.5 Q4036 1952 4135.5 1860.5 Q4235 1769 4302.5 1655.5 Q4370 1542 4405 1408 Q4440 1274 4440 1126 Q4440 1106 4439.5 1081.5 Q4439 1057 4437.5 1032 Q4436 1007 4434.5 985.5 Q4433 964 4432 950 L2519 950 Q2530 810 2579.5 688 Q2629 566 2729.5 475 Q2830 384 2986.5 331.5 Q3143 279 3367 279 Q3519 279 3648.5 294.5 Q3778 310 3891.5 336 Q4005 362 4105 396 Q4205 430 4297 467 L4297 143 Z M1704 950 Q1441 950 1257.5 929.5 Q1074 909 958 867 Q842 825 789.5 760 Q737 695 737 606 Q737 525 770.5 461 Q804 397 875.5 352.5 Q947 308 1058.5 285 Q1170 262 1327 262 Q1447 262 1572.5 285.5 Q1698 309 1816.5 347.5 Q1935 386 2039 436.5 Q2143 487 2220 541 Q2177 634 2150 735 Q2123 836 2114 950 L1704 950 Z M4043 1262 Q4034 1389 3972.5 1495.5 Q3911 1602 3809.5 1678 Q3708 1754 3573 1796.5 Q3438 1839 3281 1839 Q3123 1839 2987.5 1796.5 Q2852 1754 2750.5 1678 Q2649 1602 2587.5 1495.5 Q2526 1389 2515 1262 L4043 1262 Z " />
<glyph glyph-name="b" unicode="b" horiz-adv-x="3178" d="M471 0 L471 2966 L877 2966 L877 1937 Q952 1985 1044 2024 Q1136 2063 1239.5 2091 Q1343 2119 1455.5 2134.5 Q1568 2150 1683 2150 Q1961 2150 2186 2077 Q2411 2004 2569.5 1864 Q2728 1724 2814 1519.5 Q2900 1315 2900 1053 Q2900 796 2816 592 Q2732 388 2572.5 245.5 Q2413 103 2182.5 27 Q1952 -49 1659 -49 Q1539 -49 1423 -34.5 Q1307 -20 1201.5 8 Q1096 36 1004 77 Q912 118 840 172 L811 0 L471 0 Z M877 467 Q952 419 1035.5 381 Q1119 343 1210 316.5 Q1301 290 1399 276 Q1497 262 1602 262 Q1815 262 1979.5 312.5 Q2144 363 2255.5 462.5 Q2367 562 2424.5 710 Q2482 858 2482 1053 Q2482 1248 2424.5 1394 Q2367 1540 2255.5 1637 Q2144 1734 1979.5 1782.5 Q1815 1831 1602 1831 Q1497 1831 1399 1817 Q1301 1803 1210 1776.5 Q1119 1750 1035.5 1712 Q952 1674 877 1626 L877 467 Z " />
<glyph glyph-name="c" unicode="c" horiz-adv-x="2568" d="M2314 111 Q2239 79 2155 50 Q2071 21 1969 -1 Q1867 -23 1741.5 -36 Q1616 -49 1458 -49 Q1180 -49 961 30 Q742 109 590.5 253 Q439 397 359 600.5 Q279 804 279 1053 Q279 1209 313 1351.5 Q347 1494 415.5 1616 Q484 1738 587.5 1836.5 Q691 1935 830 2004.5 Q969 2074 1144.5 2112 Q1320 2150 1532 2150 Q1638 2150 1743.5 2140.5 Q1849 2131 1946.5 2113.5 Q2044 2096 2129.5 2072 Q2215 2048 2281 2019 L2281 1688 Q2212 1715 2127 1739.5 Q2042 1764 1945.5 1782.5 Q1849 1801 1742.5 1812 Q1636 1823 1524 1823 Q1304 1823 1147.5 1767 Q991 1711 890.5 1609.5 Q790 1508 743 1366.5 Q696 1225 696 1053 Q696 864 753 719.5 Q810 575 915 477 Q1020 379 1168 329 Q1316 279 1499 279 Q1639 279 1758.5 294.5 Q1878 310 1979 334.5 Q2080 359 2163 389.5 Q2246 420 2314 451 L2314 111 Z " />
<glyph glyph-name="cacute" unicode="&#x107;" horiz-adv-x="2568" d="M2314 111 Q2239 79 2155 50 Q2071 21 1969 -1 Q1867 -23 1741.5 -36 Q1616 -49 1458 -49 Q1180 -49 961 30 Q742 109 590.5 253 Q439 397 359 600.5 Q279 804 279 1053 Q279 1209 313 1351.5 Q347 1494 415.5 1616 Q484 1738 587.5 1836.5 Q691 1935 830 2004.5 Q969 2074 1144.5 2112 Q1320 2150 1532 2150 Q1638 2150 1743.5 2140.5 Q1849 2131 1946.5 2113.5 Q2044 2096 2129.5 2072 Q2215 2048 2281 2019 L2281 1688 Q2212 1715 2127 1739.5 Q2042 1764 1945.5 1782.5 Q1849 1801 1742.5 1812 Q1636 1823 1524 1823 Q1304 1823 1147.5 1767 Q991 1711 890.5 1609.5 Q790 1508 743 1366.5 Q696 1225 696 1053 Q696 864 753 719.5 Q810 575 915 477 Q1020 379 1168 329 Q1316 279 1499 279 Q1639 279 1758.5 294.5 Q1878 310 1979 334.5 Q2080 359 2163 389.5 Q2246 420 2314 451 L2314 111 Z M1290 2408 L1740 3056 L2265 3056 L1658 2408 L1290 2408 Z " />
<glyph glyph-name="ccircumflex" unicode="&#x109;" horiz-adv-x="2568" d="M2314 111 Q2239 79 2155 50 Q2071 21 1969 -1 Q1867 -23 1741.5 -36 Q1616 -49 1458 -49 Q1180 -49 961 30 Q742 109 590.5 253 Q439 397 359 600.5 Q279 804 279 1053 Q279 1209 313 1351.5 Q347 1494 415.5 1616 Q484 1738 587.5 1836.5 Q691 1935 830 2004.5 Q969 2074 1144.5 2112 Q1320 2150 1532 2150 Q1638 2150 1743.5 2140.5 Q1849 2131 1946.5 2113.5 Q2044 2096 2129.5 2072 Q2215 2048 2281 2019 L2281 1688 Q2212 1715 2127 1739.5 Q2042 1764 1945.5 1782.5 Q1849 1801 1742.5 1812 Q1636 1823 1524 1823 Q1304 1823 1147.5 1767 Q991 1711 890.5 1609.5 Q790 1508 743 1366.5 Q696 1225 696 1053 Q696 864 753 719.5 Q810 575 915 477 Q1020 379 1168 329 Q1316 279 1499 279 Q1639 279 1758.5 294.5 Q1878 310 1979 334.5 Q2080 359 2163 389.5 Q2246 420 2314 451 L2314 111 Z M1917 2408 L1491 2736 L1065 2408 L697 2408 L1311 3056 L1671 3056 L2286 2408 L1917 2408 Z " />
<glyph glyph-name="ccaron" unicode="&#x10d;" horiz-adv-x="2568" d="M2314 111 Q2239 79 2155 50 Q2071 21 1969 -1 Q1867 -23 1741.5 -36 Q1616 -49 1458 -49 Q1180 -49 961 30 Q742 109 590.5 253 Q439 397 359 600.5 Q279 804 279 1053 Q279 1209 313 1351.5 Q347 1494 415.5 1616 Q484 1738 587.5 1836.5 Q691 1935 830 2004.5 Q969 2074 1144.5 2112 Q1320 2150 1532 2150 Q1638 2150 1743.5 2140.5 Q1849 2131 1946.5 2113.5 Q2044 2096 2129.5 2072 Q2215 2048 2281 2019 L2281 1688 Q2212 1715 2127 1739.5 Q2042 1764 1945.5 1782.5 Q1849 1801 1742.5 1812 Q1636 1823 1524 1823 Q1304 1823 1147.5 1767 Q991 1711 890.5 1609.5 Q790 1508 743 1366.5 Q696 1225 696 1053 Q696 864 753 719.5 Q810 575 915 477 Q1020 379 1168 329 Q1316 279 1499 279 Q1639 279 1758.5 294.5 Q1878 310 1979 334.5 Q2080 359 2163 389.5 Q2246 420 2314 451 L2314 111 Z M1311 2408 L697 3056 L1065 3056 L1491 2724 L1917 3056 L2286 3056 L1671 2408 L1311 2408 Z " />
<glyph glyph-name="cdotaccent" unicode="&#x10b;" horiz-adv-x="2568" d="M2314 111 Q2239 79 2155 50 Q2071 21 1969 -1 Q1867 -23 1741.5 -36 Q1616 -49 1458 -49 Q1180 -49 961 30 Q742 109 590.5 253 Q439 397 359 600.5 Q279 804 279 1053 Q279 1209 313 1351.5 Q347 1494 415.5 1616 Q484 1738 587.5 1836.5 Q691 1935 830 2004.5 Q969 2074 1144.5 2112 Q1320 2150 1532 2150 Q1638 2150 1743.5 2140.5 Q1849 2131 1946.5 2113.5 Q2044 2096 2129.5 2072 Q2215 2048 2281 2019 L2281 1688 Q2212 1715 2127 1739.5 Q2042 1764 1945.5 1782.5 Q1849 1801 1742.5 1812 Q1636 1823 1524 1823 Q1304 1823 1147.5 1767 Q991 1711 890.5 1609.5 Q790 1508 743 1366.5 Q696 1225 696 1053 Q696 864 753 719.5 Q810 575 915 477 Q1020 379 1168 329 Q1316 279 1499 279 Q1639 279 1758.5 294.5 Q1878 310 1979 334.5 Q2080 359 2163 389.5 Q2246 420 2314 451 L2314 111 Z M1266 2503 L1266 2949 L1720 2949 L1720 2503 L1266 2503 Z " />
<glyph glyph-name="ccedilla" unicode="&#xe7;" horiz-adv-x="2568" d="M995 -643 Q1036 -652 1079.5 -658 Q1123 -664 1188 -664 Q1214 -664 1247 -658.5 Q1280 -653 1309.5 -638 Q1339 -623 1359.5 -597.5 Q1380 -572 1380 -532 Q1380 -489 1356 -456.5 Q1332 -424 1293 -400 Q1254 -376 1204 -360.5 Q1154 -345 1102 -336 L1278 -37 Q1041 -14 855.5 73.5 Q670 161 542 302 Q414 443 346.5 633.5 Q279 824 279 1053 Q279 1209 313 1351.5 Q347 1494 415.5 1616 Q484 1738 587.5 1836.5 Q691 1935 830 2004.5 Q969 2074 1144.5 2112 Q1320 2150 1532 2150 Q1638 2150 1743.5 2140.5 Q1849 2131 1946.5 2113.5 Q2044 2096 2129.5 2072 Q2215 2048 2281 2019 L2281 1688 Q2212 1715 2127 1739.5 Q2042 1764 1945.5 1782.5 Q1849 1801 1742.5 1812 Q1636 1823 1524 1823 Q1304 1823 1147.5 1767 Q991 1711 890.5 1609.5 Q790 1508 743 1366.5 Q696 1225 696 1053 Q696 864 753 719.5 Q810 575 915 477 Q1020 379 1168 329 Q1316 279 1499 279 Q1639 279 1758.5 294.5 Q1878 310 1979 334.5 Q2080 359 2163 389.5 Q2246 420 2314 451 L2314 111 Q2240 79 2159 50.5 Q2078 22 1980 0.5 Q1882 -21 1763 -34.5 Q1644 -48 1495 -49 L1401 -246 Q1458 -260 1506.5 -285 Q1555 -310 1590.5 -345.5 Q1626 -381 1646.5 -425.5 Q1667 -470 1667 -524 Q1667 -587 1649.5 -638 Q1632 -689 1601 -729 Q1570 -769 1527.5 -798.5 Q1485 -828 1435 -847 Q1385 -866 1329.5 -875.5 Q1274 -885 1217 -885 Q1155 -885 1100 -876.5 Q1045 -868 995 -856 L995 -643 Z " />
<glyph glyph-name="d" unicode="d" horiz-adv-x="3178" d="M2367 0 L2335 184 Q2260 133 2164.5 90.5 Q2069 48 1961 17 Q1853 -14 1734.5 -31.5 Q1616 -49 1495 -49 Q1217 -49 992.5 24.5 Q768 98 609.5 239 Q451 380 365 585 Q279 790 279 1053 Q279 1309 363 1512.5 Q447 1716 606 1858 Q765 2000 995.5 2075 Q1226 2150 1520 2150 Q1632 2150 1740.5 2137 Q1849 2124 1949 2099.5 Q2049 2075 2138.5 2038.5 Q2228 2002 2302 1954 L2302 2966 L2707 2966 L2707 0 L2367 0 Z M2302 1630 Q2227 1678 2143 1716 Q2059 1754 1968 1780.5 Q1877 1807 1779 1821 Q1681 1835 1577 1835 Q1364 1835 1199.5 1786 Q1035 1737 923 1639 Q811 1541 753.5 1394.5 Q696 1248 696 1053 Q696 858 753.5 710.5 Q811 563 923 464 Q1035 365 1199.5 315.5 Q1364 266 1577 266 Q1681 266 1779 280 Q1877 294 1968 320.5 Q2059 347 2143 385 Q2227 423 2302 471 L2302 1630 Z " />
<glyph glyph-name="dcaron" unicode="&#x10f;" horiz-adv-x="3178" d="M2367 0 L2335 184 Q2260 133 2164.5 90.5 Q2069 48 1961 17 Q1853 -14 1734.5 -31.5 Q1616 -49 1495 -49 Q1217 -49 992.5 24.5 Q768 98 609.5 239 Q451 380 365 585 Q279 790 279 1053 Q279 1309 363 1512.5 Q447 1716 606 1858 Q765 2000 995.5 2075 Q1226 2150 1520 2150 Q1632 2150 1740.5 2137 Q1849 2124 1949 2099.5 Q2049 2075 2138.5 2038.5 Q2228 2002 2302 1954 L2302 2966 L2707 2966 L2707 0 L2367 0 Z M2302 1630 Q2227 1678 2143 1716 Q2059 1754 1968 1780.5 Q1877 1807 1779 1821 Q1681 1835 1577 1835 Q1364 1835 1199.5 1786 Q1035 1737 923 1639 Q811 1541 753.5 1394.5 Q696 1248 696 1053 Q696 858 753.5 710.5 Q811 563 923 464 Q1035 365 1199.5 315.5 Q1364 266 1577 266 Q1681 266 1779 280 Q1877 294 1968 320.5 Q2059 347 2143 385 Q2227 423 2302 471 L2302 1630 Z M3055 2114 L3178 2552 L3076 2966 L3325 2966 Q3376 2966 3420 2951 Q3464 2936 3497 2907.5 Q3530 2879 3548.5 2837.5 Q3567 2796 3567 2744 Q3567 2686 3554.5 2632.5 Q3542 2579 3520.5 2525.5 Q3499 2472 3469 2415 Q3439 2358 3403 2294 L3305 2114 L3055 2114 Z " />
<glyph glyph-name="eth" unicode="&#xf0;" horiz-adv-x="3088" d="M1942 2560 Q2128 2423 2286.5 2258 Q2445 2093 2561.5 1902.5 Q2678 1712 2744 1498 Q2810 1284 2810 1049 Q2810 876 2775.5 727 Q2741 578 2671 456 Q2601 334 2496.5 240 Q2392 146 2251 81.5 Q2110 17 1933.5 -16 Q1757 -49 1544 -49 Q1328 -49 1150.5 -15 Q973 19 832 83 Q691 147 587.5 239 Q484 331 415 447.5 Q346 564 312.5 702.5 Q279 841 279 999 Q279 1155 318 1293 Q357 1431 430.5 1547 Q504 1663 609 1755 Q714 1847 846.5 1911.5 Q979 1976 1136 2010 Q1293 2044 1470 2044 Q1597 2044 1703 2031 Q1809 2018 1896.5 1994 Q1984 1970 2055.5 1937 Q2127 1904 2187 1864 Q2067 2034 1924 2176 Q1781 2318 1614 2433 L860 2146 L860 2417 L1335 2601 Q1215 2663 1087.5 2715.5 Q960 2768 823 2814 L897 3047 Q994 3023 1092.5 2990.5 Q1191 2958 1289 2918.5 Q1387 2879 1484 2832.5 Q1581 2786 1675 2732 L2367 2998 L2367 2724 L1942 2560 Z M1544 266 Q1753 266 1911.5 313 Q2070 360 2177 452.5 Q2284 545 2338 681 Q2392 817 2392 995 Q2392 1173 2338 1310 Q2284 1447 2177 1540 Q2070 1633 1911.5 1681 Q1753 1729 1544 1729 Q1335 1729 1176.5 1682 Q1018 1635 911 1542.5 Q804 1450 750 1313.5 Q696 1177 696 999 Q696 880 720 779.5 Q744 679 792 597.5 Q840 516 911 454 Q982 392 1076.5 350.5 Q1171 309 1288 287.5 Q1405 266 1544 266 Z " />
<glyph glyph-name="dcroat" unicode="&#x111;" horiz-adv-x="3178" d="M2367 0 L2335 184 Q2260 133 2164.5 90.5 Q2069 48 1961 17 Q1853 -14 1734.5 -31.5 Q1616 -49 1495 -49 Q1217 -49 992.5 24.5 Q768 98 609.5 239 Q451 380 365 585 Q279 790 279 1053 Q279 1309 363 1512.5 Q447 1716 606 1858 Q765 2000 995.5 2075 Q1226 2150 1520 2150 Q1632 2150 1740.5 2137 Q1849 2124 1949 2099.5 Q2049 2075 2138.5 2038.5 Q2228 2002 2302 1954 L2302 2413 L1835 2413 L1835 2720 L2302 2720 L2302 2966 L2707 2966 L2707 2720 L3015 2720 L3015 2413 L2707 2413 L2707 0 L2367 0 Z M2302 1630 Q2227 1678 2143 1716 Q2059 1754 1968 1780.5 Q1877 1807 1779 1821 Q1681 1835 1577 1835 Q1364 1835 1199.5 1786 Q1035 1737 923 1639 Q811 1541 753.5 1394.5 Q696 1248 696 1053 Q696 858 753.5 710.5 Q811 563 923 464 Q1035 365 1199.5 315.5 Q1364 266 1577 266 Q1681 266 1779 280 Q1877 294 1968 320.5 Q2059 347 2143 385 Q2227 423 2302 471 L2302 1630 Z " />
<glyph glyph-name="e" unicode="e" horiz-adv-x="2863" d="M2466 143 Q2377 102 2276 66.5 Q2175 31 2057.5 5.5 Q1940 -20 1804.5 -34.5 Q1669 -49 1511 -49 Q1304 -49 1132.5 -11 Q961 27 824 98 Q687 169 585 270 Q483 371 415 496.5 Q347 622 313 769.5 Q279 917 279 1081 Q279 1231 314 1369 Q349 1507 417 1625.5 Q485 1744 585 1841 Q685 1938 815 2006.5 Q945 2075 1104.5 2112.5 Q1264 2150 1450 2150 Q1633 2150 1790 2115.5 Q1947 2081 2076 2016.5 Q2205 1952 2304.5 1860.5 Q2404 1769 2471.5 1655.5 Q2539 1542 2574 1408 Q2609 1274 2609 1126 Q2609 1106 2608.5 1084 Q2608 1062 2606.5 1040.5 Q2605 1019 2603.5 1000 Q2602 981 2601 967 L684 967 Q695 810 753 683 Q811 556 919 466 Q1027 376 1185.5 327.5 Q1344 279 1556 279 Q1708 279 1834.5 294.5 Q1961 310 2070.5 336 Q2180 362 2277 396 Q2374 430 2466 467 L2466 143 Z M2212 1278 Q2198 1402 2135.5 1505.5 Q2073 1609 1972.5 1683 Q1872 1757 1738.5 1798 Q1605 1839 1450 1839 Q1295 1839 1161 1798 Q1027 1757 926 1683 Q825 1609 762.5 1505.5 Q700 1402 688 1278 L2212 1278 Z " />
<glyph glyph-name="egrave" unicode="&#xe8;" horiz-adv-x="2863" d="M2466 143 Q2377 102 2276 66.5 Q2175 31 2057.5 5.5 Q1940 -20 1804.5 -34.5 Q1669 -49 1511 -49 Q1304 -49 1132.5 -11 Q961 27 824 98 Q687 169 585 270 Q483 371 415 496.5 Q347 622 313 769.5 Q279 917 279 1081 Q279 1231 314 1369 Q349 1507 417 1625.5 Q485 1744 585 1841 Q685 1938 815 2006.5 Q945 2075 1104.5 2112.5 Q1264 2150 1450 2150 Q1633 2150 1790 2115.5 Q1947 2081 2076 2016.5 Q2205 1952 2304.5 1860.5 Q2404 1769 2471.5 1655.5 Q2539 1542 2574 1408 Q2609 1274 2609 1126 Q2609 1106 2608.5 1084 Q2608 1062 2606.5 1040.5 Q2605 1019 2603.5 1000 Q2602 981 2601 967 L684 967 Q695 810 753 683 Q811 556 919 466 Q1027 376 1185.5 327.5 Q1344 279 1556 279 Q1708 279 1834.5 294.5 Q1961 310 2070.5 336 Q2180 362 2277 396 Q2374 430 2466 467 L2466 143 Z M2212 1278 Q2198 1402 2135.5 1505.5 Q2073 1609 1972.5 1683 Q1872 1757 1738.5 1798 Q1605 1839 1450 1839 Q1295 1839 1161 1798 Q1027 1757 926 1683 Q825 1609 762.5 1505.5 Q700 1402 688 1278 L2212 1278 Z M1315 2408 L709 3056 L1233 3056 L1684 2408 L1315 2408 Z " />
<glyph glyph-name="eacute" unicode="&#xe9;" horiz-adv-x="2863" d="M2466 143 Q2377 102 2276 66.5 Q2175 31 2057.5 5.5 Q1940 -20 1804.5 -34.5 Q1669 -49 1511 -49 Q1304 -49 1132.5 -11 Q961 27 824 98 Q687 169 585 270 Q483 371 415 496.5 Q347 622 313 769.5 Q279 917 279 1081 Q279 1231 314 1369 Q349 1507 417 1625.5 Q485 1744 585 1841 Q685 1938 815 2006.5 Q945 2075 1104.5 2112.5 Q1264 2150 1450 2150 Q1633 2150 1790 2115.5 Q1947 2081 2076 2016.5 Q2205 1952 2304.5 1860.5 Q2404 1769 2471.5 1655.5 Q2539 1542 2574 1408 Q2609 1274 2609 1126 Q2609 1106 2608.5 1084 Q2608 1062 2606.5 1040.5 Q2605 1019 2603.5 1000 Q2602 981 2601 967 L684 967 Q695 810 753 683 Q811 556 919 466 Q1027 376 1185.5 327.5 Q1344 279 1556 279 Q1708 279 1834.5 294.5 Q1961 310 2070.5 336 Q2180 362 2277 396 Q2374 430 2466 467 L2466 143 Z M2212 1278 Q2198 1402 2135.5 1505.5 Q2073 1609 1972.5 1683 Q1872 1757 1738.5 1798 Q1605 1839 1450 1839 Q1295 1839 1161 1798 Q1027 1757 926 1683 Q825 1609 762.5 1505.5 Q700 1402 688 1278 L2212 1278 Z M1278 2408 L1728 3056 L2253 3056 L1646 2408 L1278 2408 Z " />
<glyph glyph-name="ecircumflex" unicode="&#xea;" horiz-adv-x="2863" d="M2466 143 Q2377 102 2276 66.5 Q2175 31 2057.5 5.5 Q1940 -20 1804.5 -34.5 Q1669 -49 1511 -49 Q1304 -49 1132.5 -11 Q961 27 824 98 Q687 169 585 270 Q483 371 415 496.5 Q347 622 313 769.5 Q279 917 279 1081 Q279 1231 314 1369 Q349 1507 417 1625.5 Q485 1744 585 1841 Q685 1938 815 2006.5 Q945 2075 1104.5 2112.5 Q1264 2150 1450 2150 Q1633 2150 1790 2115.5 Q1947 2081 2076 2016.5 Q2205 1952 2304.5 1860.5 Q2404 1769 2471.5 1655.5 Q2539 1542 2574 1408 Q2609 1274 2609 1126 Q2609 1106 2608.5 1084 Q2608 1062 2606.5 1040.5 Q2605 1019 2603.5 1000 Q2602 981 2601 967 L684 967 Q695 810 753 683 Q811 556 919 466 Q1027 376 1185.5 327.5 Q1344 279 1556 279 Q1708 279 1834.5 294.5 Q1961 310 2070.5 336 Q2180 362 2277 396 Q2374 430 2466 467 L2466 143 Z M2212 1278 Q2198 1402 2135.5 1505.5 Q2073 1609 1972.5 1683 Q1872 1757 1738.5 1798 Q1605 1839 1450 1839 Q1295 1839 1161 1798 Q1027 1757 926 1683 Q825 1609 762.5 1505.5 Q700 1402 688 1278 L2212 1278 Z M1904 2408 L1478 2736 L1052 2408 L684 2408 L1298 3056 L1658 3056 L2273 2408 L1904 2408 Z " />
<glyph glyph-name="ecaron" unicode="&#x11b;" horiz-adv-x="2863" d="M2466 143 Q2377 102 2276 66.5 Q2175 31 2057.5 5.5 Q1940 -20 1804.5 -34.5 Q1669 -49 1511 -49 Q1304 -49 1132.5 -11 Q961 27 824 98 Q687 169 585 270 Q483 371 415 496.5 Q347 622 313 769.5 Q279 917 279 1081 Q279 1231 314 1369 Q349 1507 417 1625.5 Q485 1744 585 1841 Q685 1938 815 2006.5 Q945 2075 1104.5 2112.5 Q1264 2150 1450 2150 Q1633 2150 1790 2115.5 Q1947 2081 2076 2016.5 Q2205 1952 2304.5 1860.5 Q2404 1769 2471.5 1655.5 Q2539 1542 2574 1408 Q2609 1274 2609 1126 Q2609 1106 2608.5 1084 Q2608 1062 2606.5 1040.5 Q2605 1019 2603.5 1000 Q2602 981 2601 967 L684 967 Q695 810 753 683 Q811 556 919 466 Q1027 376 1185.5 327.5 Q1344 279 1556 279 Q1708 279 1834.5 294.5 Q1961 310 2070.5 336 Q2180 362 2277 396 Q2374 430 2466 467 L2466 143 Z M2212 1278 Q2198 1402 2135.5 1505.5 Q2073 1609 1972.5 1683 Q1872 1757 1738.5 1798 Q1605 1839 1450 1839 Q1295 1839 1161 1798 Q1027 1757 926 1683 Q825 1609 762.5 1505.5 Q700 1402 688 1278 L2212 1278 Z M1298 2408 L684 3056 L1052 3056 L1478 2724 L1904 3056 L2273 3056 L1658 2408 L1298 2408 Z " />
<glyph glyph-name="edieresis" unicode="&#xeb;" horiz-adv-x="2863" d="M2466 143 Q2377 102 2276 66.5 Q2175 31 2057.5 5.5 Q1940 -20 1804.5 -34.5 Q1669 -49 1511 -49 Q1304 -49 1132.5 -11 Q961 27 824 98 Q687 169 585 270 Q483 371 415 496.5 Q347 622 313 769.5 Q279 917 279 1081 Q279 1231 314 1369 Q349 1507 417 1625.5 Q485 1744 585 1841 Q685 1938 815 2006.5 Q945 2075 1104.5 2112.5 Q1264 2150 1450 2150 Q1633 2150 1790 2115.5 Q1947 2081 2076 2016.5 Q2205 1952 2304.5 1860.5 Q2404 1769 2471.5 1655.5 Q2539 1542 2574 1408 Q2609 1274 2609 1126 Q2609 1106 2608.5 1084 Q2608 1062 2606.5 1040.5 Q2605 1019 2603.5 1000 Q2602 981 2601 967 L684 967 Q695 810 753 683 Q811 556 919 466 Q1027 376 1185.5 327.5 Q1344 279 1556 279 Q1708 279 1834.5 294.5 Q1961 310 2070.5 336 Q2180 362 2277 396 Q2374 430 2466 467 L2466 143 Z M2212 1278 Q2198 1402 2135.5 1505.5 Q2073 1609 1972.5 1683 Q1872 1757 1738.5 1798 Q1605 1839 1450 1839 Q1295 1839 1161 1798 Q1027 1757 926 1683 Q825 1609 762.5 1505.5 Q700 1402 688 1278 L2212 1278 Z M725 2527 L725 2941 L1163 2941 L1163 2527 L725 2527 Z M1794 2527 L1794 2941 L2232 2941 L2232 2527 L1794 2527 Z " />
<glyph glyph-name="emacron" unicode="&#x113;" horiz-adv-x="2863" d="M2466 143 Q2377 102 2276 66.5 Q2175 31 2057.5 5.5 Q1940 -20 1804.5 -34.5 Q1669 -49 1511 -49 Q1304 -49 1132.5 -11 Q961 27 824 98 Q687 169 585 270 Q483 371 415 496.5 Q347 622 313 769.5 Q279 917 279 1081 Q279 1231 314 1369 Q349 1507 417 1625.5 Q485 1744 585 1841 Q685 1938 815 2006.5 Q945 2075 1104.5 2112.5 Q1264 2150 1450 2150 Q1633 2150 1790 2115.5 Q1947 2081 2076 2016.5 Q2205 1952 2304.5 1860.5 Q2404 1769 2471.5 1655.5 Q2539 1542 2574 1408 Q2609 1274 2609 1126 Q2609 1106 2608.5 1084 Q2608 1062 2606.5 1040.5 Q2605 1019 2603.5 1000 Q2602 981 2601 967 L684 967 Q695 810 753 683 Q811 556 919 466 Q1027 376 1185.5 327.5 Q1344 279 1556 279 Q1708 279 1834.5 294.5 Q1961 310 2070.5 336 Q2180 362 2277 396 Q2374 430 2466 467 L2466 143 Z M2212 1278 Q2198 1402 2135.5 1505.5 Q2073 1609 1972.5 1683 Q1872 1757 1738.5 1798 Q1605 1839 1450 1839 Q1295 1839 1161 1798 Q1027 1757 926 1683 Q825 1609 762.5 1505.5 Q700 1402 688 1278 L2212 1278 Z M765 2548 L765 2855 L2191 2855 L2191 2548 L765 2548 Z " />
<glyph glyph-name="ebreve" unicode="&#x115;" horiz-adv-x="2863" d="M2466 143 Q2377 102 2276 66.5 Q2175 31 2057.5 5.5 Q1940 -20 1804.5 -34.5 Q1669 -49 1511 -49 Q1304 -49 1132.5 -11 Q961 27 824 98 Q687 169 585 270 Q483 371 415 496.5 Q347 622 313 769.5 Q279 917 279 1081 Q279 1231 314 1369 Q349 1507 417 1625.5 Q485 1744 585 1841 Q685 1938 815 2006.5 Q945 2075 1104.5 2112.5 Q1264 2150 1450 2150 Q1633 2150 1790 2115.5 Q1947 2081 2076 2016.5 Q2205 1952 2304.5 1860.5 Q2404 1769 2471.5 1655.5 Q2539 1542 2574 1408 Q2609 1274 2609 1126 Q2609 1106 2608.5 1084 Q2608 1062 2606.5 1040.5 Q2605 1019 2603.5 1000 Q2602 981 2601 967 L684 967 Q695 810 753 683 Q811 556 919 466 Q1027 376 1185.5 327.5 Q1344 279 1556 279 Q1708 279 1834.5 294.5 Q1961 310 2070.5 336 Q2180 362 2277 396 Q2374 430 2466 467 L2466 143 Z M2212 1278 Q2198 1402 2135.5 1505.5 Q2073 1609 1972.5 1683 Q1872 1757 1738.5 1798 Q1605 1839 1450 1839 Q1295 1839 1161 1798 Q1027 1757 926 1683 Q825 1609 762.5 1505.5 Q700 1402 688 1278 L2212 1278 Z M2191 3056 Q2188 2902 2136.5 2777.5 Q2085 2653 1992.5 2564.5 Q1900 2476 1769.5 2428 Q1639 2380 1478 2380 Q1317 2380 1186.5 2428 Q1056 2476 963.5 2564.5 Q871 2653 819.5 2777.5 Q768 2902 765 3056 L1052 3056 Q1060 2968 1090 2900 Q1120 2832 1173 2785.5 Q1226 2739 1302 2715 Q1378 2691 1478 2691 Q1578 2691 1654 2715 Q1730 2739 1783 2785.5 Q1836 2832 1866 2900 Q1896 2968 1904 3056 L2191 3056 Z " />
<glyph glyph-name="edotaccent" unicode="&#x117;" horiz-adv-x="2863" d="M2466 143 Q2377 102 2276 66.5 Q2175 31 2057.5 5.5 Q1940 -20 1804.5 -34.5 Q1669 -49 1511 -49 Q1304 -49 1132.5 -11 Q961 27 824 98 Q687 169 585 270 Q483 371 415 496.5 Q347 622 313 769.5 Q279 917 279 1081 Q279 1231 314 1369 Q349 1507 417 1625.5 Q485 1744 585 1841 Q685 1938 815 2006.5 Q945 2075 1104.5 2112.5 Q1264 2150 1450 2150 Q1633 2150 1790 2115.5 Q1947 2081 2076 2016.5 Q2205 1952 2304.5 1860.5 Q2404 1769 2471.5 1655.5 Q2539 1542 2574 1408 Q2609 1274 2609 1126 Q2609 1106 2608.5 1084 Q2608 1062 2606.5 1040.5 Q2605 1019 2603.5 1000 Q2602 981 2601 967 L684 967 Q695 810 753 683 Q811 556 919 466 Q1027 376 1185.5 327.5 Q1344 279 1556 279 Q1708 279 1834.5 294.5 Q1961 310 2070.5 336 Q2180 362 2277 396 Q2374 430 2466 467 L2466 143 Z M2212 1278 Q2198 1402 2135.5 1505.5 Q2073 1609 1972.5 1683 Q1872 1757 1738.5 1798 Q1605 1839 1450 1839 Q1295 1839 1161 1798 Q1027 1757 926 1683 Q825 1609 762.5 1505.5 Q700 1402 688 1278 L2212 1278 Z M1254 2503 L1254 2949 L1708 2949 L1708 2503 L1254 2503 Z " />
<glyph glyph-name="eogonek" unicode="&#x119;" horiz-adv-x="2863" d="M2466 -860 Q2416 -873 2359.5 -879 Q2303 -885 2245 -885 Q2119 -885 2029.5 -853 Q1940 -821 1883.5 -769.5 Q1827 -718 1800.5 -651.5 Q1774 -585 1774 -516 Q1774 -441 1800.5 -368 Q1827 -295 1871 -227.5 Q1915 -160 1973.5 -99.5 Q2032 -39 2097 12 Q1973 -16 1829 -32.5 Q1685 -49 1511 -49 Q1304 -49 1132.5 -11 Q961 27 824 98 Q687 169 585 270 Q483 371 415 496.5 Q347 622 313 769.5 Q279 917 279 1081 Q279 1231 314 1369 Q349 1507 417 1625.5 Q485 1744 585 1841 Q685 1938 815 2006.5 Q945 2075 1104.5 2112.5 Q1264 2150 1450 2150 Q1633 2150 1790 2115.5 Q1947 2081 2076 2016.5 Q2205 1952 2304.5 1860.5 Q2404 1769 2471.5 1655.5 Q2539 1542 2574 1408 Q2609 1274 2609 1126 Q2609 1106 2608.5 1084 Q2608 1062 2606.5 1040.5 Q2605 1019 2603.5 1000 Q2602 981 2601 967 L684 967 Q695 810 753 683 Q811 556 919 466 Q1027 376 1185.5 327.5 Q1344 279 1556 279 Q1708 279 1834.5 294.5 Q1961 310 2070.5 336 Q2180 362 2277 396 Q2374 430 2466 467 L2466 143 Q2363 48 2290 -35 Q2217 -118 2170.5 -191.5 Q2124 -265 2102.5 -330 Q2081 -395 2081 -455 Q2081 -556 2143 -605.5 Q2205 -655 2318 -655 Q2341 -655 2361.5 -653.5 Q2382 -652 2400 -650 Q2418 -648 2434.5 -645 Q2451 -642 2466 -639 L2466 -860 Z M2212 1278 Q2198 1402 2135.5 1505.5 Q2073 1609 1972.5 1683 Q1872 1757 1738.5 1798 Q1605 1839 1450 1839 Q1295 1839 1161 1798 Q1027 1757 926 1683 Q825 1609 762.5 1505.5 Q700 1402 688 1278 L2212 1278 Z " />
<glyph glyph-name="f" unicode="f" horiz-adv-x="2048" d="M721 0 L721 1782 L119 1782 L119 2101 L721 2101 L721 2241 Q721 2421 775.5 2564 Q830 2707 944.5 2807.5 Q1059 2908 1236 2961.5 Q1413 3015 1659 3015 Q1756 3015 1839 3008.5 Q1922 3002 1993 2990.5 Q2064 2979 2123.5 2963 Q2183 2947 2232 2929 L2232 2609 Q2177 2627 2111 2641.5 Q2045 2656 1972.5 2666 Q1900 2676 1822.5 2681.5 Q1745 2687 1667 2687 Q1517 2687 1413.5 2658 Q1310 2629 1246 2570.5 Q1182 2512 1154 2422.5 Q1126 2333 1126 2212 L1126 2101 L2011 2101 L2011 1782 L1126 1782 L1126 0 L721 0 Z " />
<glyph glyph-name="fi" unicode="&#xfb01;" horiz-adv-x="3396" d="M2519 0 L2519 1782 L1126 1782 L1126 0 L721 0 L721 1782 L119 1782 L119 2101 L721 2101 L721 2241 Q721 2421 775.5 2564 Q830 2707 944.5 2807.5 Q1059 2908 1236 2961.5 Q1413 3015 1659 3015 Q1756 3015 1839 3008.5 Q1922 3002 1993 2990.5 Q2064 2979 2123.5 2963 Q2183 2947 2232 2929 L2232 2609 Q2177 2627 2111 2641.5 Q2045 2656 1972.5 2666 Q1900 2676 1822.5 2681.5 Q1745 2687 1667 2687 Q1517 2687 1413.5 2658 Q1310 2629 1246 2570.5 Q1182 2512 1154 2422.5 Q1126 2333 1126 2212 L1126 2101 L2925 2101 L2925 0 L2519 0 Z M2519 2523 L2519 2966 L2925 2966 L2925 2523 L2519 2523 Z " />
<glyph glyph-name="fl" unicode="&#xfb02;" horiz-adv-x="3641" d="M721 0 L721 1782 L119 1782 L119 2101 L721 2101 L721 2241 Q721 2421 775.5 2564 Q830 2707 944.5 2807.5 Q1059 2908 1236 2961.5 Q1413 3015 1659 3015 Q1756 3015 1839 3008.5 Q1922 3002 1993 2990.5 Q2064 2979 2123.5 2963 Q2183 2947 2232 2929 L2232 2609 Q2177 2627 2111 2641.5 Q2045 2656 1972.5 2666 Q1900 2676 1822.5 2681.5 Q1745 2687 1667 2687 Q1517 2687 1413.5 2658 Q1310 2629 1246 2570.5 Q1182 2512 1154 2422.5 Q1126 2333 1126 2212 L1126 2101 L2011 2101 L2011 1782 L1126 1782 L1126 0 L721 0 Z M3551 16 Q3508 4 3456.5 -7.5 Q3405 -19 3344.5 -28.5 Q3284 -38 3214 -43.5 Q3144 -49 3064 -49 Q2907 -49 2799 -14 Q2691 21 2624.5 89 Q2558 157 2528.5 258.5 Q2499 360 2499 492 L2499 2966 L2904 2966 L2904 541 Q2904 478 2914.5 430.5 Q2925 383 2953.5 351 Q2982 319 3032 303 Q3082 287 3162 287 Q3286 287 3383 298 Q3480 309 3551 328 L3551 16 Z " />
<glyph glyph-name="uniFB00" unicode="&#xfb00;" horiz-adv-x="3932" d="M2605 0 L2605 1782 L1126 1782 L1126 0 L721 0 L721 1782 L119 1782 L119 2101 L721 2101 L721 2241 Q721 2421 775.5 2564 Q830 2707 944.5 2807.5 Q1059 2908 1236 2961.5 Q1413 3015 1659 3015 Q1756 3015 1839 3008.5 Q1922 3002 1993 2990.5 Q2064 2979 2123.5 2963 Q2183 2947 2232 2929 L2232 2609 Q2177 2627 2111 2641.5 Q2045 2656 1972.5 2666 Q1900 2676 1822.5 2681.5 Q1745 2687 1667 2687 Q1517 2687 1413.5 2658 Q1310 2629 1246 2570.5 Q1182 2512 1154 2422.5 Q1126 2333 1126 2212 L1126 2101 L2605 2101 L2605 2241 Q2605 2421 2659.5 2564 Q2714 2707 2828.5 2807.5 Q2943 2908 3120 2961.5 Q3297 3015 3543 3015 Q3640 3015 3723 3008.5 Q3806 3002 3877 2990.5 Q3948 2979 4007.5 2963 Q4067 2947 4116 2929 L4116 2609 Q4061 2627 3995 2641.5 Q3929 2656 3856.5 2666 Q3784 2676 3706.5 2681.5 Q3629 2687 3551 2687 Q3401 2687 3297.5 2658 Q3194 2629 3130.5 2570.5 Q3067 2512 3039 2422.5 Q3011 2333 3011 2212 L3011 2101 L3895 2101 L3895 1782 L3011 1782 L3011 0 L2605 0 Z " />
<glyph glyph-name="uniFB03" unicode="&#xfb03;" horiz-adv-x="5280" d="M4403 0 L4403 1782 L3011 1782 L3011 0 L2605 0 L2605 1782 L1126 1782 L1126 0 L721 0 L721 1782 L119 1782 L119 2101 L721 2101 L721 2241 Q721 2421 775.5 2564 Q830 2707 944.5 2807.5 Q1059 2908 1236 2961.5 Q1413 3015 1659 3015 Q1756 3015 1839 3008.5 Q1922 3002 1993 2990.5 Q2064 2979 2123.5 2963 Q2183 2947 2232 2929 L2232 2609 Q2177 2627 2111 2641.5 Q2045 2656 1972.5 2666 Q1900 2676 1822.5 2681.5 Q1745 2687 1667 2687 Q1517 2687 1413.5 2658 Q1310 2629 1246 2570.5 Q1182 2512 1154 2422.5 Q1126 2333 1126 2212 L1126 2101 L2605 2101 L2605 2241 Q2605 2421 2659.5 2564 Q2714 2707 2828.5 2807.5 Q2943 2908 3120 2961.5 Q3297 3015 3543 3015 Q3640 3015 3723 3008.5 Q3806 3002 3877 2990.5 Q3948 2979 4007.5 2963 Q4067 2947 4116 2929 L4116 2609 Q4061 2627 3995 2641.5 Q3929 2656 3856.5 2666 Q3784 2676 3706.5 2681.5 Q3629 2687 3551 2687 Q3401 2687 3297.5 2658 Q3194 2629 3130.5 2570.5 Q3067 2512 3039 2422.5 Q3011 2333 3011 2212 L3011 2101 L4809 2101 L4809 0 L4403 0 Z M4403 2523 L4403 2966 L4809 2966 L4809 2523 L4403 2523 Z " />
<glyph glyph-name="uniFB04" unicode="&#xfb04;" horiz-adv-x="5526" d="M2605 0 L2605 1782 L1126 1782 L1126 0 L721 0 L721 1782 L119 1782 L119 2101 L721 2101 L721 2241 Q721 2421 775.5 2564 Q830 2707 944.5 2807.5 Q1059 2908 1236 2961.5 Q1413 3015 1659 3015 Q1756 3015 1839 3008.5 Q1922 3002 1993 2990.5 Q2064 2979 2123.5 2963 Q2183 2947 2232 2929 L2232 2609 Q2177 2627 2111 2641.5 Q2045 2656 1972.5 2666 Q1900 2676 1822.5 2681.5 Q1745 2687 1667 2687 Q1517 2687 1413.5 2658 Q1310 2629 1246 2570.5 Q1182 2512 1154 2422.5 Q1126 2333 1126 2212 L1126 2101 L2605 2101 L2605 2241 Q2605 2421 2659.5 2564 Q2714 2707 2828.5 2807.5 Q2943 2908 3120 2961.5 Q3297 3015 3543 3015 Q3640 3015 3723 3008.5 Q3806 3002 3877 2990.5 Q3948 2979 4007.5 2963 Q4067 2947 4116 2929 L4116 2609 Q4061 2627 3995 2641.5 Q3929 2656 3856.5 2666 Q3784 2676 3706.5 2681.5 Q3629 2687 3551 2687 Q3401 2687 3297.5 2658 Q3194 2629 3130.5 2570.5 Q3067 2512 3039 2422.5 Q3011 2333 3011 2212 L3011 2101 L3895 2101 L3895 1782 L3011 1782 L3011 0 L2605 0 Z M5435 16 Q5392 4 5340.5 -7.5 Q5289 -19 5228.5 -28.5 Q5168 -38 5098 -43.5 Q5028 -49 4948 -49 Q4791 -49 4683 -14 Q4575 21 4508.5 89 Q4442 157 4412.5 258.5 Q4383 360 4383 492 L4383 2966 L4788 2966 L4788 541 Q4788 478 4798.5 430.5 Q4809 383 4837.5 351 Q4866 319 4916 303 Q4966 287 5046 287 Q5170 287 5267 298 Q5364 309 5435 328 L5435 16 Z " />
<glyph glyph-name="g" unicode="g" horiz-adv-x="3178" d="M2302 229 Q2225 181 2132 142 Q2039 103 1935.5 75 Q1832 47 1720.5 31.5 Q1609 16 1495 16 Q1217 16 992.5 85.5 Q768 155 609.5 291 Q451 427 365 626 Q279 825 279 1085 Q279 1338 363 1536.5 Q447 1735 606 1871 Q765 2007 995.5 2078.5 Q1226 2150 1520 2150 Q1640 2150 1755 2135 Q1870 2120 1975 2091.5 Q2080 2063 2172.5 2022 Q2265 1981 2339 1929 L2367 2101 L2707 2101 L2707 70 Q2707 -194 2618 -381 Q2529 -568 2364.5 -686 Q2200 -804 1966 -858.5 Q1732 -913 1442 -913 Q1284 -913 1138.5 -901 Q993 -889 867.5 -868 Q742 -847 639 -818.5 Q536 -790 463 -758 L463 -414 Q547 -449 647 -480 Q747 -511 864.5 -533.5 Q982 -556 1119.5 -569 Q1257 -582 1417 -582 Q1623 -582 1787 -550 Q1951 -518 2065.5 -439.5 Q2180 -361 2241 -229.5 Q2302 -98 2302 102 L2302 229 Z M2302 1630 Q2227 1678 2143 1716 Q2059 1754 1968 1780.5 Q1877 1807 1779 1821 Q1681 1835 1577 1835 Q1364 1835 1199.5 1789 Q1035 1743 923 1650 Q811 1557 753.5 1416 Q696 1275 696 1085 Q696 895 753.5 753.5 Q811 612 923 518.5 Q1035 425 1199.5 378.5 Q1364 332 1577 332 Q1681 332 1779 346 Q1877 360 1968 386.5 Q2059 413 2143 451 Q2227 489 2302 537 L2302 1630 Z " />
<glyph glyph-name="gcircumflex" unicode="&#x11d;" horiz-adv-x="3178" d="M2302 229 Q2225 181 2132 142 Q2039 103 1935.5 75 Q1832 47 1720.5 31.5 Q1609 16 1495 16 Q1217 16 992.5 85.5 Q768 155 609.5 291 Q451 427 365 626 Q279 825 279 1085 Q279 1338 363 1536.5 Q447 1735 606 1871 Q765 2007 995.5 2078.5 Q1226 2150 1520 2150 Q1640 2150 1755 2135 Q1870 2120 1975 2091.5 Q2080 2063 2172.5 2022 Q2265 1981 2339 1929 L2367 2101 L2707 2101 L2707 70 Q2707 -194 2618 -381 Q2529 -568 2364.5 -686 Q2200 -804 1966 -858.5 Q1732 -913 1442 -913 Q1284 -913 1138.5 -901 Q993 -889 867.5 -868 Q742 -847 639 -818.5 Q536 -790 463 -758 L463 -414 Q547 -449 647 -480 Q747 -511 864.5 -533.5 Q982 -556 1119.5 -569 Q1257 -582 1417 -582 Q1623 -582 1787 -550 Q1951 -518 2065.5 -439.5 Q2180 -361 2241 -229.5 Q2302 -98 2302 102 L2302 229 Z M2302 1630 Q2227 1678 2143 1716 Q2059 1754 1968 1780.5 Q1877 1807 1779 1821 Q1681 1835 1577 1835 Q1364 1835 1199.5 1789 Q1035 1743 923 1650 Q811 1557 753.5 1416 Q696 1275 696 1085 Q696 895 753.5 753.5 Q811 612 923 518.5 Q1035 425 1199.5 378.5 Q1364 332 1577 332 Q1681 332 1779 346 Q1877 360 1968 386.5 Q2059 413 2143 451 Q2227 489 2302 537 L2302 1630 Z M1917 2408 L1491 2736 L1065 2408 L697 2408 L1311 3056 L1671 3056 L2286 2408 L1917 2408 Z " />
<glyph glyph-name="gbreve" unicode="&#x11f;" horiz-adv-x="3178" d="M2302 229 Q2225 181 2132 142 Q2039 103 1935.5 75 Q1832 47 1720.5 31.5 Q1609 16 1495 16 Q1217 16 992.5 85.5 Q768 155 609.5 291 Q451 427 365 626 Q279 825 279 1085 Q279 1338 363 1536.5 Q447 1735 606 1871 Q765 2007 995.5 2078.5 Q1226 2150 1520 2150 Q1640 2150 1755 2135 Q1870 2120 1975 2091.5 Q2080 2063 2172.5 2022 Q2265 1981 2339 1929 L2367 2101 L2707 2101 L2707 70 Q2707 -194 2618 -381 Q2529 -568 2364.5 -686 Q2200 -804 1966 -858.5 Q1732 -913 1442 -913 Q1284 -913 1138.5 -901 Q993 -889 867.5 -868 Q742 -847 639 -818.5 Q536 -790 463 -758 L463 -414 Q547 -449 647 -480 Q747 -511 864.5 -533.5 Q982 -556 1119.5 -569 Q1257 -582 1417 -582 Q1623 -582 1787 -550 Q1951 -518 2065.5 -439.5 Q2180 -361 2241 -229.5 Q2302 -98 2302 102 L2302 229 Z M2302 1630 Q2227 1678 2143 1716 Q2059 1754 1968 1780.5 Q1877 1807 1779 1821 Q1681 1835 1577 1835 Q1364 1835 1199.5 1789 Q1035 1743 923 1650 Q811 1557 753.5 1416 Q696 1275 696 1085 Q696 895 753.5 753.5 Q811 612 923 518.5 Q1035 425 1199.5 378.5 Q1364 332 1577 332 Q1681 332 1779 346 Q1877 360 1968 386.5 Q2059 413 2143 451 Q2227 489 2302 537 L2302 1630 Z M2204 3056 Q2201 2902 2149.5 2777.5 Q2098 2653 2005.5 2564.5 Q1913 2476 1782.5 2428 Q1652 2380 1491 2380 Q1330 2380 1199.5 2428 Q1069 2476 976.5 2564.5 Q884 2653 832.5 2777.5 Q781 2902 778 3056 L1065 3056 Q1073 2968 1103 2900 Q1133 2832 1186 2785.5 Q1239 2739 1315 2715 Q1391 2691 1491 2691 Q1591 2691 1667 2715 Q1743 2739 1796 2785.5 Q1849 2832 1879 2900 Q1909 2968 1917 3056 L2204 3056 Z " />
<glyph glyph-name="gdotaccent" unicode="&#x121;" horiz-adv-x="3178" d="M2302 229 Q2225 181 2132 142 Q2039 103 1935.5 75 Q1832 47 1720.5 31.5 Q1609 16 1495 16 Q1217 16 992.5 85.5 Q768 155 609.5 291 Q451 427 365 626 Q279 825 279 1085 Q279 1338 363 1536.5 Q447 1735 606 1871 Q765 2007 995.5 2078.5 Q1226 2150 1520 2150 Q1640 2150 1755 2135 Q1870 2120 1975 2091.5 Q2080 2063 2172.5 2022 Q2265 1981 2339 1929 L2367 2101 L2707 2101 L2707 70 Q2707 -194 2618 -381 Q2529 -568 2364.5 -686 Q2200 -804 1966 -858.5 Q1732 -913 1442 -913 Q1284 -913 1138.5 -901 Q993 -889 867.5 -868 Q742 -847 639 -818.5 Q536 -790 463 -758 L463 -414 Q547 -449 647 -480 Q747 -511 864.5 -533.5 Q982 -556 1119.5 -569 Q1257 -582 1417 -582 Q1623 -582 1787 -550 Q1951 -518 2065.5 -439.5 Q2180 -361 2241 -229.5 Q2302 -98 2302 102 L2302 229 Z M2302 1630 Q2227 1678 2143 1716 Q2059 1754 1968 1780.5 Q1877 1807 1779 1821 Q1681 1835 1577 1835 Q1364 1835 1199.5 1789 Q1035 1743 923 1650 Q811 1557 753.5 1416 Q696 1275 696 1085 Q696 895 753.5 753.5 Q811 612 923 518.5 Q1035 425 1199.5 378.5 Q1364 332 1577 332 Q1681 332 1779 346 Q1877 360 1968 386.5 Q2059 413 2143 451 Q2227 489 2302 537 L2302 1630 Z M1266 2503 L1266 2949 L1720 2949 L1720 2503 L1266 2503 Z " />
<glyph glyph-name="gcommaaccent" unicode="&#x123;" horiz-adv-x="3178" d="M2302 229 Q2225 181 2132 142 Q2039 103 1935.5 75 Q1832 47 1720.5 31.5 Q1609 16 1495 16 Q1217 16 992.5 85.5 Q768 155 609.5 291 Q451 427 365 626 Q279 825 279 1085 Q279 1338 363 1536.5 Q447 1735 606 1871 Q765 2007 995.5 2078.5 Q1226 2150 1520 2150 Q1640 2150 1755 2135 Q1870 2120 1975 2091.5 Q2080 2063 2172.5 2022 Q2265 1981 2339 1929 L2367 2101 L2707 2101 L2707 70 Q2707 -194 2618 -381 Q2529 -568 2364.5 -686 Q2200 -804 1966 -858.5 Q1732 -913 1442 -913 Q1284 -913 1138.5 -901 Q993 -889 867.5 -868 Q742 -847 639 -818.5 Q536 -790 463 -758 L463 -414 Q547 -449 647 -480 Q747 -511 864.5 -533.5 Q982 -556 1119.5 -569 Q1257 -582 1417 -582 Q1623 -582 1787 -550 Q1951 -518 2065.5 -439.5 Q2180 -361 2241 -229.5 Q2302 -98 2302 102 L2302 229 Z M2302 1630 Q2227 1678 2143 1716 Q2059 1754 1968 1780.5 Q1877 1807 1779 1821 Q1681 1835 1577 1835 Q1364 1835 1199.5 1789 Q1035 1743 923 1650 Q811 1557 753.5 1416 Q696 1275 696 1085 Q696 895 753.5 753.5 Q811 612 923 518.5 Q1035 425 1199.5 378.5 Q1364 332 1577 332 Q1681 332 1779 346 Q1877 360 1968 386.5 Q2059 413 2143 451 Q2227 489 2302 537 L2302 1630 Z M1458 2335 Q1407 2335 1363 2350 Q1319 2365 1286.5 2393.5 Q1254 2422 1235 2463 Q1216 2504 1216 2556 Q1216 2614 1237 2672 Q1258 2730 1299 2787.5 Q1340 2845 1399.5 2902.5 Q1459 2960 1536 3019 L1720 3158 L1876 3002 L1614 2716 L1708 2335 L1458 2335 Z " />
<glyph glyph-name="h" unicode="h" horiz-adv-x="3174" d="M2343 0 L2343 1274 Q2343 1431 2301 1537.5 Q2259 1644 2175.5 1709 Q2092 1774 1968 1802.5 Q1844 1831 1679 1831 Q1561 1831 1447.5 1813 Q1334 1795 1230.5 1765 Q1127 1735 1037 1695 Q947 1655 877 1610 L877 0 L471 0 L471 2966 L877 2966 L877 1901 Q955 1955 1053.5 2000.5 Q1152 2046 1265.5 2079 Q1379 2112 1505 2131 Q1631 2150 1765 2150 Q1897 2150 2021.5 2133.5 Q2146 2117 2255 2079 Q2364 2041 2455 1980 Q2546 1919 2611 1829 Q2676 1739 2712 1619 Q2748 1499 2748 1343 L2748 0 L2343 0 Z " />
<glyph glyph-name="hcircumflex" unicode="&#x125;" horiz-adv-x="3174" d="M2343 0 L2343 1274 Q2343 1431 2301 1537.5 Q2259 1644 2175.5 1709 Q2092 1774 1968 1802.5 Q1844 1831 1679 1831 Q1561 1831 1447.5 1813 Q1334 1795 1230.5 1765 Q1127 1735 1037 1695 Q947 1655 877 1610 L877 0 L471 0 L471 2966 L877 2966 L877 1901 Q955 1955 1053.5 2000.5 Q1152 2046 1265.5 2079 Q1379 2112 1505 2131 Q1631 2150 1765 2150 Q1897 2150 2021.5 2133.5 Q2146 2117 2255 2079 Q2364 2041 2455 1980 Q2546 1919 2611 1829 Q2676 1739 2712 1619 Q2748 1499 2748 1343 L2748 0 L2343 0 Z M1099 3162 L673 3490 L247 3162 L-121 3162 L493 3810 L853 3810 L1468 3162 L1099 3162 Z " />
<glyph glyph-name="hbar" unicode="&#x127;" horiz-adv-x="3174" d="M2343 0 L2343 1274 Q2343 1431 2301 1537.5 Q2259 1644 2175.5 1709 Q2092 1774 1968 1802.5 Q1844 1831 1679 1831 Q1561 1831 1447.5 1813 Q1334 1795 1230.5 1765 Q1127 1735 1037 1695 Q947 1655 877 1610 L877 0 L471 0 L471 2413 L164 2413 L164 2720 L471 2720 L471 2966 L877 2966 L877 2720 L1343 2720 L1343 2413 L877 2413 L877 1901 Q955 1955 1053.5 2000.5 Q1152 2046 1265.5 2079 Q1379 2112 1505 2131 Q1631 2150 1765 2150 Q1897 2150 2021.5 2133.5 Q2146 2117 2255 2079 Q2364 2041 2455 1980 Q2546 1919 2611 1829 Q2676 1739 2712 1619 Q2748 1499 2748 1343 L2748 0 L2343 0 Z " />
<glyph glyph-name="i" unicode="i" horiz-adv-x="1348" d="M471 0 L471 2101 L877 2101 L877 0 L471 0 Z M471 2523 L471 2966 L877 2966 L877 2523 L471 2523 Z " />
<glyph glyph-name="igrave" unicode="&#xec;" horiz-adv-x="1348" d="M471 0 L471 2101 L877 2101 L877 0 L471 0 Z M509 2408 L-97 3056 L427 3056 L878 2408 L509 2408 Z " />
<glyph glyph-name="iacute" unicode="&#xed;" horiz-adv-x="1348" d="M471 0 L471 2101 L877 2101 L877 0 L471 0 Z M472 2408 L922 3056 L1447 3056 L840 2408 L472 2408 Z " />
<glyph glyph-name="icircumflex" unicode="&#xee;" horiz-adv-x="1348" d="M471 0 L471 2101 L877 2101 L877 0 L471 0 Z M1099 2408 L673 2736 L247 2408 L-121 2408 L493 3056 L853 3056 L1468 2408 L1099 2408 Z " />
<glyph glyph-name="itilde" unicode="&#x129;" horiz-adv-x="1348" d="M471 0 L471 2101 L877 2101 L877 0 L471 0 Z M1451 2990 Q1451 2887 1425 2790.5 Q1399 2694 1343.5 2619 Q1288 2544 1201 2499 Q1114 2454 993 2454 Q920 2454 857.5 2472 Q795 2490 740 2516.5 Q685 2543 636.5 2574.5 Q588 2606 543 2632.5 Q498 2659 455.5 2677 Q413 2695 370 2695 Q325 2695 292 2680 Q259 2665 236 2636.5 Q213 2608 199.5 2567 Q186 2526 182 2474 L-101 2474 Q-101 2577 -75 2673.5 Q-49 2770 7 2845 Q63 2920 149.5 2965.5 Q236 3011 358 3011 Q431 3011 493.5 2993 Q556 2975 610.5 2948 Q665 2921 713.5 2890 Q762 2859 807 2832 Q852 2805 894.5 2787 Q937 2769 980 2769 Q1025 2769 1058 2784 Q1091 2799 1114 2827.5 Q1137 2856 1150.5 2897 Q1164 2938 1169 2990 L1451 2990 Z " />
<glyph glyph-name="idieresis" unicode="&#xef;" horiz-adv-x="1348" d="M471 0 L471 2101 L877 2101 L877 0 L471 0 Z M-80 2527 L-80 2941 L358 2941 L358 2527 L-80 2527 Z M989 2527 L989 2941 L1427 2941 L1427 2527 L989 2527 Z " />
<glyph glyph-name="imacron" unicode="&#x12b;" horiz-adv-x="1348" d="M471 0 L471 2101 L877 2101 L877 0 L471 0 Z M-36 2548 L-36 2855 L1390 2855 L1390 2548 L-36 2548 Z " />
<glyph glyph-name="ibreve" unicode="&#x12d;" horiz-adv-x="1348" d="M471 0 L471 2101 L877 2101 L877 0 L471 0 Z M1390 3056 Q1387 2902 1335.5 2777.5 Q1284 2653 1191.5 2564.5 Q1099 2476 968.5 2428 Q838 2380 677 2380 Q516 2380 385.5 2428 Q255 2476 162.5 2564.5 Q70 2653 18.5 2777.5 Q-33 2902 -36 3056 L251 3056 Q259 2968 289 2900 Q319 2832 372 2785.5 Q425 2739 501 2715 Q577 2691 677 2691 Q777 2691 853 2715 Q929 2739 982 2785.5 Q1035 2832 1065 2900 Q1095 2968 1103 3056 L1390 3056 Z " />
<glyph glyph-name="iogonek" unicode="&#x12f;" horiz-adv-x="1348" d="M918 -860 Q868 -873 811.5 -879 Q755 -885 696 -885 Q570 -885 480.5 -853 Q391 -821 334.5 -769.5 Q278 -718 251.5 -651.5 Q225 -585 225 -516 Q225 -436 255 -363.5 Q285 -291 334.5 -226 Q384 -161 446 -104.5 Q508 -48 573 0 L471 0 L471 2101 L877 2101 L877 0 L819 0 Q761 -57 709 -115 Q657 -173 617.5 -230.5 Q578 -288 555 -344.5 Q532 -401 532 -455 Q532 -556 594 -605.5 Q656 -655 770 -655 Q793 -655 813 -653.5 Q833 -652 851.5 -650 Q870 -648 886.5 -645 Q903 -642 918 -639 L918 -860 Z M471 2523 L471 2966 L877 2966 L877 2523 L471 2523 Z " />
<glyph glyph-name="dotlessi" unicode="&#x131;" horiz-adv-x="1348" d="M471 0 L471 2101 L877 2101 L877 0 L471 0 Z " />
<glyph glyph-name="ij" unicode="&#x133;" horiz-adv-x="2695" d="M471 0 L471 2101 L877 2101 L877 0 L471 0 Z M471 2523 L471 2966 L877 2966 L877 2523 L471 2523 Z M1057 -565 Q1125 -581 1185 -587.5 Q1245 -594 1307 -594 Q1453 -594 1551 -555 Q1649 -516 1708.5 -435 Q1768 -354 1793.5 -229.5 Q1819 -105 1819 66 L1819 2101 L2225 2101 L2225 37 Q2225 -204 2176.5 -382.5 Q2128 -561 2021.5 -679 Q1915 -797 1746 -855 Q1577 -913 1336 -913 Q1297 -913 1259 -911 Q1221 -909 1185.5 -904.5 Q1150 -900 1117.5 -894.5 Q1085 -889 1057 -881 L1057 -565 Z M1819 2523 L1819 2966 L2225 2966 L2225 2523 L1819 2523 Z " />
<glyph glyph-name="j" unicode="j" horiz-adv-x="1348" d="M-291 -565 Q-223 -581 -163 -587.5 Q-103 -594 -41 -594 Q105 -594 203 -555 Q301 -516 360.5 -435 Q420 -354 445.5 -229.5 Q471 -105 471 66 L471 2101 L877 2101 L877 37 Q877 -204 828.5 -382.5 Q780 -561 673.5 -679 Q567 -797 398 -855 Q229 -913 -12 -913 Q-51 -913 -89 -911 Q-127 -909 -162.5 -904.5 Q-198 -900 -230.5 -894.5 Q-263 -889 -291 -881 L-291 -565 Z M471 2523 L471 2966 L877 2966 L877 2523 L471 2523 Z " />
<glyph glyph-name="dotlessj" unicode="&#x237;" horiz-adv-x="1348" d="M-291 -565 Q-223 -581 -163 -587.5 Q-103 -594 -41 -594 Q105 -594 203 -555 Q301 -516 360.5 -435 Q420 -354 445.5 -229.5 Q471 -105 471 66 L471 2101 L877 2101 L877 37 Q877 -204 828.5 -382.5 Q780 -561 673.5 -679 Q567 -797 398 -855 Q229 -913 -12 -913 Q-51 -913 -89 -911 Q-127 -909 -162.5 -904.5 Q-198 -900 -230.5 -894.5 Q-263 -889 -291 -881 L-291 -565 Z " />
<glyph glyph-name="jcircumflex" unicode="&#x135;" horiz-adv-x="1348" d="M-291 -565 Q-223 -581 -163 -587.5 Q-103 -594 -41 -594 Q105 -594 203 -555 Q301 -516 360.5 -435 Q420 -354 445.5 -229.5 Q471 -105 471 66 L471 2101 L877 2101 L877 37 Q877 -204 828.5 -382.5 Q780 -561 673.5 -679 Q567 -797 398 -855 Q229 -913 -12 -913 Q-51 -913 -89 -911 Q-127 -909 -162.5 -904.5 Q-198 -900 -230.5 -894.5 Q-263 -889 -291 -881 L-291 -565 Z M1103 2408 L677 2736 L251 2408 L-117 2408 L497 3056 L857 3056 L1472 2408 L1103 2408 Z " />
<glyph glyph-name="k" unicode="k" horiz-adv-x="2777" d="M2154 0 L877 958 L877 0 L471 0 L471 2966 L877 2966 L877 1180 L2138 2101 L2695 2101 L1524 1257 Q1492 1234 1460 1212 Q1428 1190 1396.5 1167.5 Q1365 1145 1333.5 1122.5 Q1302 1100 1270 1077 Q1301 1056 1330 1035 Q1359 1014 1388.5 993.5 Q1418 973 1447 952 Q1476 931 1507 909 L2769 0 L2154 0 Z " />
<glyph glyph-name="kcommaaccent" unicode="&#x137;" horiz-adv-x="2777" d="M2154 0 L877 958 L877 0 L471 0 L471 2966 L877 2966 L877 1180 L2138 2101 L2695 2101 L1524 1257 Q1492 1234 1460 1212 Q1428 1190 1396.5 1167.5 Q1365 1145 1333.5 1122.5 Q1302 1100 1270 1077 Q1301 1056 1330 1035 Q1359 1014 1388.5 993.5 Q1418 973 1447 952 Q1476 931 1507 909 L2769 0 L2154 0 Z M1229 -983 L1073 -827 L1333 -551 L1241 -172 L1491 -172 Q1542 -172 1586 -187 Q1630 -202 1662.5 -230.5 Q1695 -259 1714 -300 Q1733 -341 1733 -393 Q1733 -450 1712 -506 Q1691 -562 1650 -618 Q1609 -674 1549.5 -729.5 Q1490 -785 1413 -844 L1229 -983 Z " />
<glyph glyph-name="l" unicode="l" horiz-adv-x="1593" d="M1503 16 Q1460 4 1408.5 -7.5 Q1357 -19 1296.5 -28.5 Q1236 -38 1166 -43.5 Q1096 -49 1016 -49 Q859 -49 751 -14 Q643 21 576.5 89 Q510 157 480.5 258.5 Q451 360 451 492 L451 2966 L856 2966 L856 541 Q856 478 866.5 430.5 Q877 383 905.5 351 Q934 319 984 303 Q1034 287 1114 287 Q1238 287 1335 298 Q1432 309 1503 328 L1503 16 Z " />
<glyph glyph-name="lacute" unicode="&#x13a;" horiz-adv-x="1593" d="M1503 16 Q1460 4 1408.5 -7.5 Q1357 -19 1296.5 -28.5 Q1236 -38 1166 -43.5 Q1096 -49 1016 -49 Q859 -49 751 -14 Q643 21 576.5 89 Q510 157 480.5 258.5 Q451 360 451 492 L451 2966 L856 2966 L856 541 Q856 478 866.5 430.5 Q877 383 905.5 351 Q934 319 984 303 Q1034 287 1114 287 Q1238 287 1335 298 Q1432 309 1503 328 L1503 16 Z M452 3162 L902 3810 L1427 3810 L820 3162 L452 3162 Z " />
<glyph glyph-name="lcaron" unicode="&#x13e;" horiz-adv-x="1593" d="M1503 16 Q1460 4 1408.5 -7.5 Q1357 -19 1296.5 -28.5 Q1236 -38 1166 -43.5 Q1096 -49 1016 -49 Q859 -49 751 -14 Q643 21 576.5 89 Q510 157 480.5 258.5 Q451 360 451 492 L451 2966 L856 2966 L856 541 Q856 478 866.5 430.5 Q877 383 905.5 351 Q934 319 984 303 Q1034 287 1114 287 Q1238 287 1335 298 Q1432 309 1503 328 L1503 16 Z M1098 2114 L1221 2552 L1119 2966 L1368 2966 Q1419 2966 1463 2951 Q1507 2936 1540 2907.5 Q1573 2879 1591.5 2837.5 Q1610 2796 1610 2744 Q1610 2686 1597.5 2632.5 Q1585 2579 1563.5 2525.5 Q1542 2472 1512 2415 Q1482 2358 1446 2294 L1348 2114 L1098 2114 Z " />
<glyph glyph-name="lcommaaccent" unicode="&#x13c;" horiz-adv-x="1593" d="M1503 16 Q1460 4 1408.5 -7.5 Q1357 -19 1296.5 -28.5 Q1236 -38 1166 -43.5 Q1096 -49 1016 -49 Q859 -49 751 -14 Q643 21 576.5 89 Q510 157 480.5 258.5 Q451 360 451 492 L451 2966 L856 2966 L856 541 Q856 478 866.5 430.5 Q877 383 905.5 351 Q934 319 984 303 Q1034 287 1114 287 Q1238 287 1335 298 Q1432 309 1503 328 L1503 16 Z M738 -983 L582 -827 L842 -551 L750 -172 L1000 -172 Q1051 -172 1095 -187 Q1139 -202 1171.5 -230.5 Q1204 -259 1223 -300 Q1242 -341 1242 -393 Q1242 -450 1221 -506 Q1200 -562 1159 -618 Q1118 -674 1058.5 -729.5 Q999 -785 922 -844 L738 -983 Z " />
<glyph glyph-name="lslash" unicode="&#x142;" horiz-adv-x="1675" d="M1544 16 Q1501 4 1449.5 -7.5 Q1398 -19 1337.5 -28.5 Q1277 -38 1207 -43.5 Q1137 -49 1057 -49 Q900 -49 792 -14 Q684 21 617.5 89 Q551 157 521.5 258.5 Q492 360 492 492 L492 1065 L213 905 L213 1249 L492 1409 L492 2966 L897 2966 L897 1647 L1360 1917 L1360 1569 L897 1298 L897 541 Q897 478 907.5 430.5 Q918 383 946.5 351 Q975 319 1025 303 Q1075 287 1155 287 Q1279 287 1376 298 Q1473 309 1544 328 L1544 16 Z " />
<glyph glyph-name="ldot" unicode="&#x140;" horiz-adv-x="1757" d="M1503 16 Q1460 4 1408.5 -7.5 Q1357 -19 1296.5 -28.5 Q1236 -38 1166 -43.5 Q1096 -49 1016 -49 Q859 -49 751 -14 Q643 21 576.5 89 Q510 157 480.5 258.5 Q451 360 451 492 L451 2966 L856 2966 L856 541 Q856 478 866.5 430.5 Q877 383 905.5 351 Q934 319 984 303 Q1034 287 1114 287 Q1238 287 1335 298 Q1432 309 1503 328 L1503 16 Z M1262 1257 L1262 1704 L1716 1704 L1716 1257 L1262 1257 Z " />
<glyph glyph-name="m" unicode="m" horiz-adv-x="5042" d="M4211 0 L4211 1274 Q4211 1431 4169 1537.5 Q4127 1644 4043.5 1709 Q3960 1774 3835.5 1802.5 Q3711 1831 3547 1831 Q3424 1831 3305.5 1811.5 Q3187 1792 3079.5 1759.5 Q2972 1727 2880.5 1684 Q2789 1641 2720 1593 Q2732 1538 2740 1475 Q2748 1412 2748 1343 L2748 0 L2343 0 L2343 1274 Q2343 1431 2301 1537.5 Q2259 1644 2175.5 1709 Q2092 1774 1968 1802.5 Q1844 1831 1679 1831 Q1561 1831 1447.5 1813 Q1334 1795 1230.5 1765 Q1127 1735 1037 1695 Q947 1655 877 1610 L877 0 L471 0 L471 2101 L811 2101 L844 1892 Q922 1949 1023.5 1996.5 Q1125 2044 1243.5 2078 Q1362 2112 1493.5 2131 Q1625 2150 1765 2150 Q1896 2150 2019.5 2133 Q2143 2116 2252 2077.5 Q2361 2039 2452 1977.5 Q2543 1916 2609 1827 Q2684 1893 2794.5 1951.5 Q2905 2010 3038.5 2054.5 Q3172 2099 3323.5 2124.5 Q3475 2150 3633 2150 Q3765 2150 3889.5 2133.5 Q4014 2117 4123 2079 Q4232 2041 4323 1980 Q4414 1919 4479 1829 Q4544 1739 4580 1619 Q4616 1499 4616 1343 L4616 0 L4211 0 Z " />
<glyph glyph-name="n" unicode="n" horiz-adv-x="3174" d="M2343 0 L2343 1274 Q2343 1431 2301 1537.5 Q2259 1644 2175.5 1709 Q2092 1774 1968 1802.5 Q1844 1831 1679 1831 Q1561 1831 1447.5 1813 Q1334 1795 1230.5 1765 Q1127 1735 1037 1695 Q947 1655 877 1610 L877 0 L471 0 L471 2101 L811 2101 L844 1892 Q922 1949 1023.5 1996.5 Q1125 2044 1243.5 2078 Q1362 2112 1493.5 2131 Q1625 2150 1765 2150 Q1897 2150 2021.5 2133.5 Q2146 2117 2255 2079 Q2364 2041 2455 1980 Q2546 1919 2611 1829 Q2676 1739 2712 1619 Q2748 1499 2748 1343 L2748 0 L2343 0 Z " />
<glyph glyph-name="nacute" unicode="&#x144;" horiz-adv-x="3174" d="M2343 0 L2343 1274 Q2343 1431 2301 1537.5 Q2259 1644 2175.5 1709 Q2092 1774 1968 1802.5 Q1844 1831 1679 1831 Q1561 1831 1447.5 1813 Q1334 1795 1230.5 1765 Q1127 1735 1037 1695 Q947 1655 877 1610 L877 0 L471 0 L471 2101 L811 2101 L844 1892 Q922 1949 1023.5 1996.5 Q1125 2044 1243.5 2078 Q1362 2112 1493.5 2131 Q1625 2150 1765 2150 Q1897 2150 2021.5 2133.5 Q2146 2117 2255 2079 Q2364 2041 2455 1980 Q2546 1919 2611 1829 Q2676 1739 2712 1619 Q2748 1499 2748 1343 L2748 0 L2343 0 Z M1426 2408 L1876 3056 L2401 3056 L1794 2408 L1426 2408 Z " />
<glyph glyph-name="ncaron" unicode="&#x148;" horiz-adv-x="3174" d="M2343 0 L2343 1274 Q2343 1431 2301 1537.5 Q2259 1644 2175.5 1709 Q2092 1774 1968 1802.5 Q1844 1831 1679 1831 Q1561 1831 1447.5 1813 Q1334 1795 1230.5 1765 Q1127 1735 1037 1695 Q947 1655 877 1610 L877 0 L471 0 L471 2101 L811 2101 L844 1892 Q922 1949 1023.5 1996.5 Q1125 2044 1243.5 2078 Q1362 2112 1493.5 2131 Q1625 2150 1765 2150 Q1897 2150 2021.5 2133.5 Q2146 2117 2255 2079 Q2364 2041 2455 1980 Q2546 1919 2611 1829 Q2676 1739 2712 1619 Q2748 1499 2748 1343 L2748 0 L2343 0 Z M1446 2408 L832 3056 L1200 3056 L1626 2724 L2052 3056 L2421 3056 L1806 2408 L1446 2408 Z " />
<glyph glyph-name="ntilde" unicode="&#xf1;" horiz-adv-x="3174" d="M2343 0 L2343 1274 Q2343 1431 2301 1537.5 Q2259 1644 2175.5 1709 Q2092 1774 1968 1802.5 Q1844 1831 1679 1831 Q1561 1831 1447.5 1813 Q1334 1795 1230.5 1765 Q1127 1735 1037 1695 Q947 1655 877 1610 L877 0 L471 0 L471 2101 L811 2101 L844 1892 Q922 1949 1023.5 1996.5 Q1125 2044 1243.5 2078 Q1362 2112 1493.5 2131 Q1625 2150 1765 2150 Q1897 2150 2021.5 2133.5 Q2146 2117 2255 2079 Q2364 2041 2455 1980 Q2546 1919 2611 1829 Q2676 1739 2712 1619 Q2748 1499 2748 1343 L2748 0 L2343 0 Z M2404 2990 Q2404 2887 2378 2790.5 Q2352 2694 2296.5 2619 Q2241 2544 2154 2499 Q2067 2454 1946 2454 Q1873 2454 1810.5 2472 Q1748 2490 1693 2516.5 Q1638 2543 1589.5 2574.5 Q1541 2606 1496 2632.5 Q1451 2659 1408.5 2677 Q1366 2695 1323 2695 Q1278 2695 1245 2680 Q1212 2665 1189 2636.5 Q1166 2608 1152.5 2567 Q1139 2526 1135 2474 L852 2474 Q852 2577 878 2673.5 Q904 2770 960 2845 Q1016 2920 1102.5 2965.5 Q1189 3011 1311 3011 Q1384 3011 1446.5 2993 Q1509 2975 1563.5 2948 Q1618 2921 1666.5 2890 Q1715 2859 1760 2832 Q1805 2805 1847.5 2787 Q1890 2769 1933 2769 Q1978 2769 2011 2784 Q2044 2799 2067 2827.5 Q2090 2856 2103.5 2897 Q2117 2938 2122 2990 L2404 2990 Z " />
<glyph glyph-name="ncommaaccent" unicode="&#x146;" horiz-adv-x="3174" d="M2343 0 L2343 1274 Q2343 1431 2301 1537.5 Q2259 1644 2175.5 1709 Q2092 1774 1968 1802.5 Q1844 1831 1679 1831 Q1561 1831 1447.5 1813 Q1334 1795 1230.5 1765 Q1127 1735 1037 1695 Q947 1655 877 1610 L877 0 L471 0 L471 2101 L811 2101 L844 1892 Q922 1949 1023.5 1996.5 Q1125 2044 1243.5 2078 Q1362 2112 1493.5 2131 Q1625 2150 1765 2150 Q1897 2150 2021.5 2133.5 Q2146 2117 2255 2079 Q2364 2041 2455 1980 Q2546 1919 2611 1829 Q2676 1739 2712 1619 Q2748 1499 2748 1343 L2748 0 L2343 0 Z M1372 -983 L1216 -827 L1476 -551 L1384 -172 L1634 -172 Q1685 -172 1729 -187 Q1773 -202 1805.5 -230.5 Q1838 -259 1857 -300 Q1876 -341 1876 -393 Q1876 -450 1855 -506 Q1834 -562 1793 -618 Q1752 -674 1692.5 -729.5 Q1633 -785 1556 -844 L1372 -983 Z " />
<glyph glyph-name="napostrophe" unicode="&#x149;" horiz-adv-x="4198" d="M180 1962 L508 2507 L410 2966 L737 2966 Q801 2966 849.5 2955.5 Q898 2945 930.5 2920.5 Q963 2896 979 2855 Q995 2814 995 2753 Q995 2675 964.5 2600 Q934 2525 881.5 2448.5 Q829 2372 758 2291 Q687 2210 606 2118 L463 1962 L180 1962 Z M3367 0 L3367 1274 Q3367 1431 3325 1537.5 Q3283 1644 3199.5 1709 Q3116 1774 2992 1802.5 Q2868 1831 2703 1831 Q2585 1831 2471.5 1813 Q2358 1795 2254.5 1765 Q2151 1735 2061 1695 Q1971 1655 1901 1610 L1901 0 L1495 0 L1495 2101 L1835 2101 L1868 1892 Q1946 1949 2047.5 1996.5 Q2149 2044 2267.5 2078 Q2386 2112 2517.5 2131 Q2649 2150 2789 2150 Q2921 2150 3045.5 2133.5 Q3170 2117 3279 2079 Q3388 2041 3479 1980 Q3570 1919 3635 1829 Q3700 1739 3736 1619 Q3772 1499 3772 1343 L3772 0 L3367 0 Z " />
<glyph glyph-name="o" unicode="o" horiz-adv-x="3088" d="M1544 -49 Q1323 -49 1143 -11 Q963 27 822.5 96.5 Q682 166 579.5 265 Q477 364 410 486.5 Q343 609 311 752 Q279 895 279 1053 Q279 1208 312 1350 Q345 1492 413 1614 Q481 1736 584.5 1835 Q688 1934 828.5 2004 Q969 2074 1147.5 2112 Q1326 2150 1544 2150 Q1765 2150 1945 2112 Q2125 2074 2265.5 2004.5 Q2406 1935 2509 1836 Q2612 1737 2678.5 1614.5 Q2745 1492 2777.5 1349 Q2810 1206 2810 1049 Q2810 893 2777 751 Q2744 609 2676 487 Q2608 365 2504.5 266 Q2401 167 2260.5 97 Q2120 27 1941 -11 Q1762 -49 1544 -49 Z M1544 266 Q1762 266 1922 321.5 Q2082 377 2186.5 479 Q2291 581 2341.5 725.5 Q2392 870 2392 1049 Q2392 1227 2341.5 1372 Q2291 1517 2186.5 1620 Q2082 1723 1922 1779 Q1762 1835 1544 1835 Q1326 1835 1166.5 1779.5 Q1007 1724 902.5 1622 Q798 1520 747 1375.5 Q696 1231 696 1053 Q696 875 747 729.5 Q798 584 902.5 481 Q1007 378 1166.5 322 Q1326 266 1544 266 Z " />
<glyph glyph-name="ograve" unicode="&#xf2;" horiz-adv-x="3088" d="M1544 -49 Q1323 -49 1143 -11 Q963 27 822.5 96.5 Q682 166 579.5 265 Q477 364 410 486.5 Q343 609 311 752 Q279 895 279 1053 Q279 1208 312 1350 Q345 1492 413 1614 Q481 1736 584.5 1835 Q688 1934 828.5 2004 Q969 2074 1147.5 2112 Q1326 2150 1544 2150 Q1765 2150 1945 2112 Q2125 2074 2265.5 2004.5 Q2406 1935 2509 1836 Q2612 1737 2678.5 1614.5 Q2745 1492 2777.5 1349 Q2810 1206 2810 1049 Q2810 893 2777 751 Q2744 609 2676 487 Q2608 365 2504.5 266 Q2401 167 2260.5 97 Q2120 27 1941 -11 Q1762 -49 1544 -49 Z M1544 266 Q1762 266 1922 321.5 Q2082 377 2186.5 479 Q2291 581 2341.5 725.5 Q2392 870 2392 1049 Q2392 1227 2341.5 1372 Q2291 1517 2186.5 1620 Q2082 1723 1922 1779 Q1762 1835 1544 1835 Q1326 1835 1166.5 1779.5 Q1007 1724 902.5 1622 Q798 1520 747 1375.5 Q696 1231 696 1053 Q696 875 747 729.5 Q798 584 902.5 481 Q1007 378 1166.5 322 Q1326 266 1544 266 Z M1384 2408 L778 3056 L1302 3056 L1753 2408 L1384 2408 Z " />
<glyph glyph-name="oacute" unicode="&#xf3;" horiz-adv-x="3088" d="M1544 -49 Q1323 -49 1143 -11 Q963 27 822.5 96.5 Q682 166 579.5 265 Q477 364 410 486.5 Q343 609 311 752 Q279 895 279 1053 Q279 1208 312 1350 Q345 1492 413 1614 Q481 1736 584.5 1835 Q688 1934 828.5 2004 Q969 2074 1147.5 2112 Q1326 2150 1544 2150 Q1765 2150 1945 2112 Q2125 2074 2265.5 2004.5 Q2406 1935 2509 1836 Q2612 1737 2678.5 1614.5 Q2745 1492 2777.5 1349 Q2810 1206 2810 1049 Q2810 893 2777 751 Q2744 609 2676 487 Q2608 365 2504.5 266 Q2401 167 2260.5 97 Q2120 27 1941 -11 Q1762 -49 1544 -49 Z M1544 266 Q1762 266 1922 321.5 Q2082 377 2186.5 479 Q2291 581 2341.5 725.5 Q2392 870 2392 1049 Q2392 1227 2341.5 1372 Q2291 1517 2186.5 1620 Q2082 1723 1922 1779 Q1762 1835 1544 1835 Q1326 1835 1166.5 1779.5 Q1007 1724 902.5 1622 Q798 1520 747 1375.5 Q696 1231 696 1053 Q696 875 747 729.5 Q798 584 902.5 481 Q1007 378 1166.5 322 Q1326 266 1544 266 Z M1348 2408 L1798 3056 L2323 3056 L1716 2408 L1348 2408 Z " />
<glyph glyph-name="ocircumflex" unicode="&#xf4;" horiz-adv-x="3088" d="M1544 -49 Q1323 -49 1143 -11 Q963 27 822.5 96.5 Q682 166 579.5 265 Q477 364 410 486.5 Q343 609 311 752 Q279 895 279 1053 Q279 1208 312 1350 Q345 1492 413 1614 Q481 1736 584.5 1835 Q688 1934 828.5 2004 Q969 2074 1147.5 2112 Q1326 2150 1544 2150 Q1765 2150 1945 2112 Q2125 2074 2265.5 2004.5 Q2406 1935 2509 1836 Q2612 1737 2678.5 1614.5 Q2745 1492 2777.5 1349 Q2810 1206 2810 1049 Q2810 893 2777 751 Q2744 609 2676 487 Q2608 365 2504.5 266 Q2401 167 2260.5 97 Q2120 27 1941 -11 Q1762 -49 1544 -49 Z M1544 266 Q1762 266 1922 321.5 Q2082 377 2186.5 479 Q2291 581 2341.5 725.5 Q2392 870 2392 1049 Q2392 1227 2341.5 1372 Q2291 1517 2186.5 1620 Q2082 1723 1922 1779 Q1762 1835 1544 1835 Q1326 1835 1166.5 1779.5 Q1007 1724 902.5 1622 Q798 1520 747 1375.5 Q696 1231 696 1053 Q696 875 747 729.5 Q798 584 902.5 481 Q1007 378 1166.5 322 Q1326 266 1544 266 Z M1974 2408 L1548 2736 L1122 2408 L754 2408 L1368 3056 L1728 3056 L2343 2408 L1974 2408 Z " />
<glyph glyph-name="otilde" unicode="&#xf5;" horiz-adv-x="3088" d="M1544 -49 Q1323 -49 1143 -11 Q963 27 822.5 96.5 Q682 166 579.5 265 Q477 364 410 486.5 Q343 609 311 752 Q279 895 279 1053 Q279 1208 312 1350 Q345 1492 413 1614 Q481 1736 584.5 1835 Q688 1934 828.5 2004 Q969 2074 1147.5 2112 Q1326 2150 1544 2150 Q1765 2150 1945 2112 Q2125 2074 2265.5 2004.5 Q2406 1935 2509 1836 Q2612 1737 2678.5 1614.5 Q2745 1492 2777.5 1349 Q2810 1206 2810 1049 Q2810 893 2777 751 Q2744 609 2676 487 Q2608 365 2504.5 266 Q2401 167 2260.5 97 Q2120 27 1941 -11 Q1762 -49 1544 -49 Z M1544 266 Q1762 266 1922 321.5 Q2082 377 2186.5 479 Q2291 581 2341.5 725.5 Q2392 870 2392 1049 Q2392 1227 2341.5 1372 Q2291 1517 2186.5 1620 Q2082 1723 1922 1779 Q1762 1835 1544 1835 Q1326 1835 1166.5 1779.5 Q1007 1724 902.5 1622 Q798 1520 747 1375.5 Q696 1231 696 1053 Q696 875 747 729.5 Q798 584 902.5 481 Q1007 378 1166.5 322 Q1326 266 1544 266 Z M2334 2990 Q2334 2887 2308 2790.5 Q2282 2694 2226.5 2619 Q2171 2544 2084 2499 Q1997 2454 1876 2454 Q1803 2454 1740.5 2472 Q1678 2490 1623 2516.5 Q1568 2543 1519.5 2574.5 Q1471 2606 1426 2632.5 Q1381 2659 1338.5 2677 Q1296 2695 1253 2695 Q1208 2695 1175 2680 Q1142 2665 1119 2636.5 Q1096 2608 1082.5 2567 Q1069 2526 1065 2474 L782 2474 Q782 2577 808 2673.5 Q834 2770 890 2845 Q946 2920 1032.5 2965.5 Q1119 3011 1241 3011 Q1314 3011 1376.5 2993 Q1439 2975 1493.5 2948 Q1548 2921 1596.5 2890 Q1645 2859 1690 2832 Q1735 2805 1777.5 2787 Q1820 2769 1863 2769 Q1908 2769 1941 2784 Q1974 2799 1997 2827.5 Q2020 2856 2033.5 2897 Q2047 2938 2052 2990 L2334 2990 Z " />
<glyph glyph-name="odieresis" unicode="&#xf6;" horiz-adv-x="3088" d="M1544 -49 Q1323 -49 1143 -11 Q963 27 822.5 96.5 Q682 166 579.5 265 Q477 364 410 486.5 Q343 609 311 752 Q279 895 279 1053 Q279 1208 312 1350 Q345 1492 413 1614 Q481 1736 584.5 1835 Q688 1934 828.5 2004 Q969 2074 1147.5 2112 Q1326 2150 1544 2150 Q1765 2150 1945 2112 Q2125 2074 2265.5 2004.5 Q2406 1935 2509 1836 Q2612 1737 2678.5 1614.5 Q2745 1492 2777.5 1349 Q2810 1206 2810 1049 Q2810 893 2777 751 Q2744 609 2676 487 Q2608 365 2504.5 266 Q2401 167 2260.5 97 Q2120 27 1941 -11 Q1762 -49 1544 -49 Z M1544 266 Q1762 266 1922 321.5 Q2082 377 2186.5 479 Q2291 581 2341.5 725.5 Q2392 870 2392 1049 Q2392 1227 2341.5 1372 Q2291 1517 2186.5 1620 Q2082 1723 1922 1779 Q1762 1835 1544 1835 Q1326 1835 1166.5 1779.5 Q1007 1724 902.5 1622 Q798 1520 747 1375.5 Q696 1231 696 1053 Q696 875 747 729.5 Q798 584 902.5 481 Q1007 378 1166.5 322 Q1326 266 1544 266 Z M795 2527 L795 2941 L1233 2941 L1233 2527 L795 2527 Z M1864 2527 L1864 2941 L2302 2941 L2302 2527 L1864 2527 Z " />
<glyph glyph-name="omacron" unicode="&#x14d;" horiz-adv-x="3088" d="M1544 -49 Q1323 -49 1143 -11 Q963 27 822.5 96.5 Q682 166 579.5 265 Q477 364 410 486.5 Q343 609 311 752 Q279 895 279 1053 Q279 1208 312 1350 Q345 1492 413 1614 Q481 1736 584.5 1835 Q688 1934 828.5 2004 Q969 2074 1147.5 2112 Q1326 2150 1544 2150 Q1765 2150 1945 2112 Q2125 2074 2265.5 2004.5 Q2406 1935 2509 1836 Q2612 1737 2678.5 1614.5 Q2745 1492 2777.5 1349 Q2810 1206 2810 1049 Q2810 893 2777 751 Q2744 609 2676 487 Q2608 365 2504.5 266 Q2401 167 2260.5 97 Q2120 27 1941 -11 Q1762 -49 1544 -49 Z M1544 266 Q1762 266 1922 321.5 Q2082 377 2186.5 479 Q2291 581 2341.5 725.5 Q2392 870 2392 1049 Q2392 1227 2341.5 1372 Q2291 1517 2186.5 1620 Q2082 1723 1922 1779 Q1762 1835 1544 1835 Q1326 1835 1166.5 1779.5 Q1007 1724 902.5 1622 Q798 1520 747 1375.5 Q696 1231 696 1053 Q696 875 747 729.5 Q798 584 902.5 481 Q1007 378 1166.5 322 Q1326 266 1544 266 Z M835 2548 L835 2855 L2261 2855 L2261 2548 L835 2548 Z " />
<glyph glyph-name="obreve" unicode="&#x14f;" horiz-adv-x="3088" d="M1544 -49 Q1323 -49 1143 -11 Q963 27 822.5 96.5 Q682 166 579.5 265 Q477 364 410 486.5 Q343 609 311 752 Q279 895 279 1053 Q279 1208 312 1350 Q345 1492 413 1614 Q481 1736 584.5 1835 Q688 1934 828.5 2004 Q969 2074 1147.5 2112 Q1326 2150 1544 2150 Q1765 2150 1945 2112 Q2125 2074 2265.5 2004.5 Q2406 1935 2509 1836 Q2612 1737 2678.5 1614.5 Q2745 1492 2777.5 1349 Q2810 1206 2810 1049 Q2810 893 2777 751 Q2744 609 2676 487 Q2608 365 2504.5 266 Q2401 167 2260.5 97 Q2120 27 1941 -11 Q1762 -49 1544 -49 Z M1544 266 Q1762 266 1922 321.5 Q2082 377 2186.5 479 Q2291 581 2341.5 725.5 Q2392 870 2392 1049 Q2392 1227 2341.5 1372 Q2291 1517 2186.5 1620 Q2082 1723 1922 1779 Q1762 1835 1544 1835 Q1326 1835 1166.5 1779.5 Q1007 1724 902.5 1622 Q798 1520 747 1375.5 Q696 1231 696 1053 Q696 875 747 729.5 Q798 584 902.5 481 Q1007 378 1166.5 322 Q1326 266 1544 266 Z M2261 3056 Q2258 2902 2206.5 2777.5 Q2155 2653 2062.5 2564.5 Q1970 2476 1839.5 2428 Q1709 2380 1548 2380 Q1387 2380 1256.5 2428 Q1126 2476 1033.5 2564.5 Q941 2653 889.5 2777.5 Q838 2902 835 3056 L1122 3056 Q1130 2968 1160 2900 Q1190 2832 1243 2785.5 Q1296 2739 1372 2715 Q1448 2691 1548 2691 Q1648 2691 1724 2715 Q1800 2739 1853 2785.5 Q1906 2832 1936 2900 Q1966 2968 1974 3056 L2261 3056 Z " />
<glyph glyph-name="ohungarumlaut" unicode="&#x151;" horiz-adv-x="3088" d="M1544 -49 Q1323 -49 1143 -11 Q963 27 822.5 96.5 Q682 166 579.5 265 Q477 364 410 486.5 Q343 609 311 752 Q279 895 279 1053 Q279 1208 312 1350 Q345 1492 413 1614 Q481 1736 584.5 1835 Q688 1934 828.5 2004 Q969 2074 1147.5 2112 Q1326 2150 1544 2150 Q1765 2150 1945 2112 Q2125 2074 2265.5 2004.5 Q2406 1935 2509 1836 Q2612 1737 2678.5 1614.5 Q2745 1492 2777.5 1349 Q2810 1206 2810 1049 Q2810 893 2777 751 Q2744 609 2676 487 Q2608 365 2504.5 266 Q2401 167 2260.5 97 Q2120 27 1941 -11 Q1762 -49 1544 -49 Z M1544 266 Q1762 266 1922 321.5 Q2082 377 2186.5 479 Q2291 581 2341.5 725.5 Q2392 870 2392 1049 Q2392 1227 2341.5 1372 Q2291 1517 2186.5 1620 Q2082 1723 1922 1779 Q1762 1835 1544 1835 Q1326 1835 1166.5 1779.5 Q1007 1724 902.5 1622 Q798 1520 747 1375.5 Q696 1231 696 1053 Q696 875 747 729.5 Q798 584 902.5 481 Q1007 378 1166.5 322 Q1326 266 1544 266 Z M934 2408 L1220 3056 L1716 3056 L1274 2408 L934 2408 Z M1822 2408 L2109 3056 L2605 3056 L2162 2408 L1822 2408 Z " />
<glyph glyph-name="oslash" unicode="&#xf8;" horiz-adv-x="3088" d="M139 0 L512 332 Q452 402 408 484 Q364 566 335.5 657 Q307 748 293 847.5 Q279 947 279 1053 Q279 1208 312 1350 Q345 1492 413 1614 Q481 1736 584.5 1835 Q688 1934 828.5 2004 Q969 2074 1147.5 2112 Q1326 2150 1544 2150 Q1799 2150 1999 2100 Q2199 2050 2347 1958 L2511 2101 L2949 2101 L2572 1769 Q2633 1697 2678 1614.5 Q2723 1532 2752.5 1441 Q2782 1350 2796 1251.5 Q2810 1153 2810 1049 Q2810 893 2777 751 Q2744 609 2676 487 Q2608 365 2504.5 266 Q2401 167 2260.5 97 Q2120 27 1941 -11 Q1762 -49 1544 -49 Q1286 -49 1087 1 Q888 51 737 143 L578 0 L139 0 Z M1016 389 Q1118 330 1247.5 298 Q1377 266 1544 266 Q1762 266 1922 321.5 Q2082 377 2186.5 479 Q2291 581 2341.5 725.5 Q2392 870 2392 1049 Q2392 1182 2364 1296 Q2336 1410 2277 1503 L1016 389 Z M2068 1708 Q1969 1770 1838.5 1802.5 Q1708 1835 1544 1835 Q1326 1835 1166.5 1779.5 Q1007 1724 902.5 1622 Q798 1520 747 1375.5 Q696 1231 696 1053 Q696 916 724 803 Q752 690 811 594 L2068 1708 Z " />
<glyph glyph-name="oe" unicode="&#x153;" horiz-adv-x="4977" d="M4579 143 Q4490 102 4389 66.5 Q4288 31 4171 5.5 Q4054 -20 3918.5 -34.5 Q3783 -49 3625 -49 Q3431 -49 3271 -14.5 Q3111 20 2982.5 83 Q2854 146 2756 234 Q2658 322 2589 430 Q2520 326 2421.5 238 Q2323 150 2193.5 86 Q2064 22 1902 -13.5 Q1740 -49 1544 -49 Q1323 -49 1143 -11 Q963 27 822.5 96.5 Q682 166 579.5 265 Q477 364 410 486.5 Q343 609 311 752 Q279 895 279 1053 Q279 1208 312 1350 Q345 1492 413 1614 Q481 1736 584.5 1835 Q688 1934 828.5 2004 Q969 2074 1147.5 2112 Q1326 2150 1544 2150 Q1742 2150 1904 2114.5 Q2066 2079 2195 2015.5 Q2324 1952 2422 1865 Q2520 1778 2589 1675 Q2658 1780 2754.5 1867 Q2851 1954 2973.5 2017 Q3096 2080 3244 2115 Q3392 2150 3564 2150 Q3747 2150 3904 2115.5 Q4061 2081 4190 2016.5 Q4319 1952 4418.5 1860.5 Q4518 1769 4585.5 1655.5 Q4653 1542 4688 1408 Q4723 1274 4723 1126 Q4723 1106 4722.5 1084 Q4722 1062 4720.5 1040.5 Q4719 1019 4717.5 1000 Q4716 981 4714 967 L2798 967 Q2808 809 2862.5 681.5 Q2917 554 3022 464.5 Q3127 375 3287 327 Q3447 279 3670 279 Q3822 279 3948.5 294.5 Q4075 310 4184.5 336 Q4294 362 4390.5 396 Q4487 430 4579 467 L4579 143 Z M1544 266 Q1762 266 1922 321.5 Q2082 377 2186.5 479 Q2291 581 2341.5 725.5 Q2392 870 2392 1049 Q2392 1227 2341.5 1372 Q2291 1517 2186.5 1620 Q2082 1723 1922 1779 Q1762 1835 1544 1835 Q1326 1835 1166.5 1779.5 Q1007 1724 902.5 1622 Q798 1520 747 1375.5 Q696 1231 696 1053 Q696 875 747 729.5 Q798 584 902.5 481 Q1007 378 1166.5 322 Q1326 266 1544 266 Z M4325 1278 Q4311 1402 4248.5 1505.5 Q4186 1609 4085.5 1683 Q3985 1757 3852 1798 Q3719 1839 3564 1839 Q3409 1839 3275 1798 Q3141 1757 3040 1683 Q2939 1609 2876.5 1505.5 Q2814 1402 2802 1278 L4325 1278 Z " />
<glyph glyph-name="p" unicode="p" horiz-adv-x="3178" d="M471 -864 L471 2101 L811 2101 L840 1917 Q916 1968 1011.5 2010.5 Q1107 2053 1215.5 2084 Q1324 2115 1442 2132.5 Q1560 2150 1683 2150 Q1961 2150 2186 2077 Q2411 2004 2569.5 1864 Q2728 1724 2814 1519.5 Q2900 1315 2900 1053 Q2900 796 2816 592 Q2732 388 2572.5 245.5 Q2413 103 2182.5 27 Q1952 -49 1659 -49 Q1545 -49 1436 -36 Q1327 -23 1226.5 1.5 Q1126 26 1037.5 62.5 Q949 99 877 147 L877 -864 L471 -864 Z M877 475 Q952 427 1035.5 389 Q1119 351 1210 324.5 Q1301 298 1399 284 Q1497 270 1602 270 Q1815 270 1979.5 319 Q2144 368 2255.5 466 Q2367 564 2424.5 711 Q2482 858 2482 1053 Q2482 1248 2424.5 1395 Q2367 1542 2255.5 1641 Q2144 1740 1979.5 1789.5 Q1815 1839 1602 1839 Q1497 1839 1399 1825 Q1301 1811 1210 1784.5 Q1119 1758 1035.5 1720 Q952 1682 877 1634 L877 475 Z " />
<glyph glyph-name="thorn" unicode="&#xfe;" horiz-adv-x="3174" d="M471 -864 L471 2966 L876 2966 L876 1909 Q919 1943 987.5 1984.5 Q1056 2026 1151.5 2063 Q1247 2100 1371 2125 Q1495 2150 1650 2150 Q1953 2150 2185.5 2068.5 Q2418 1987 2576 1841 Q2734 1695 2815 1494 Q2896 1293 2896 1053 Q2896 893 2859.5 749.5 Q2823 606 2752 483.5 Q2681 361 2575.5 262.5 Q2470 164 2331.5 95 Q2193 26 2022.5 -11.5 Q1852 -49 1650 -49 Q1498 -49 1374.5 -25.5 Q1251 -2 1154.5 33 Q1058 68 988.5 108 Q919 148 876 180 L876 -864 L471 -864 Z M876 471 Q951 423 1035 385 Q1119 347 1210 320.5 Q1301 294 1399 280 Q1497 266 1601 266 Q1815 266 1979 315.5 Q2143 365 2255 464 Q2367 563 2424.5 710.5 Q2482 858 2482 1053 Q2482 1248 2424.5 1394.5 Q2367 1541 2255 1639 Q2143 1737 1979 1786 Q1815 1835 1601 1835 Q1497 1835 1399 1821 Q1301 1807 1210 1780.5 Q1119 1754 1035 1716 Q951 1678 876 1630 L876 471 Z " />
<glyph glyph-name="q" unicode="q" horiz-adv-x="3178" d="M2302 -864 L2302 160 Q2225 114 2132.5 75.5 Q2040 37 1936.5 9.5 Q1833 -18 1721.5 -33.5 Q1610 -49 1495 -49 Q1217 -49 992.5 24.5 Q768 98 609.5 239 Q451 380 365 585 Q279 790 279 1053 Q279 1309 363 1512.5 Q447 1716 606 1858 Q765 2000 995.5 2075 Q1226 2150 1520 2150 Q1640 2150 1755 2135 Q1870 2120 1975 2091 Q2080 2062 2172.5 2020.5 Q2265 1979 2339 1925 L2367 2101 L2707 2101 L2707 -864 L2302 -864 Z M2302 1638 Q2227 1686 2143 1724 Q2059 1762 1968 1788.5 Q1877 1815 1779 1829 Q1681 1843 1577 1843 Q1364 1843 1199.5 1792.5 Q1035 1742 923 1643 Q811 1544 753.5 1396 Q696 1248 696 1053 Q696 858 753.5 711.5 Q811 565 923 468 Q1035 371 1199.5 322.5 Q1364 274 1577 274 Q1681 274 1779 288 Q1877 302 1968 328.5 Q2059 355 2143 393 Q2227 431 2302 479 L2302 1638 Z " />
<glyph glyph-name="r" unicode="r" horiz-adv-x="2138" d="M471 0 L471 2101 L836 2101 L868 1720 Q922 1801 995 1877.5 Q1068 1954 1165 2012.5 Q1262 2071 1384.5 2106.5 Q1507 2142 1659 2142 Q1773 2142 1868.5 2128 Q1964 2114 2032 2089 L2032 1729 Q1987 1741 1937.5 1750 Q1888 1759 1834.5 1765.5 Q1781 1772 1724.5 1775 Q1668 1778 1610 1778 Q1500 1778 1409.5 1758 Q1319 1738 1245 1705.5 Q1171 1673 1112.5 1630 Q1054 1587 1009.5 1541.5 Q965 1496 932 1451 Q899 1406 877 1368 L877 0 L471 0 Z " />
<glyph glyph-name="racute" unicode="&#x155;" horiz-adv-x="2138" d="M471 0 L471 2101 L836 2101 L868 1720 Q922 1801 995 1877.5 Q1068 1954 1165 2012.5 Q1262 2071 1384.5 2106.5 Q1507 2142 1659 2142 Q1773 2142 1868.5 2128 Q1964 2114 2032 2089 L2032 1729 Q1987 1741 1937.5 1750 Q1888 1759 1834.5 1765.5 Q1781 1772 1724.5 1775 Q1668 1778 1610 1778 Q1500 1778 1409.5 1758 Q1319 1738 1245 1705.5 Q1171 1673 1112.5 1630 Q1054 1587 1009.5 1541.5 Q965 1496 932 1451 Q899 1406 877 1368 L877 0 L471 0 Z M1077 2408 L1527 3056 L2052 3056 L1445 2408 L1077 2408 Z " />
<glyph glyph-name="rcaron" unicode="&#x159;" horiz-adv-x="2138" d="M471 0 L471 2101 L836 2101 L868 1720 Q922 1801 995 1877.5 Q1068 1954 1165 2012.5 Q1262 2071 1384.5 2106.5 Q1507 2142 1659 2142 Q1773 2142 1868.5 2128 Q1964 2114 2032 2089 L2032 1729 Q1987 1741 1937.5 1750 Q1888 1759 1834.5 1765.5 Q1781 1772 1724.5 1775 Q1668 1778 1610 1778 Q1500 1778 1409.5 1758 Q1319 1738 1245 1705.5 Q1171 1673 1112.5 1630 Q1054 1587 1009.5 1541.5 Q965 1496 932 1451 Q899 1406 877 1368 L877 0 L471 0 Z M1098 2408 L484 3056 L852 3056 L1278 2724 L1704 3056 L2073 3056 L1458 2408 L1098 2408 Z " />
<glyph glyph-name="rcommaaccent" unicode="&#x157;" horiz-adv-x="2138" d="M471 0 L471 2101 L836 2101 L868 1720 Q922 1801 995 1877.5 Q1068 1954 1165 2012.5 Q1262 2071 1384.5 2106.5 Q1507 2142 1659 2142 Q1773 2142 1868.5 2128 Q1964 2114 2032 2089 L2032 1729 Q1987 1741 1937.5 1750 Q1888 1759 1834.5 1765.5 Q1781 1772 1724.5 1775 Q1668 1778 1610 1778 Q1500 1778 1409.5 1758 Q1319 1738 1245 1705.5 Q1171 1673 1112.5 1630 Q1054 1587 1009.5 1541.5 Q965 1496 932 1451 Q899 1406 877 1368 L877 0 L471 0 Z M435 -983 L279 -827 L539 -551 L447 -172 L697 -172 Q748 -172 792 -187 Q836 -202 868.5 -230.5 Q901 -259 920 -300 Q939 -341 939 -393 Q939 -450 918 -506 Q897 -562 856 -618 Q815 -674 755.5 -729.5 Q696 -785 619 -844 L435 -983 Z " />
<glyph glyph-name="s" unicode="s" horiz-adv-x="2626" d="M328 414 Q373 398 433 381 Q493 364 562.5 348.5 Q632 333 709.5 319.5 Q787 306 867.5 296 Q948 286 1028 280 Q1108 274 1184 274 Q1371 274 1509.5 293.5 Q1648 313 1739.5 351.5 Q1831 390 1876 445.5 Q1921 501 1921 573 Q1921 650 1880 699 Q1839 748 1760 782.5 Q1681 817 1565 842.5 Q1449 868 1298 897 Q1057 942 879.5 992 Q702 1042 586 1114 Q470 1186 413 1288.5 Q356 1391 356 1540 Q356 1680 416.5 1792.5 Q477 1905 604.5 1984.5 Q732 2064 930.5 2107 Q1129 2150 1405 2150 Q1489 2150 1568 2145 Q1647 2140 1720 2130 Q1793 2120 1860.5 2106 Q1928 2092 1988 2075 Q2048 2058 2101.5 2037.5 Q2155 2017 2200 1995 L2200 1679 Q2152 1699 2096 1718 Q2040 1737 1978 1753.5 Q1916 1770 1848 1783.5 Q1780 1797 1708 1806.5 Q1636 1816 1560 1821.5 Q1484 1827 1405 1827 Q1234 1827 1113.5 1809.5 Q993 1792 916.5 1756.5 Q840 1721 805 1668 Q770 1615 770 1544 Q770 1467 811 1418.5 Q852 1370 931 1337 Q1010 1304 1126 1279 Q1242 1254 1393 1225 Q1633 1180 1810 1129.5 Q1987 1079 2103.5 1006 Q2220 933 2277.5 830 Q2335 727 2335 578 Q2335 438 2261 322.5 Q2187 207 2042 124.5 Q1897 42 1681.5 -3.5 Q1466 -49 1184 -49 Q1059 -49 935 -37 Q811 -25 698.5 -4.5 Q586 16 490.5 43.5 Q395 71 328 102 L328 414 Z " />
<glyph glyph-name="sacute" unicode="&#x15b;" horiz-adv-x="2626" d="M328 414 Q373 398 433 381 Q493 364 562.5 348.5 Q632 333 709.5 319.5 Q787 306 867.5 296 Q948 286 1028 280 Q1108 274 1184 274 Q1371 274 1509.5 293.5 Q1648 313 1739.5 351.5 Q1831 390 1876 445.5 Q1921 501 1921 573 Q1921 650 1880 699 Q1839 748 1760 782.5 Q1681 817 1565 842.5 Q1449 868 1298 897 Q1057 942 879.5 992 Q702 1042 586 1114 Q470 1186 413 1288.5 Q356 1391 356 1540 Q356 1680 416.5 1792.5 Q477 1905 604.5 1984.5 Q732 2064 930.5 2107 Q1129 2150 1405 2150 Q1489 2150 1568 2145 Q1647 2140 1720 2130 Q1793 2120 1860.5 2106 Q1928 2092 1988 2075 Q2048 2058 2101.5 2037.5 Q2155 2017 2200 1995 L2200 1679 Q2152 1699 2096 1718 Q2040 1737 1978 1753.5 Q1916 1770 1848 1783.5 Q1780 1797 1708 1806.5 Q1636 1816 1560 1821.5 Q1484 1827 1405 1827 Q1234 1827 1113.5 1809.5 Q993 1792 916.5 1756.5 Q840 1721 805 1668 Q770 1615 770 1544 Q770 1467 811 1418.5 Q852 1370 931 1337 Q1010 1304 1126 1279 Q1242 1254 1393 1225 Q1633 1180 1810 1129.5 Q1987 1079 2103.5 1006 Q2220 933 2277.5 830 Q2335 727 2335 578 Q2335 438 2261 322.5 Q2187 207 2042 124.5 Q1897 42 1681.5 -3.5 Q1466 -49 1184 -49 Q1059 -49 935 -37 Q811 -25 698.5 -4.5 Q586 16 490.5 43.5 Q395 71 328 102 L328 414 Z M1168 2408 L1618 3056 L2143 3056 L1536 2408 L1168 2408 Z " />
<glyph glyph-name="scircumflex" unicode="&#x15d;" horiz-adv-x="2626" d="M328 414 Q373 398 433 381 Q493 364 562.5 348.5 Q632 333 709.5 319.5 Q787 306 867.5 296 Q948 286 1028 280 Q1108 274 1184 274 Q1371 274 1509.5 293.5 Q1648 313 1739.5 351.5 Q1831 390 1876 445.5 Q1921 501 1921 573 Q1921 650 1880 699 Q1839 748 1760 782.5 Q1681 817 1565 842.5 Q1449 868 1298 897 Q1057 942 879.5 992 Q702 1042 586 1114 Q470 1186 413 1288.5 Q356 1391 356 1540 Q356 1680 416.5 1792.5 Q477 1905 604.5 1984.5 Q732 2064 930.5 2107 Q1129 2150 1405 2150 Q1489 2150 1568 2145 Q1647 2140 1720 2130 Q1793 2120 1860.5 2106 Q1928 2092 1988 2075 Q2048 2058 2101.5 2037.5 Q2155 2017 2200 1995 L2200 1679 Q2152 1699 2096 1718 Q2040 1737 1978 1753.5 Q1916 1770 1848 1783.5 Q1780 1797 1708 1806.5 Q1636 1816 1560 1821.5 Q1484 1827 1405 1827 Q1234 1827 1113.5 1809.5 Q993 1792 916.5 1756.5 Q840 1721 805 1668 Q770 1615 770 1544 Q770 1467 811 1418.5 Q852 1370 931 1337 Q1010 1304 1126 1279 Q1242 1254 1393 1225 Q1633 1180 1810 1129.5 Q1987 1079 2103.5 1006 Q2220 933 2277.5 830 Q2335 727 2335 578 Q2335 438 2261 322.5 Q2187 207 2042 124.5 Q1897 42 1681.5 -3.5 Q1466 -49 1184 -49 Q1059 -49 935 -37 Q811 -25 698.5 -4.5 Q586 16 490.5 43.5 Q395 71 328 102 L328 414 Z M1794 2408 L1368 2736 L942 2408 L574 2408 L1188 3056 L1548 3056 L2163 2408 L1794 2408 Z " />
<glyph glyph-name="scaron" unicode="&#x161;" horiz-adv-x="2626" d="M328 414 Q373 398 433 381 Q493 364 562.5 348.5 Q632 333 709.5 319.5 Q787 306 867.5 296 Q948 286 1028 280 Q1108 274 1184 274 Q1371 274 1509.5 293.5 Q1648 313 1739.5 351.5 Q1831 390 1876 445.5 Q1921 501 1921 573 Q1921 650 1880 699 Q1839 748 1760 782.5 Q1681 817 1565 842.5 Q1449 868 1298 897 Q1057 942 879.5 992 Q702 1042 586 1114 Q470 1186 413 1288.5 Q356 1391 356 1540 Q356 1680 416.5 1792.5 Q477 1905 604.5 1984.5 Q732 2064 930.5 2107 Q1129 2150 1405 2150 Q1489 2150 1568 2145 Q1647 2140 1720 2130 Q1793 2120 1860.5 2106 Q1928 2092 1988 2075 Q2048 2058 2101.5 2037.5 Q2155 2017 2200 1995 L2200 1679 Q2152 1699 2096 1718 Q2040 1737 1978 1753.5 Q1916 1770 1848 1783.5 Q1780 1797 1708 1806.5 Q1636 1816 1560 1821.5 Q1484 1827 1405 1827 Q1234 1827 1113.5 1809.5 Q993 1792 916.5 1756.5 Q840 1721 805 1668 Q770 1615 770 1544 Q770 1467 811 1418.5 Q852 1370 931 1337 Q1010 1304 1126 1279 Q1242 1254 1393 1225 Q1633 1180 1810 1129.5 Q1987 1079 2103.5 1006 Q2220 933 2277.5 830 Q2335 727 2335 578 Q2335 438 2261 322.5 Q2187 207 2042 124.5 Q1897 42 1681.5 -3.5 Q1466 -49 1184 -49 Q1059 -49 935 -37 Q811 -25 698.5 -4.5 Q586 16 490.5 43.5 Q395 71 328 102 L328 414 Z M1188 2408 L574 3056 L942 3056 L1368 2724 L1794 3056 L2163 3056 L1548 2408 L1188 2408 Z " />
<glyph glyph-name="scedilla" unicode="&#x15f;" horiz-adv-x="2626" d="M836 -643 Q876 -652 919.5 -658 Q963 -664 1028 -664 Q1054 -664 1087.5 -658.5 Q1121 -653 1150.5 -638 Q1180 -623 1200.5 -597.5 Q1221 -572 1221 -532 Q1221 -489 1197 -456.5 Q1173 -424 1133.5 -400 Q1094 -376 1044 -360.5 Q994 -345 942 -336 L1114 -49 Q997 -46 883.5 -33 Q770 -20 667.5 0.5 Q565 21 478 47 Q391 73 328 102 L328 414 Q373 398 433 381 Q493 364 562.5 348.5 Q632 333 709.5 319.5 Q787 306 867.5 296 Q948 286 1028 280 Q1108 274 1184 274 Q1371 274 1509.5 293.5 Q1648 313 1739.5 351.5 Q1831 390 1876 445.5 Q1921 501 1921 573 Q1921 650 1880 699 Q1839 748 1760 782.5 Q1681 817 1565 842.5 Q1449 868 1298 897 Q1057 942 879.5 992 Q702 1042 586 1114 Q470 1186 413 1288.5 Q356 1391 356 1540 Q356 1680 416.5 1792.5 Q477 1905 604.5 1984.5 Q732 2064 930.5 2107 Q1129 2150 1405 2150 Q1489 2150 1568 2145 Q1647 2140 1720 2130 Q1793 2120 1860.5 2106 Q1928 2092 1988 2075 Q2048 2058 2101.5 2037.5 Q2155 2017 2200 1995 L2200 1679 Q2152 1699 2096 1718 Q2040 1737 1978 1753.5 Q1916 1770 1848 1783.5 Q1780 1797 1708 1806.5 Q1636 1816 1560 1821.5 Q1484 1827 1405 1827 Q1234 1827 1113.5 1809.5 Q993 1792 916.5 1756.5 Q840 1721 805 1668 Q770 1615 770 1544 Q770 1467 811 1418.5 Q852 1370 931 1337 Q1010 1304 1126 1279 Q1242 1254 1393 1225 Q1633 1180 1810 1129.5 Q1987 1079 2103.5 1006 Q2220 933 2277.5 830 Q2335 727 2335 578 Q2335 447 2271 338 Q2207 229 2081.5 148 Q1956 67 1769.5 17 Q1583 -33 1339 -45 L1241 -246 Q1298 -260 1346.5 -285 Q1395 -310 1431 -345.5 Q1467 -381 1487 -425.5 Q1507 -470 1507 -524 Q1507 -618 1469 -686 Q1431 -754 1368 -798.5 Q1305 -843 1224 -864 Q1143 -885 1057 -885 Q995 -885 940 -876.5 Q885 -868 836 -856 L836 -643 Z " />
<glyph glyph-name="scommaaccent" unicode="&#x219;" horiz-adv-x="2626" d="M328 414 Q373 398 433 381 Q493 364 562.5 348.5 Q632 333 709.5 319.5 Q787 306 867.5 296 Q948 286 1028 280 Q1108 274 1184 274 Q1371 274 1509.5 293.5 Q1648 313 1739.5 351.5 Q1831 390 1876 445.5 Q1921 501 1921 573 Q1921 650 1880 699 Q1839 748 1760 782.5 Q1681 817 1565 842.5 Q1449 868 1298 897 Q1057 942 879.5 992 Q702 1042 586 1114 Q470 1186 413 1288.5 Q356 1391 356 1540 Q356 1680 416.5 1792.5 Q477 1905 604.5 1984.5 Q732 2064 930.5 2107 Q1129 2150 1405 2150 Q1489 2150 1568 2145 Q1647 2140 1720 2130 Q1793 2120 1860.5 2106 Q1928 2092 1988 2075 Q2048 2058 2101.5 2037.5 Q2155 2017 2200 1995 L2200 1679 Q2152 1699 2096 1718 Q2040 1737 1978 1753.5 Q1916 1770 1848 1783.5 Q1780 1797 1708 1806.5 Q1636 1816 1560 1821.5 Q1484 1827 1405 1827 Q1234 1827 1113.5 1809.5 Q993 1792 916.5 1756.5 Q840 1721 805 1668 Q770 1615 770 1544 Q770 1467 811 1418.5 Q852 1370 931 1337 Q1010 1304 1126 1279 Q1242 1254 1393 1225 Q1633 1180 1810 1129.5 Q1987 1079 2103.5 1006 Q2220 933 2277.5 830 Q2335 727 2335 578 Q2335 438 2261 322.5 Q2187 207 2042 124.5 Q1897 42 1681.5 -3.5 Q1466 -49 1184 -49 Q1059 -49 935 -37 Q811 -25 698.5 -4.5 Q586 16 490.5 43.5 Q395 71 328 102 L328 414 Z M1094 -983 L938 -827 L1198 -551 L1106 -172 L1356 -172 Q1407 -172 1451 -187 Q1495 -202 1527.5 -230.5 Q1560 -259 1579 -300 Q1598 -341 1598 -393 Q1598 -450 1577 -506 Q1556 -562 1515 -618 Q1474 -674 1414.5 -729.5 Q1355 -785 1278 -844 L1094 -983 Z " />
<glyph glyph-name="germandbls" unicode="&#xdf;" horiz-adv-x="3252" d="M1335 406 Q1409 377 1495 352.5 Q1581 328 1672.5 310.5 Q1764 293 1858.5 283.5 Q1953 274 2044 274 Q2204 274 2325 295 Q2446 316 2527.5 361.5 Q2609 407 2650 479.5 Q2691 552 2691 655 Q2691 727 2664.5 788 Q2638 849 2590 901.5 Q2542 954 2475 1000 Q2408 1046 2328 1086.5 Q2248 1127 2157 1164 Q2066 1201 1970 1237 L1335 1475 L1335 1753 L1569 1810 Q1673 1836 1772 1862 Q1871 1888 1958.5 1918.5 Q2046 1949 2119 1987 Q2192 2025 2244.5 2073.5 Q2297 2122 2326 2184.5 Q2355 2247 2355 2327 Q2355 2425 2299.5 2495.5 Q2244 2566 2147 2611 Q2050 2656 1922.5 2677.5 Q1795 2699 1634 2699 Q1445 2699 1300.5 2653 Q1156 2607 1062 2513 Q968 2419 922.5 2277.5 Q877 2136 877 1946 L877 0 L471 0 L471 1995 Q471 2163 506.5 2303.5 Q542 2444 610.5 2557.5 Q679 2671 779 2756.5 Q879 2842 1008.5 2899.5 Q1138 2957 1295 2986 Q1452 3015 1634 3015 Q1808 3015 1949 2997 Q2090 2979 2216.5 2942.5 Q2343 2906 2443.5 2851 Q2544 2796 2616 2721.5 Q2688 2647 2726.5 2552.5 Q2765 2458 2765 2343 Q2765 2196 2699 2078 Q2633 1960 2516.5 1869 Q2400 1778 2244.5 1714 Q2089 1650 1908 1610 L1888 1606 L2208 1491 Q2352 1439 2474.5 1387.5 Q2597 1336 2697 1280 Q2797 1224 2873 1160.5 Q2949 1097 3000.5 1020.5 Q3052 944 3078.5 851 Q3105 758 3105 643 Q3105 529 3074.5 433.5 Q3044 338 2984 261 Q2924 184 2835.5 126 Q2747 68 2630.5 29 Q2514 -10 2370 -29.5 Q2226 -49 2056 -49 Q1961 -49 1864.5 -40.5 Q1768 -32 1675.5 -15.5 Q1583 1 1496.5 25.5 Q1410 50 1335 82 L1335 406 Z " />
<glyph glyph-name="t" unicode="t" horiz-adv-x="2187" d="M1974 53 Q1917 32 1850 13 Q1783 -6 1705.5 -19.5 Q1628 -33 1540.5 -41 Q1453 -49 1356 -49 Q1165 -49 1022.5 -12.5 Q880 24 784.5 103.5 Q689 183 641.5 308 Q594 433 594 610 L594 1782 L139 1782 L139 2101 L610 2101 L659 2626 L995 2626 L995 2101 L2007 2101 L2007 1782 L995 1782 L995 664 Q995 555 1023.5 481 Q1052 407 1111 362 Q1170 317 1261.5 298 Q1353 279 1479 279 Q1549 279 1616.5 285.5 Q1684 292 1746.5 304 Q1809 316 1866 332.5 Q1923 349 1974 369 L1974 53 Z " />
<glyph glyph-name="tcaron" unicode="&#x165;" horiz-adv-x="2187" d="M1974 53 Q1917 32 1850 13 Q1783 -6 1705.5 -19.5 Q1628 -33 1540.5 -41 Q1453 -49 1356 -49 Q1165 -49 1022.5 -12.5 Q880 24 784.5 103.5 Q689 183 641.5 308 Q594 433 594 610 L594 1782 L139 1782 L139 2101 L610 2101 L659 2626 L995 2626 L995 2101 L2007 2101 L2007 1782 L995 1782 L995 664 Q995 555 1023.5 481 Q1052 407 1111 362 Q1170 317 1261.5 298 Q1353 279 1479 279 Q1549 279 1616.5 285.5 Q1684 292 1746.5 304 Q1809 316 1866 332.5 Q1923 349 1974 369 L1974 53 Z M1425 2483 L1548 2921 L1446 3335 L1695 3335 Q1746 3335 1790 3320 Q1834 3305 1867 3276.5 Q1900 3248 1918.5 3206.5 Q1937 3165 1937 3113 Q1937 3055 1924.5 3001.5 Q1912 2948 1890.5 2894.5 Q1869 2841 1839 2784 Q1809 2727 1773 2663 L1675 2483 L1425 2483 Z " />
<glyph glyph-name="tcommaaccent" unicode="&#x163;" horiz-adv-x="2187" d="M1974 53 Q1917 32 1850 13 Q1783 -6 1705.5 -19.5 Q1628 -33 1540.5 -41 Q1453 -49 1356 -49 Q1165 -49 1022.5 -12.5 Q880 24 784.5 103.5 Q689 183 641.5 308 Q594 433 594 610 L594 1782 L139 1782 L139 2101 L610 2101 L659 2626 L995 2626 L995 2101 L2007 2101 L2007 1782 L995 1782 L995 664 Q995 555 1023.5 481 Q1052 407 1111 362 Q1170 317 1261.5 298 Q1353 279 1479 279 Q1549 279 1616.5 285.5 Q1684 292 1746.5 304 Q1809 316 1866 332.5 Q1923 349 1974 369 L1974 53 Z M1040 -983 L884 -827 L1144 -551 L1052 -172 L1302 -172 Q1353 -172 1397 -187 Q1441 -202 1473.5 -230.5 Q1506 -259 1525 -300 Q1544 -341 1544 -393 Q1544 -450 1523 -506 Q1502 -562 1461 -618 Q1420 -674 1360.5 -729.5 Q1301 -785 1224 -844 L1040 -983 Z " />
<glyph glyph-name="uni021B" unicode="&#x21b;" horiz-adv-x="2187" d="M1974 53 Q1917 32 1850 13 Q1783 -6 1705.5 -19.5 Q1628 -33 1540.5 -41 Q1453 -49 1356 -49 Q1165 -49 1022.5 -12.5 Q880 24 784.5 103.5 Q689 183 641.5 308 Q594 433 594 610 L594 1782 L139 1782 L139 2101 L610 2101 L659 2626 L995 2626 L995 2101 L2007 2101 L2007 1782 L995 1782 L995 664 Q995 555 1023.5 481 Q1052 407 1111 362 Q1170 317 1261.5 298 Q1353 279 1479 279 Q1549 279 1616.5 285.5 Q1684 292 1746.5 304 Q1809 316 1866 332.5 Q1923 349 1974 369 L1974 53 Z M1040 -983 L884 -827 L1144 -551 L1052 -172 L1302 -172 Q1353 -172 1397 -187 Q1441 -202 1473.5 -230.5 Q1506 -259 1525 -300 Q1544 -341 1544 -393 Q1544 -450 1523 -506 Q1502 -562 1461 -618 Q1420 -674 1360.5 -729.5 Q1301 -785 1224 -844 L1040 -983 Z " />
<glyph glyph-name="tbar" unicode="&#x167;" horiz-adv-x="2187" d="M1974 53 Q1917 32 1850 13 Q1783 -6 1705.5 -19.5 Q1628 -33 1540.5 -41 Q1453 -49 1356 -49 Q1165 -49 1022.5 -12.5 Q880 24 784.5 103.5 Q689 183 641.5 308 Q594 433 594 610 L594 938 L336 938 L336 1245 L594 1245 L594 1782 L139 1782 L139 2101 L610 2101 L659 2626 L995 2626 L995 2101 L2007 2101 L2007 1782 L995 1782 L995 1245 L1671 1245 L1671 938 L995 938 L995 664 Q995 555 1023.5 481 Q1052 407 1111 362 Q1170 317 1261.5 298 Q1353 279 1479 279 Q1549 279 1616.5 285.5 Q1684 292 1746.5 304 Q1809 316 1866 332.5 Q1923 349 1974 369 L1974 53 Z " />
<glyph glyph-name="u" unicode="u" horiz-adv-x="3133" d="M2322 0 L2290 180 Q2212 129 2116 87 Q2020 45 1910.5 15 Q1801 -15 1680 -32 Q1559 -49 1430 -49 Q1298 -49 1172 -35.5 Q1046 -22 934.5 12 Q823 46 729.5 103 Q636 160 568.5 247.5 Q501 335 463.5 455.5 Q426 576 426 737 L426 2101 L831 2101 L831 807 Q831 658 876.5 555.5 Q922 453 1009 389.5 Q1096 326 1223.5 298 Q1351 270 1516 270 Q1636 270 1735 283 Q1834 296 1922 321.5 Q2010 347 2091.5 384.5 Q2173 422 2257 471 L2257 2101 L2662 2101 L2662 0 L2322 0 Z " />
<glyph glyph-name="ugrave" unicode="&#xf9;" horiz-adv-x="3133" d="M2322 0 L2290 180 Q2212 129 2116 87 Q2020 45 1910.5 15 Q1801 -15 1680 -32 Q1559 -49 1430 -49 Q1298 -49 1172 -35.5 Q1046 -22 934.5 12 Q823 46 729.5 103 Q636 160 568.5 247.5 Q501 335 463.5 455.5 Q426 576 426 737 L426 2101 L831 2101 L831 807 Q831 658 876.5 555.5 Q922 453 1009 389.5 Q1096 326 1223.5 298 Q1351 270 1516 270 Q1636 270 1735 283 Q1834 296 1922 321.5 Q2010 347 2091.5 384.5 Q2173 422 2257 471 L2257 2101 L2662 2101 L2662 0 L2322 0 Z M1380 2408 L774 3056 L1298 3056 L1749 2408 L1380 2408 Z " />
<glyph glyph-name="uacute" unicode="&#xfa;" horiz-adv-x="3133" d="M2322 0 L2290 180 Q2212 129 2116 87 Q2020 45 1910.5 15 Q1801 -15 1680 -32 Q1559 -49 1430 -49 Q1298 -49 1172 -35.5 Q1046 -22 934.5 12 Q823 46 729.5 103 Q636 160 568.5 247.5 Q501 335 463.5 455.5 Q426 576 426 737 L426 2101 L831 2101 L831 807 Q831 658 876.5 555.5 Q922 453 1009 389.5 Q1096 326 1223.5 298 Q1351 270 1516 270 Q1636 270 1735 283 Q1834 296 1922 321.5 Q2010 347 2091.5 384.5 Q2173 422 2257 471 L2257 2101 L2662 2101 L2662 0 L2322 0 Z M1344 2408 L1794 3056 L2319 3056 L1712 2408 L1344 2408 Z " />
<glyph glyph-name="ucircumflex" unicode="&#xfb;" horiz-adv-x="3133" d="M2322 0 L2290 180 Q2212 129 2116 87 Q2020 45 1910.5 15 Q1801 -15 1680 -32 Q1559 -49 1430 -49 Q1298 -49 1172 -35.5 Q1046 -22 934.5 12 Q823 46 729.5 103 Q636 160 568.5 247.5 Q501 335 463.5 455.5 Q426 576 426 737 L426 2101 L831 2101 L831 807 Q831 658 876.5 555.5 Q922 453 1009 389.5 Q1096 326 1223.5 298 Q1351 270 1516 270 Q1636 270 1735 283 Q1834 296 1922 321.5 Q2010 347 2091.5 384.5 Q2173 422 2257 471 L2257 2101 L2662 2101 L2662 0 L2322 0 Z M1970 2408 L1544 2736 L1118 2408 L750 2408 L1364 3056 L1724 3056 L2339 2408 L1970 2408 Z " />
<glyph glyph-name="utilde" unicode="&#x169;" horiz-adv-x="3133" d="M2322 0 L2290 180 Q2212 129 2116 87 Q2020 45 1910.5 15 Q1801 -15 1680 -32 Q1559 -49 1430 -49 Q1298 -49 1172 -35.5 Q1046 -22 934.5 12 Q823 46 729.5 103 Q636 160 568.5 247.5 Q501 335 463.5 455.5 Q426 576 426 737 L426 2101 L831 2101 L831 807 Q831 658 876.5 555.5 Q922 453 1009 389.5 Q1096 326 1223.5 298 Q1351 270 1516 270 Q1636 270 1735 283 Q1834 296 1922 321.5 Q2010 347 2091.5 384.5 Q2173 422 2257 471 L2257 2101 L2662 2101 L2662 0 L2322 0 Z M2322 2990 Q2322 2887 2296 2790.5 Q2270 2694 2214.5 2619 Q2159 2544 2072 2499 Q1985 2454 1864 2454 Q1791 2454 1728.5 2472 Q1666 2490 1611 2516.5 Q1556 2543 1507.5 2574.5 Q1459 2606 1414 2632.5 Q1369 2659 1326.5 2677 Q1284 2695 1241 2695 Q1196 2695 1163 2680 Q1130 2665 1107 2636.5 Q1084 2608 1070.5 2567 Q1057 2526 1053 2474 L770 2474 Q770 2577 796 2673.5 Q822 2770 878 2845 Q934 2920 1020.5 2965.5 Q1107 3011 1229 3011 Q1302 3011 1364.5 2993 Q1427 2975 1481.5 2948 Q1536 2921 1584.5 2890 Q1633 2859 1678 2832 Q1723 2805 1765.5 2787 Q1808 2769 1851 2769 Q1896 2769 1929 2784 Q1962 2799 1985 2827.5 Q2008 2856 2021.5 2897 Q2035 2938 2040 2990 L2322 2990 Z " />
<glyph glyph-name="udieresis" unicode="&#xfc;" horiz-adv-x="3133" d="M2322 0 L2290 180 Q2212 129 2116 87 Q2020 45 1910.5 15 Q1801 -15 1680 -32 Q1559 -49 1430 -49 Q1298 -49 1172 -35.5 Q1046 -22 934.5 12 Q823 46 729.5 103 Q636 160 568.5 247.5 Q501 335 463.5 455.5 Q426 576 426 737 L426 2101 L831 2101 L831 807 Q831 658 876.5 555.5 Q922 453 1009 389.5 Q1096 326 1223.5 298 Q1351 270 1516 270 Q1636 270 1735 283 Q1834 296 1922 321.5 Q2010 347 2091.5 384.5 Q2173 422 2257 471 L2257 2101 L2662 2101 L2662 0 L2322 0 Z M791 2527 L791 2941 L1229 2941 L1229 2527 L791 2527 Z M1860 2527 L1860 2941 L2298 2941 L2298 2527 L1860 2527 Z " />
<glyph glyph-name="umacron" unicode="&#x16b;" horiz-adv-x="3133" d="M2322 0 L2290 180 Q2212 129 2116 87 Q2020 45 1910.5 15 Q1801 -15 1680 -32 Q1559 -49 1430 -49 Q1298 -49 1172 -35.5 Q1046 -22 934.5 12 Q823 46 729.5 103 Q636 160 568.5 247.5 Q501 335 463.5 455.5 Q426 576 426 737 L426 2101 L831 2101 L831 807 Q831 658 876.5 555.5 Q922 453 1009 389.5 Q1096 326 1223.5 298 Q1351 270 1516 270 Q1636 270 1735 283 Q1834 296 1922 321.5 Q2010 347 2091.5 384.5 Q2173 422 2257 471 L2257 2101 L2662 2101 L2662 0 L2322 0 Z M831 2548 L831 2855 L2257 2855 L2257 2548 L831 2548 Z " />
<glyph glyph-name="ubreve" unicode="&#x16d;" horiz-adv-x="3133" d="M2322 0 L2290 180 Q2212 129 2116 87 Q2020 45 1910.5 15 Q1801 -15 1680 -32 Q1559 -49 1430 -49 Q1298 -49 1172 -35.5 Q1046 -22 934.5 12 Q823 46 729.5 103 Q636 160 568.5 247.5 Q501 335 463.5 455.5 Q426 576 426 737 L426 2101 L831 2101 L831 807 Q831 658 876.5 555.5 Q922 453 1009 389.5 Q1096 326 1223.5 298 Q1351 270 1516 270 Q1636 270 1735 283 Q1834 296 1922 321.5 Q2010 347 2091.5 384.5 Q2173 422 2257 471 L2257 2101 L2662 2101 L2662 0 L2322 0 Z M2257 3056 Q2254 2902 2202.5 2777.5 Q2151 2653 2058.5 2564.5 Q1966 2476 1835.5 2428 Q1705 2380 1544 2380 Q1383 2380 1252.5 2428 Q1122 2476 1029.5 2564.5 Q937 2653 885.5 2777.5 Q834 2902 831 3056 L1118 3056 Q1126 2968 1156 2900 Q1186 2832 1239 2785.5 Q1292 2739 1368 2715 Q1444 2691 1544 2691 Q1644 2691 1720 2715 Q1796 2739 1849 2785.5 Q1902 2832 1932 2900 Q1962 2968 1970 3056 L2257 3056 Z " />
<glyph glyph-name="uring" unicode="&#x16f;" horiz-adv-x="3133" d="M2322 0 L2290 180 Q2212 129 2116 87 Q2020 45 1910.5 15 Q1801 -15 1680 -32 Q1559 -49 1430 -49 Q1298 -49 1172 -35.5 Q1046 -22 934.5 12 Q823 46 729.5 103 Q636 160 568.5 247.5 Q501 335 463.5 455.5 Q426 576 426 737 L426 2101 L831 2101 L831 807 Q831 658 876.5 555.5 Q922 453 1009 389.5 Q1096 326 1223.5 298 Q1351 270 1516 270 Q1636 270 1735 283 Q1834 296 1922 321.5 Q2010 347 2091.5 384.5 Q2173 422 2257 471 L2257 2101 L2662 2101 L2662 0 L2322 0 Z M1999 2826 Q1999 2733 1963.5 2653 Q1928 2573 1866.5 2515 Q1805 2457 1722 2424.5 Q1639 2392 1544 2392 Q1450 2392 1367 2424.5 Q1284 2457 1222.5 2515 Q1161 2573 1125.5 2653 Q1090 2733 1090 2826 Q1090 2920 1125.5 2999.5 Q1161 3079 1222.5 3137 Q1284 3195 1367 3227.5 Q1450 3260 1544 3260 Q1639 3260 1722 3227.5 Q1805 3195 1866.5 3137 Q1928 3079 1963.5 2999.5 Q1999 2920 1999 2826 Z M1544 2601 Q1593 2601 1634 2618.5 Q1675 2636 1705 2666.5 Q1735 2697 1752 2738 Q1769 2779 1769 2826 Q1769 2873 1752 2913.5 Q1735 2954 1705 2984.5 Q1675 3015 1634 3033.5 Q1593 3052 1544 3052 Q1495 3052 1454 3033.5 Q1413 3015 1383 2984.5 Q1353 2954 1336 2913.5 Q1319 2873 1319 2826 Q1319 2779 1336 2738 Q1353 2697 1383 2666.5 Q1413 2636 1454 2618.5 Q1495 2601 1544 2601 Z " />
<glyph glyph-name="uhungarumlaut" unicode="&#x171;" horiz-adv-x="3133" d="M2322 0 L2290 180 Q2212 129 2116 87 Q2020 45 1910.5 15 Q1801 -15 1680 -32 Q1559 -49 1430 -49 Q1298 -49 1172 -35.5 Q1046 -22 934.5 12 Q823 46 729.5 103 Q636 160 568.5 247.5 Q501 335 463.5 455.5 Q426 576 426 737 L426 2101 L831 2101 L831 807 Q831 658 876.5 555.5 Q922 453 1009 389.5 Q1096 326 1223.5 298 Q1351 270 1516 270 Q1636 270 1735 283 Q1834 296 1922 321.5 Q2010 347 2091.5 384.5 Q2173 422 2257 471 L2257 2101 L2662 2101 L2662 0 L2322 0 Z M930 2408 L1216 3056 L1712 3056 L1270 2408 L930 2408 Z M1818 2408 L2105 3056 L2601 3056 L2158 2408 L1818 2408 Z " />
<glyph glyph-name="uogonek" unicode="&#x173;" horiz-adv-x="3133" d="M2662 -860 Q2613 -873 2556.5 -879 Q2500 -885 2441 -885 Q2315 -885 2225.5 -853 Q2136 -821 2079.5 -769.5 Q2023 -718 1996.5 -651.5 Q1970 -585 1970 -516 Q1970 -435 2000 -362 Q2030 -289 2079.5 -224.5 Q2129 -160 2192.5 -104 Q2256 -48 2322 0 L2290 180 Q2212 129 2116 87 Q2020 45 1910.5 15 Q1801 -15 1680 -32 Q1559 -49 1430 -49 Q1298 -49 1172 -35.5 Q1046 -22 934.5 12 Q823 46 729.5 103 Q636 160 568.5 247.5 Q501 335 463.5 455.5 Q426 576 426 737 L426 2101 L831 2101 L831 807 Q831 658 876.5 555.5 Q922 453 1009 389.5 Q1096 326 1223.5 298 Q1351 270 1516 270 Q1636 270 1735 283 Q1834 296 1922 321.5 Q2010 347 2091.5 384.5 Q2173 422 2257 471 L2257 2101 L2662 2101 L2662 0 L2564 0 Q2505 -57 2453 -115 Q2401 -173 2362 -230.5 Q2323 -288 2300 -344.5 Q2277 -401 2277 -455 Q2277 -556 2339 -605.5 Q2401 -655 2515 -655 Q2538 -655 2558 -653.5 Q2578 -652 2596 -650 Q2614 -648 2630.5 -645 Q2647 -642 2662 -639 L2662 -860 Z " />
<glyph glyph-name="v" unicode="v" horiz-adv-x="2630" d="M1126 0 L49 2101 L500 2101 L1159 762 Q1199 678 1241 594 Q1283 510 1323 426 Q1363 510 1405 594 Q1447 678 1487 762 L2138 2101 L2580 2101 L1503 0 L1126 0 Z " />
<glyph glyph-name="w" unicode="w" horiz-adv-x="4239" d="M2814 0 L2253 1339 Q2219 1423 2183.5 1505.5 Q2148 1588 2114 1671 Q2079 1588 2043.5 1501.5 Q2008 1415 1974 1331 L1425 0 L1049 0 L66 2101 L508 2101 L1094 762 Q1131 678 1167.5 594 Q1204 510 1241 426 Q1275 510 1310.5 594 Q1346 678 1380 762 L1933 2101 L2310 2101 L2875 762 Q2909 678 2945 596 Q2981 514 3015 430 Q3052 514 3086.5 596 Q3121 678 3158 762 L3740 2101 L4174 2101 L3191 0 L2814 0 Z " />
<glyph glyph-name="wgrave" unicode="&#x1e81;" horiz-adv-x="4239" d="M2814 0 L2253 1339 Q2219 1423 2183.5 1505.5 Q2148 1588 2114 1671 Q2079 1588 2043.5 1501.5 Q2008 1415 1974 1331 L1425 0 L1049 0 L66 2101 L508 2101 L1094 762 Q1131 678 1167.5 594 Q1204 510 1241 426 Q1275 510 1310.5 594 Q1346 678 1380 762 L1933 2101 L2310 2101 L2875 762 Q2909 678 2945 596 Q2981 514 3015 430 Q3052 514 3086.5 596 Q3121 678 3158 762 L3740 2101 L4174 2101 L3191 0 L2814 0 Z M1954 2408 L1348 3056 L1872 3056 L2323 2408 L1954 2408 Z " />
<glyph glyph-name="wacute" unicode="&#x1e83;" horiz-adv-x="4239" d="M2814 0 L2253 1339 Q2219 1423 2183.5 1505.5 Q2148 1588 2114 1671 Q2079 1588 2043.5 1501.5 Q2008 1415 1974 1331 L1425 0 L1049 0 L66 2101 L508 2101 L1094 762 Q1131 678 1167.5 594 Q1204 510 1241 426 Q1275 510 1310.5 594 Q1346 678 1380 762 L1933 2101 L2310 2101 L2875 762 Q2909 678 2945 596 Q2981 514 3015 430 Q3052 514 3086.5 596 Q3121 678 3158 762 L3740 2101 L4174 2101 L3191 0 L2814 0 Z M1917 2408 L2367 3056 L2892 3056 L2285 2408 L1917 2408 Z " />
<glyph glyph-name="wcircumflex" unicode="&#x175;" horiz-adv-x="4239" d="M2814 0 L2253 1339 Q2219 1423 2183.5 1505.5 Q2148 1588 2114 1671 Q2079 1588 2043.5 1501.5 Q2008 1415 1974 1331 L1425 0 L1049 0 L66 2101 L508 2101 L1094 762 Q1131 678 1167.5 594 Q1204 510 1241 426 Q1275 510 1310.5 594 Q1346 678 1380 762 L1933 2101 L2310 2101 L2875 762 Q2909 678 2945 596 Q2981 514 3015 430 Q3052 514 3086.5 596 Q3121 678 3158 762 L3740 2101 L4174 2101 L3191 0 L2814 0 Z M2543 2408 L2117 2736 L1691 2408 L1323 2408 L1937 3056 L2297 3056 L2912 2408 L2543 2408 Z " />
<glyph glyph-name="wdieresis" unicode="&#x1e85;" horiz-adv-x="4239" d="M2814 0 L2253 1339 Q2219 1423 2183.5 1505.5 Q2148 1588 2114 1671 Q2079 1588 2043.5 1501.5 Q2008 1415 1974 1331 L1425 0 L1049 0 L66 2101 L508 2101 L1094 762 Q1131 678 1167.5 594 Q1204 510 1241 426 Q1275 510 1310.5 594 Q1346 678 1380 762 L1933 2101 L2310 2101 L2875 762 Q2909 678 2945 596 Q2981 514 3015 430 Q3052 514 3086.5 596 Q3121 678 3158 762 L3740 2101 L4174 2101 L3191 0 L2814 0 Z M1364 2527 L1364 2941 L1802 2941 L1802 2527 L1364 2527 Z M2433 2527 L2433 2941 L2871 2941 L2871 2527 L2433 2527 Z " />
<glyph glyph-name="x" unicode="x" horiz-adv-x="2695" d="M2097 0 L1339 815 L578 0 L74 0 L1098 1069 L106 2101 L631 2101 L1343 1327 L2064 2101 L2568 2101 L1585 1073 L2621 0 L2097 0 Z " />
<glyph glyph-name="y" unicode="y" horiz-adv-x="2630" d="M16 -553 Q57 -562 106.5 -570 Q156 -578 221 -578 Q316 -578 401 -564.5 Q486 -551 561.5 -523 Q637 -495 704 -452.5 Q771 -410 831.5 -351.5 Q892 -293 946 -218.5 Q1000 -144 1049 -53 L1102 45 L49 2101 L500 2101 L1180 717 Q1217 642 1251.5 570.5 Q1286 499 1323 422 Q1360 499 1394.5 573 Q1429 647 1466 721 L2138 2101 L2580 2101 L1470 -61 Q1403 -191 1330 -305 Q1257 -419 1172.5 -513.5 Q1088 -608 990 -682.5 Q892 -757 776 -808 Q660 -859 523.5 -886 Q387 -913 225 -913 Q201 -913 172.5 -911.5 Q144 -910 116 -906.5 Q88 -903 62 -898 Q36 -893 16 -885 L16 -553 Z " />
<glyph glyph-name="ygrave" unicode="&#x1ef3;" horiz-adv-x="2630" d="M16 -553 Q57 -562 106.5 -570 Q156 -578 221 -578 Q316 -578 401 -564.5 Q486 -551 561.5 -523 Q637 -495 704 -452.5 Q771 -410 831.5 -351.5 Q892 -293 946 -218.5 Q1000 -144 1049 -53 L1102 45 L49 2101 L500 2101 L1180 717 Q1217 642 1251.5 570.5 Q1286 499 1323 422 Q1360 499 1394.5 573 Q1429 647 1466 721 L2138 2101 L2580 2101 L1470 -61 Q1403 -191 1330 -305 Q1257 -419 1172.5 -513.5 Q1088 -608 990 -682.5 Q892 -757 776 -808 Q660 -859 523.5 -886 Q387 -913 225 -913 Q201 -913 172.5 -911.5 Q144 -910 116 -906.5 Q88 -903 62 -898 Q36 -893 16 -885 L16 -553 Z M1136 2408 L530 3056 L1054 3056 L1505 2408 L1136 2408 Z " />
<glyph glyph-name="yacute" unicode="&#xfd;" horiz-adv-x="2630" d="M16 -553 Q57 -562 106.5 -570 Q156 -578 221 -578 Q316 -578 401 -564.5 Q486 -551 561.5 -523 Q637 -495 704 -452.5 Q771 -410 831.5 -351.5 Q892 -293 946 -218.5 Q1000 -144 1049 -53 L1102 45 L49 2101 L500 2101 L1180 717 Q1217 642 1251.5 570.5 Q1286 499 1323 422 Q1360 499 1394.5 573 Q1429 647 1466 721 L2138 2101 L2580 2101 L1470 -61 Q1403 -191 1330 -305 Q1257 -419 1172.5 -513.5 Q1088 -608 990 -682.5 Q892 -757 776 -808 Q660 -859 523.5 -886 Q387 -913 225 -913 Q201 -913 172.5 -911.5 Q144 -910 116 -906.5 Q88 -903 62 -898 Q36 -893 16 -885 L16 -553 Z M1098 2408 L1548 3056 L2073 3056 L1466 2408 L1098 2408 Z " />
<glyph glyph-name="ycircumflex" unicode="&#x177;" horiz-adv-x="2630" d="M16 -553 Q57 -562 106.5 -570 Q156 -578 221 -578 Q316 -578 401 -564.5 Q486 -551 561.5 -523 Q637 -495 704 -452.5 Q771 -410 831.5 -351.5 Q892 -293 946 -218.5 Q1000 -144 1049 -53 L1102 45 L49 2101 L500 2101 L1180 717 Q1217 642 1251.5 570.5 Q1286 499 1323 422 Q1360 499 1394.5 573 Q1429 647 1466 721 L2138 2101 L2580 2101 L1470 -61 Q1403 -191 1330 -305 Q1257 -419 1172.5 -513.5 Q1088 -608 990 -682.5 Q892 -757 776 -808 Q660 -859 523.5 -886 Q387 -913 225 -913 Q201 -913 172.5 -911.5 Q144 -910 116 -906.5 Q88 -903 62 -898 Q36 -893 16 -885 L16 -553 Z M1724 2408 L1298 2736 L872 2408 L504 2408 L1118 3056 L1478 3056 L2093 2408 L1724 2408 Z " />
<glyph glyph-name="ydieresis" unicode="&#xff;" horiz-adv-x="2630" d="M16 -553 Q57 -562 106.5 -570 Q156 -578 221 -578 Q316 -578 401 -564.5 Q486 -551 561.5 -523 Q637 -495 704 -452.5 Q771 -410 831.5 -351.5 Q892 -293 946 -218.5 Q1000 -144 1049 -53 L1102 45 L49 2101 L500 2101 L1180 717 Q1217 642 1251.5 570.5 Q1286 499 1323 422 Q1360 499 1394.5 573 Q1429 647 1466 721 L2138 2101 L2580 2101 L1470 -61 Q1403 -191 1330 -305 Q1257 -419 1172.5 -513.5 Q1088 -608 990 -682.5 Q892 -757 776 -808 Q660 -859 523.5 -886 Q387 -913 225 -913 Q201 -913 172.5 -911.5 Q144 -910 116 -906.5 Q88 -903 62 -898 Q36 -893 16 -885 L16 -553 Z M545 2527 L545 2941 L983 2941 L983 2527 L545 2527 Z M1614 2527 L1614 2941 L2052 2941 L2052 2527 L1614 2527 Z " />
<glyph glyph-name="z" unicode="z" horiz-adv-x="2646" d="M238 0 L238 279 L1802 1782 L299 1782 L299 2101 L2355 2101 L2355 1827 L782 319 L2408 319 L2408 0 L238 0 Z " />
<glyph glyph-name="zacute" unicode="&#x17a;" horiz-adv-x="2646" d="M238 0 L238 279 L1802 1782 L299 1782 L299 2101 L2355 2101 L2355 1827 L782 319 L2408 319 L2408 0 L238 0 Z M1118 2408 L1568 3056 L2093 3056 L1486 2408 L1118 2408 Z " />
<glyph glyph-name="zcaron" unicode="&#x17e;" horiz-adv-x="2646" d="M238 0 L238 279 L1802 1782 L299 1782 L299 2101 L2355 2101 L2355 1827 L782 319 L2408 319 L2408 0 L238 0 Z M1139 2408 L525 3056 L893 3056 L1319 2724 L1745 3056 L2114 3056 L1499 2408 L1139 2408 Z " />
<glyph glyph-name="zdotaccent" unicode="&#x17c;" horiz-adv-x="2646" d="M238 0 L238 279 L1802 1782 L299 1782 L299 2101 L2355 2101 L2355 1827 L782 319 L2408 319 L2408 0 L238 0 Z M1094 2503 L1094 2949 L1548 2949 L1548 2503 L1094 2503 Z " />
<glyph glyph-name="ordfeminine" unicode="&#xaa;" horiz-adv-x="2609" d="M1901 1274 L1872 1425 Q1807 1381 1725.5 1345.5 Q1644 1310 1548 1285 Q1452 1260 1344.5 1246.5 Q1237 1233 1122 1233 Q958 1233 815 1264.5 Q672 1296 566.5 1359.5 Q461 1423 400.5 1518 Q340 1613 340 1741 Q340 1825 366.5 1896 Q393 1967 448.5 2025 Q504 2083 590 2127 Q676 2171 795.5 2201 Q915 2231 1069.5 2246 Q1224 2261 1417 2261 Q1519 2261 1630 2258 Q1741 2255 1843 2249 L1843 2306 Q1843 2407 1809.5 2485.5 Q1776 2564 1705 2618 Q1634 2672 1523 2700 Q1412 2728 1257 2728 Q1123 2728 1018.5 2719 Q914 2710 826 2693.5 Q738 2677 661.5 2653.5 Q585 2630 508 2601 L508 2859 Q577 2888 657 2913 Q737 2938 832.5 2956 Q928 2974 1040 2984 Q1152 2994 1286 2994 Q1484 2994 1648 2954.5 Q1812 2915 1929 2834.5 Q2046 2754 2110.5 2632.5 Q2175 2511 2175 2347 L2175 1274 L1901 1274 Z M307 475 L307 766 L2208 766 L2208 475 L307 475 Z M1843 2019 L1499 2019 Q1278 2019 1123 2004 Q968 1989 870.5 1957 Q773 1925 728.5 1874.5 Q684 1824 684 1753 Q684 1688 712 1638.5 Q740 1589 800 1555.5 Q860 1522 955 1504.5 Q1050 1487 1184 1487 Q1285 1487 1379.5 1498 Q1474 1509 1558 1530 Q1642 1551 1714 1581.5 Q1786 1612 1843 1651 L1843 2019 Z " />
<glyph glyph-name="ordmasculine" unicode="&#xba;" horiz-adv-x="2798" d="M1397 1233 Q1212 1233 1061.5 1263.5 Q911 1294 793.5 1350 Q676 1406 590.5 1485 Q505 1564 449.5 1662.5 Q394 1761 367 1876 Q340 1991 340 2118 Q340 2305 402.5 2465.5 Q465 2626 595 2743.5 Q725 2861 924.5 2927.5 Q1124 2994 1397 2994 Q1583 2994 1734 2964 Q1885 2934 2003 2878.5 Q2121 2823 2207 2744 Q2293 2665 2348.5 2567.5 Q2404 2470 2431 2355.5 Q2458 2241 2458 2114 Q2458 1989 2430.5 1875 Q2403 1761 2346 1663 Q2289 1565 2202.5 1486 Q2116 1407 1998 1350.5 Q1880 1294 1730 1263.5 Q1580 1233 1397 1233 Z M1397 1491 Q1583 1491 1718 1535.5 Q1853 1580 1941 1661.5 Q2029 1743 2071.5 1858 Q2114 1973 2114 2114 Q2114 2255 2071.5 2370 Q2029 2485 1941 2566 Q1853 2647 1718 2691.5 Q1583 2736 1397 2736 Q1212 2736 1078 2692.5 Q944 2649 856 2568 Q768 2487 726 2373 Q684 2259 684 2118 Q684 1975 726 1859 Q768 1743 856 1661.5 Q944 1580 1078 1535.5 Q1212 1491 1397 1491 Z M307 475 L307 766 L2490 766 L2490 475 L307 475 Z " />
<glyph glyph-name="grave" unicode="&#x60;" horiz-adv-x="2064" d="M1151 2408 L545 3056 L1069 3056 L1520 2408 L1151 2408 Z " />
<glyph glyph-name="acute" unicode="&#xb4;" horiz-adv-x="2064" d="M545 2408 L995 3056 L1520 3056 L913 2408 L545 2408 Z " />
<glyph glyph-name="circumflex" unicode="&#x2c6;" horiz-adv-x="2064" d="M1458 2408 L1032 2736 L606 2408 L238 2408 L852 3056 L1212 3056 L1827 2408 L1458 2408 Z " />
<glyph glyph-name="caron" unicode="&#x2c7;" horiz-adv-x="2064" d="M852 2408 L238 3056 L606 3056 L1032 2724 L1458 3056 L1827 3056 L1212 2408 L852 2408 Z " />
<glyph glyph-name="caronslovak" unicode="&#x315;" horiz-adv-x="2064" d="M774 2114 L897 2552 L795 2966 L1044 2966 Q1095 2966 1139 2951 Q1183 2936 1216 2907.5 Q1249 2879 1267.5 2837.5 Q1286 2796 1286 2744 Q1286 2686 1273.5 2632.5 Q1261 2579 1239.5 2525.5 Q1218 2472 1188 2415 Q1158 2358 1122 2294 L1024 2114 L774 2114 Z " />
<glyph glyph-name="tilde" unicode="&#x2dc;" horiz-adv-x="2064" d="M1806 2990 Q1806 2887 1780 2790.5 Q1754 2694 1698.5 2619 Q1643 2544 1556 2499 Q1469 2454 1348 2454 Q1275 2454 1212.5 2472 Q1150 2490 1095 2516.5 Q1040 2543 991.5 2574.5 Q943 2606 898 2632.5 Q853 2659 810.5 2677 Q768 2695 725 2695 Q680 2695 647 2680 Q614 2665 591 2636.5 Q568 2608 554.5 2567 Q541 2526 537 2474 L254 2474 Q254 2577 280 2673.5 Q306 2770 362 2845 Q418 2920 504.5 2965.5 Q591 3011 713 3011 Q786 3011 848.5 2993 Q911 2975 965.5 2948 Q1020 2921 1068.5 2890 Q1117 2859 1162 2832 Q1207 2805 1249.5 2787 Q1292 2769 1335 2769 Q1380 2769 1413 2784 Q1446 2799 1469 2827.5 Q1492 2856 1505.5 2897 Q1519 2938 1524 2990 L1806 2990 Z " />
</font>
</svg>
